<svg width="110" height="32" viewBox="0 0 110 32" fill="none" xmlns="http://www.w3.org/2000/svg">
<path d="M12.1685 2.60754C11.8492 2.60754 11.4767 2.67258 11.051 2.80266C10.6253 2.93274 10.1877 3.18108 9.73836 3.54767C9.30082 3.90244 8.86918 4.40503 8.44346 5.05543C8.01774 5.70584 7.63341 6.55137 7.29047 7.59202C6.95935 8.62084 6.68736 9.87435 6.4745 11.3525C6.27347 12.8307 6.17295 14.575 6.17295 16.5854C6.17295 18.5011 6.27347 20.1626 6.4745 21.5698C6.68736 22.9771 6.96527 24.1774 7.30821 25.1707C7.66297 26.1523 8.06504 26.9564 8.51442 27.5831C8.96379 28.2099 9.43681 28.6948 9.93349 29.0377C10.4302 29.3925 10.9268 29.6349 11.4235 29.765C11.9202 29.895 12.3873 29.9601 12.8248 29.9601C13.286 29.9601 13.7531 29.901 14.2262 29.7827C14.6992 29.6644 15.1604 29.493 15.6098 29.2683C16.071 29.0436 16.5085 28.7716 16.9224 28.4523C17.3481 28.133 17.7384 27.7664 18.0931 27.3525L18.8914 28.1508C18.5366 28.5883 18.1109 29.0318 17.6142 29.4812C17.1175 29.9424 16.5381 30.3562 15.8758 30.7228C15.2254 31.1013 14.4922 31.4087 13.6763 31.6452C12.8603 31.8817 11.9557 32 10.9623 32C9.41316 32 7.97044 31.7044 6.63415 31.1131C5.30968 30.5218 4.15078 29.5994 3.15743 28.3459C2.17591 27.1042 1.40133 25.5078 0.833703 23.5565C0.277901 21.6053 0 19.2698 0 16.5499C0 13.9956 0.295639 11.7546 0.886918 9.82705C1.4782 7.89948 2.28234 6.2912 3.29934 5.00222C4.31634 3.7014 5.51072 2.72579 6.88249 2.07539C8.25425 1.41316 9.71471 1.08204 11.2639 1.08204C12.2927 1.08204 13.2269 1.18256 14.0665 1.38359C14.918 1.5728 15.6512 1.85661 16.2661 2.23503C16.881 2.60163 17.354 3.06282 17.6852 3.61863C18.0281 4.1626 18.1996 4.78344 18.1996 5.48115C18.1996 5.80044 18.1463 6.13747 18.0399 6.49224C17.9335 6.83518 17.7679 7.15447 17.5432 7.45011C17.3304 7.73392 17.0643 7.97044 16.745 8.15965C16.4257 8.33703 16.0532 8.42572 15.6275 8.42572C15.2491 8.42572 14.9534 8.34294 14.7406 8.17738C14.5395 8.01183 14.3858 7.79305 14.2794 7.52106C14.1848 7.24908 14.1197 6.94161 14.0843 6.59867C14.0606 6.2439 14.0429 5.88322 14.031 5.51663C14.0192 5.15004 13.9897 4.79527 13.9424 4.45233C13.9069 4.09756 13.8241 3.78418 13.694 3.5122C13.5758 3.24021 13.3984 3.02143 13.1619 2.85588C12.9254 2.69032 12.5942 2.60754 12.1685 2.60754Z" fill="#078B73"/>
<path d="M26.2528 10.6075C25.9808 10.6075 25.7206 10.643 25.4723 10.714C25.2358 10.7849 25.0229 10.9032 24.8337 11.0687C24.6445 11.2225 24.4967 11.4235 24.3903 11.6718C24.2838 11.9084 24.2306 12.1922 24.2306 12.5233C24.2306 12.9845 24.3962 13.4457 24.7273 13.9069C25.0702 14.3562 25.49 14.8293 25.9867 15.3259C26.4952 15.8108 27.0392 16.3193 27.6186 16.8514C28.2099 17.3718 28.7539 17.9276 29.2506 18.5188C29.7591 19.0983 30.1789 19.7191 30.51 20.3814C30.8529 21.0436 31.0244 21.7531 31.0244 22.51C31.0244 23.3614 30.8766 24.1183 30.5809 24.7805C30.2971 25.4427 29.8832 26.0044 29.3393 26.4656C28.8071 26.9268 28.1567 27.2816 27.388 27.5299C26.6312 27.7664 25.7857 27.8847 24.8515 27.8847C24.0355 27.8847 23.2964 27.7724 22.6342 27.5477C21.9719 27.3112 21.3806 27.0273 20.8603 26.6962C20.3518 26.3533 19.9143 25.9926 19.5477 25.6142C19.1811 25.2358 18.8973 24.8928 18.6962 24.5854L19.3171 24.1419C19.4708 24.3193 19.6659 24.5144 19.9024 24.7273C20.139 24.9283 20.3991 25.1175 20.6829 25.2949C20.9786 25.4723 21.292 25.6201 21.6231 25.7384C21.9542 25.8448 22.2912 25.898 22.6342 25.898C23.4856 25.898 24.1833 25.697 24.7273 25.2949C25.2713 24.881 25.5432 24.272 25.5432 23.4678C25.5432 23.0185 25.3954 22.5573 25.0998 22.0843C24.8041 21.5994 24.4316 21.1027 23.9823 20.5942C23.5329 20.0857 23.0481 19.5595 22.5277 19.0155C22.0074 18.4715 21.5226 17.9098 21.0732 17.3304C20.6238 16.7509 20.2513 16.1537 19.9557 15.5388C19.66 14.9239 19.5122 14.2853 19.5122 13.6231C19.5122 12.878 19.66 12.2276 19.9557 11.6718C20.2631 11.116 20.6652 10.6548 21.1619 10.2882C21.6704 9.92166 22.2439 9.64967 22.8825 9.47228C23.5329 9.28307 24.201 9.18847 24.8869 9.18847C25.6792 9.18847 26.4006 9.25942 27.051 9.40133C27.7014 9.54324 28.2572 9.76201 28.7184 10.0576C29.1914 10.3415 29.5521 10.7021 29.8005 11.1397C30.0606 11.5772 30.1907 12.0857 30.1907 12.6652C30.1907 13.1146 30.0429 13.5048 29.7472 13.8359C29.4516 14.167 29.0377 14.3326 28.5056 14.3326C27.9971 14.3326 27.6068 14.2262 27.3348 14.0133C27.0747 13.7886 26.9446 13.4871 26.9446 13.1086C26.9446 12.8603 27.0037 12.6652 27.122 12.5233C27.252 12.3814 27.394 12.269 27.5477 12.1863C27.7014 12.0916 27.8374 12.0148 27.9557 11.9557C28.0857 11.8847 28.1508 11.796 28.1508 11.6896C28.1508 11.3585 27.9734 11.0983 27.6186 10.9091C27.2639 10.7081 26.8086 10.6075 26.2528 10.6075Z" fill="#078B73"/>
<path d="M39.663 10.6075C39.391 10.6075 39.1308 10.643 38.8825 10.714C38.646 10.7849 38.4331 10.9032 38.2439 11.0687C38.0547 11.2225 37.9069 11.4235 37.8005 11.6718C37.694 11.9084 37.6408 12.1922 37.6408 12.5233C37.6408 12.9845 37.8064 13.4457 38.1375 13.9069C38.4804 14.3562 38.9002 14.8293 39.3969 15.3259C39.9054 15.8108 40.4494 16.3193 41.0288 16.8514C41.6201 17.3718 42.1641 17.9276 42.6608 18.5188C43.1693 19.0983 43.5891 19.7191 43.9202 20.3814C44.2631 21.0436 44.4346 21.7531 44.4346 22.51C44.4346 23.3614 44.2868 24.1183 43.9911 24.7805C43.7073 25.4427 43.2934 26.0044 42.7495 26.4656C42.2173 26.9268 41.5669 27.2816 40.7982 27.5299C40.0414 27.7664 39.1959 27.8847 38.2617 27.8847C37.4457 27.8847 36.7066 27.7724 36.0444 27.5477C35.3821 27.3112 34.7908 27.0273 34.2705 26.6962C33.762 26.3533 33.3245 25.9926 32.9579 25.6142C32.5913 25.2358 32.3075 24.8928 32.1064 24.5854L32.7273 24.1419C32.881 24.3193 33.0761 24.5144 33.3127 24.7273C33.5492 24.9283 33.8093 25.1175 34.0931 25.2949C34.3888 25.4723 34.7022 25.6201 35.0333 25.7384C35.3644 25.8448 35.7014 25.898 36.0444 25.898C36.8958 25.898 37.5935 25.697 38.1375 25.2949C38.6815 24.881 38.9535 24.272 38.9535 23.4678C38.9535 23.0185 38.8056 22.5573 38.51 22.0843C38.2144 21.5994 37.8418 21.1027 37.3925 20.5942C36.9431 20.0857 36.4583 19.5595 35.9379 19.0155C35.4176 18.4715 34.9328 17.9098 34.4834 17.3304C34.034 16.7509 33.6615 16.1537 33.3659 15.5388C33.0702 14.9239 32.9224 14.2853 32.9224 13.6231C32.9224 12.878 33.0702 12.2276 33.3659 11.6718C33.6733 11.116 34.0754 10.6548 34.5721 10.2882C35.0806 9.92166 35.6541 9.64967 36.2927 9.47228C36.9431 9.28307 37.6112 9.18847 38.2971 9.18847C39.0894 9.18847 39.8108 9.25942 40.4612 9.40133C41.1116 9.54324 41.6674 9.76201 42.1286 10.0576C42.6016 10.3415 42.9623 10.7021 43.2107 11.1397C43.4708 11.5772 43.6009 12.0857 43.6009 12.6652C43.6009 13.1146 43.4531 13.5048 43.1574 13.8359C42.8618 14.167 42.4479 14.3326 41.9158 14.3326C41.4073 14.3326 41.017 14.2262 40.745 14.0133C40.4849 13.7886 40.3548 13.4871 40.3548 13.1086C40.3548 12.8603 40.4139 12.6652 40.5322 12.5233C40.6622 12.3814 40.8042 12.269 40.9579 12.1863C41.1116 12.0916 41.2476 12.0148 41.3659 11.9557C41.496 11.8847 41.561 11.796 41.561 11.6896C41.561 11.3585 41.3836 11.0983 41.0288 10.9091C40.6741 10.7081 40.2188 10.6075 39.663 10.6075Z" fill="#078B73"/>
<path d="M47.255 12.5233C47.1841 12.0503 47.0658 11.6837 46.9002 11.4235C46.7465 11.1633 46.4804 11.0333 46.102 11.0333C45.901 11.0333 45.7236 11.0687 45.5699 11.1397C45.428 11.2106 45.2742 11.3112 45.1087 11.4412L44.7539 10.9978C45.0259 10.7731 45.3274 10.5543 45.6586 10.3415C46.0015 10.1168 46.3681 9.92166 46.7583 9.7561C47.1486 9.59054 47.5684 9.45455 48.0178 9.34812C48.4671 9.24169 48.9402 9.18847 49.4368 9.18847C50.1464 9.18847 50.7199 9.31264 51.1574 9.56098C51.595 9.79749 51.9379 10.099 52.1863 10.4656C52.4464 10.8204 52.6297 11.2047 52.7362 11.6186C52.8426 12.0325 52.9195 12.405 52.9668 12.7361C53.4043 16.3193 53.8951 19.0333 54.439 20.878C54.983 22.7228 55.6275 23.6452 56.3725 23.6452C56.7864 23.6452 57.1826 23.4205 57.561 22.9712C57.9512 22.5218 58.2883 21.9069 58.5721 21.1264C58.8677 20.3459 59.1042 19.4353 59.2816 18.3947C59.459 17.354 59.5477 16.2424 59.5477 15.0599C59.5477 14.2794 59.4945 13.6231 59.3881 13.0909C59.2816 12.5469 59.1634 12.0916 59.0333 11.7251C58.9032 11.3585 58.7849 11.0569 58.6785 10.8204C58.5721 10.5721 58.5189 10.3533 58.5189 10.1641C58.5189 9.9867 58.5898 9.83888 58.7317 9.72062C58.8736 9.60237 59.0392 9.50185 59.2284 9.41907C59.4294 9.33629 59.6305 9.27716 59.8315 9.24169C60.0444 9.20621 60.2158 9.18847 60.3459 9.18847C60.6889 9.18847 60.9372 9.23577 61.0909 9.33038C61.2447 9.42498 61.3688 9.60828 61.4634 9.88027C61.5699 10.2232 61.6408 10.6785 61.6763 11.2461C61.7236 11.8019 61.7473 12.3991 61.7473 13.0377C61.7473 13.9483 61.6822 14.9475 61.5521 16.0355C61.4339 17.1234 61.2447 18.2173 60.9845 19.3171C60.7362 20.4169 60.4169 21.4812 60.0266 22.51C59.6364 23.5388 59.1693 24.4553 58.6253 25.2594C58.0932 26.0517 57.4841 26.6903 56.7982 27.1752C56.1242 27.6482 55.3674 27.8847 54.5277 27.8847C53.5462 27.8847 52.6948 27.6009 51.9734 27.0333C51.2521 26.4656 50.6371 25.7265 50.1286 24.816C49.6319 23.9054 49.2181 22.8825 48.8869 21.7472C48.5558 20.612 48.2838 19.4767 48.071 18.3415C47.8699 17.1944 47.7044 16.1123 47.5743 15.0953C47.456 14.0665 47.3496 13.2092 47.255 12.5233Z" fill="#078B73"/>
<path d="M70.7406 26.0044C70.7406 26.1582 70.711 26.3474 70.6519 26.5721C70.6046 26.7849 70.4804 26.9919 70.2794 27.1929C70.0902 27.3821 69.8123 27.5418 69.4457 27.6718C69.0791 27.8137 68.5824 27.8847 67.9557 27.8847C67.3289 27.8847 66.8382 27.8078 66.4834 27.6541C66.1286 27.5122 65.8626 27.3407 65.6852 27.1397C65.5078 26.9387 65.3954 26.7317 65.3481 26.5188C65.3127 26.306 65.2949 26.1345 65.2949 26.0044V12.3104C65.2949 11.9675 65.2121 11.6718 65.0466 11.4235C64.8929 11.1633 64.6268 11.0333 64.2484 11.0333C64.0473 11.0333 63.8759 11.0687 63.734 11.1397C63.592 11.2106 63.4383 11.3112 63.2728 11.4412L62.9002 10.9978C63.1722 10.7731 63.4738 10.5543 63.8049 10.3415C64.1478 10.1168 64.5144 9.92166 64.9047 9.7561C65.2949 9.59054 65.7147 9.45455 66.1641 9.34812C66.6135 9.24169 67.0865 9.18847 67.5832 9.18847C68.3518 9.18847 68.949 9.2949 69.3748 9.50776C69.8005 9.7088 70.1138 9.96304 70.3149 10.2705C70.5159 10.5661 70.6342 10.8854 70.6697 11.2284C70.717 11.5713 70.7406 11.8729 70.7406 12.133V26.0044ZM64.745 5.14412C64.745 4.81301 64.816 4.49963 64.9579 4.20399C65.1116 3.89653 65.3186 3.63045 65.5787 3.40576C65.8507 3.18108 66.1582 3.0037 66.5011 2.87361C66.8559 2.74353 67.2402 2.67849 67.6541 2.67849C68.0562 2.67849 68.4287 2.74353 68.7716 2.87361C69.1264 3.0037 69.4339 3.18108 69.694 3.40576C69.9542 3.63045 70.1552 3.89653 70.2971 4.20399C70.4509 4.49963 70.5277 4.81301 70.5277 5.14412C70.5277 5.48707 70.4509 5.80636 70.2971 6.102C70.1552 6.39763 69.9542 6.6578 69.694 6.88248C69.4339 7.09534 69.1264 7.26681 68.7716 7.3969C68.4287 7.52698 68.0562 7.59202 67.6541 7.59202C67.2402 7.59202 66.8559 7.52698 66.5011 7.3969C66.1582 7.26681 65.8507 7.09534 65.5787 6.88248C65.3186 6.6578 65.1116 6.39763 64.9579 6.102C64.816 5.80636 64.745 5.48707 64.745 5.14412Z" fill="#078B73"/>
<path d="M80.7096 26.0399C80.7096 26.1936 80.68 26.3769 80.6209 26.5898C80.5736 26.8027 80.4494 27.0037 80.2484 27.1929C80.0592 27.3821 79.7753 27.5418 79.3969 27.6718C79.0303 27.8137 78.5337 27.8847 77.9069 27.8847C77.2802 27.8847 76.7894 27.8078 76.4346 27.6541C76.0799 27.5122 75.8138 27.3407 75.6364 27.1397C75.4708 26.9387 75.3644 26.7317 75.3171 26.5188C75.2816 26.306 75.2639 26.1345 75.2639 26.0044V3.12195C75.2639 2.77901 75.1811 2.48337 75.0156 2.23503C74.8618 1.97487 74.5957 1.84479 74.2173 1.84479C74.0163 1.84479 73.8389 1.88027 73.6852 1.95122C73.5433 2.01035 73.3895 2.10495 73.224 2.23503L72.8692 1.80931C73.1412 1.58463 73.4428 1.36585 73.7739 1.15299C74.105 0.928307 74.4657 0.733186 74.8559 0.567627C75.258 0.402069 75.6837 0.266075 76.1331 0.159645C76.5824 0.0532151 77.0555 0 77.5521 0C78.3208 0 78.918 0.10643 79.3437 0.31929C79.7694 0.520325 80.0828 0.774575 80.2838 1.08204C80.4849 1.37768 80.6031 1.69697 80.6386 2.03991C80.6859 2.37103 80.7096 2.66667 80.7096 2.92683V26.0399Z" fill="#078B73"/>
<path d="M90.6785 26.0399C90.6785 26.1936 90.649 26.3769 90.5898 26.5898C90.5425 26.8027 90.4184 27.0037 90.2173 27.1929C90.0281 27.3821 89.7443 27.5418 89.3659 27.6718C88.9993 27.8137 88.5026 27.8847 87.8759 27.8847C87.2491 27.8847 86.7584 27.8078 86.4036 27.6541C86.0488 27.5122 85.7827 27.3407 85.6054 27.1397C85.4398 26.9387 85.3334 26.7317 85.2861 26.5188C85.2506 26.306 85.2329 26.1345 85.2329 26.0044V3.12195C85.2329 2.77901 85.1501 2.48337 84.9845 2.23503C84.8308 1.97487 84.5647 1.84479 84.1863 1.84479C83.9853 1.84479 83.8079 1.88027 83.6541 1.95122C83.5122 2.01035 83.3585 2.10495 83.1929 2.23503L82.8382 1.80931C83.1102 1.58463 83.4117 1.36585 83.7428 1.15299C84.0739 0.928307 84.4346 0.733186 84.8249 0.567627C85.2269 0.402069 85.6527 0.266075 86.102 0.159645C86.5514 0.0532151 87.0244 0 87.5211 0C88.2898 0 88.887 0.10643 89.3127 0.31929C89.7384 0.520325 90.0518 0.774575 90.2528 1.08204C90.4538 1.37768 90.5721 1.69697 90.6076 2.03991C90.6549 2.37103 90.6785 2.66667 90.6785 2.92683V26.0399Z" fill="#078B73"/>
<path d="M99.7428 19.459C99.7428 19.8374 99.796 20.2513 99.9025 20.7007C100.021 21.1382 100.186 21.5817 100.399 22.031C100.612 22.4804 100.872 22.912 101.18 23.3259C101.499 23.728 101.86 24.0887 102.262 24.408C102.676 24.7273 103.131 24.9815 103.628 25.1707C104.124 25.3599 104.668 25.4545 105.259 25.4545C105.673 25.4545 106.058 25.4072 106.412 25.3126C106.767 25.218 107.098 25.088 107.406 24.9224C107.713 24.7568 108.009 24.5676 108.293 24.3548C108.577 24.1301 108.86 23.8936 109.144 23.6452L109.588 24.071C109.316 24.4375 108.967 24.8396 108.541 25.2772C108.115 25.7147 107.601 26.1286 106.998 26.5188C106.395 26.8973 105.691 27.2166 104.887 27.4767C104.083 27.7251 103.166 27.8492 102.138 27.8492C101.109 27.8492 100.104 27.6659 99.122 27.2993C98.1523 26.9209 97.289 26.3592 96.5322 25.6142C95.7754 24.8692 95.1663 23.9409 94.7051 22.8293C94.2558 21.7177 94.0311 20.4169 94.0311 18.9268C94.0311 17.8507 94.1671 16.8633 94.4391 15.9645C94.7111 15.0658 95.0776 14.2557 95.5388 13.5344C96.0119 12.813 96.5558 12.1803 97.1708 11.6364C97.7975 11.0924 98.4538 10.643 99.1397 10.2882C99.8256 9.92166 100.523 9.64967 101.233 9.47228C101.954 9.28307 102.646 9.18847 103.308 9.18847C104.183 9.18847 104.946 9.28307 105.596 9.47228C106.247 9.66149 106.785 9.91574 107.211 10.235C107.648 10.5543 107.973 10.9268 108.186 11.3525C108.399 11.7664 108.506 12.204 108.506 12.6652C108.506 13.221 108.346 13.7236 108.027 14.1729C107.707 14.6105 107.282 14.9948 106.749 15.3259L99.7428 19.459ZM103.308 15.8581C103.462 15.7635 103.586 15.6748 103.681 15.592C103.787 15.4974 103.87 15.391 103.929 15.2727C103.988 15.1426 104.03 14.9889 104.053 14.8115C104.089 14.6223 104.106 14.3917 104.106 14.1197C104.106 13.8241 104.071 13.4989 104 13.1441C103.941 12.7775 103.834 12.4346 103.681 12.1153C103.527 11.796 103.332 11.5299 103.095 11.3171C102.859 11.1042 102.575 10.9978 102.244 10.9978C101.818 10.9978 101.452 11.1279 101.144 11.388C100.849 11.6364 100.6 11.9616 100.399 12.3636C100.21 12.7657 100.056 13.2269 99.938 13.7472C99.8315 14.2557 99.7487 14.7701 99.6896 15.2905C99.6305 15.8108 99.595 16.3134 99.5832 16.7982C99.5714 17.2712 99.5655 17.6733 99.5655 18.0044L103.308 15.8581Z" fill="#078B73"/>
</svg>
