<svg width="962" height="953" viewBox="0 0 962 953" fill="none" xmlns="http://www.w3.org/2000/svg">
<path d="M841.023 65.3755C908.894 122.562 946.297 213.912 957.939 299.321C969.333 384.73 955.214 464.444 934.655 536.485C914.095 608.525 887.096 673.138 853.16 755.824C819.225 838.509 778.106 939.267 714.942 951.645C651.777 964.023 566.567 888.021 455.596 869.702C344.377 851.135 207.397 890.25 121.692 851.135C35.9864 812.268 1.80332 695.666 0.0693905 583.274C-1.66453 471.128 29.0507 363.439 97.4168 297.588C165.783 231.737 271.552 207.476 357.506 158.459C443.706 109.441 509.596 35.4206 592.081 10.1694C674.318 -15.0818 773.152 7.94132 841.023 65.3755Z" fill="white"/>
<path d="M820.817 647.384C820.815 644.096 819.507 640.944 817.182 638.621C814.856 636.297 811.703 634.992 808.416 634.992C805.129 634.992 801.976 636.297 799.65 638.621C797.325 640.944 796.017 644.096 796.014 647.384" fill="#F2F2F2"/>
<path d="M808.416 647.384C808.505 647.384 808.59 647.348 808.653 647.286C808.716 647.223 808.751 647.137 808.751 647.049V640.513C808.751 640.424 808.716 640.339 808.653 640.276C808.59 640.213 808.505 640.178 808.416 640.178C808.327 640.178 808.242 640.213 808.179 640.276C808.116 640.339 808.081 640.424 808.081 640.513V647.049C808.081 647.137 808.116 647.223 808.179 647.286C808.242 647.348 808.327 647.384 808.416 647.384V647.384Z" fill="#CCCCCC"/>
<path d="M808.416 645.138C808.496 645.138 808.574 645.109 808.634 645.057L812.656 641.605C812.69 641.576 812.718 641.541 812.738 641.502C812.758 641.463 812.771 641.42 812.774 641.376C812.778 641.332 812.773 641.287 812.759 641.245C812.745 641.203 812.723 641.164 812.695 641.13C812.666 641.097 812.631 641.069 812.591 641.049C812.551 641.029 812.508 641.018 812.464 641.014C812.42 641.011 812.376 641.017 812.334 641.031C812.292 641.045 812.253 641.067 812.22 641.096L808.198 644.548C808.146 644.593 808.109 644.652 808.091 644.719C808.074 644.785 808.078 644.855 808.102 644.919C808.125 644.983 808.168 645.039 808.224 645.078C808.281 645.117 808.348 645.138 808.416 645.138L808.416 645.138Z" fill="#CCCCCC"/>
<path d="M782.607 647.384C782.605 644.096 781.297 640.944 778.972 638.621C776.646 636.297 773.493 634.992 770.206 634.992C766.919 634.992 763.766 636.297 761.44 638.621C759.115 640.944 757.807 644.096 757.805 647.384" fill="#F2F2F2"/>
<path d="M770.206 647.384C770.295 647.384 770.38 647.348 770.443 647.286C770.506 647.223 770.541 647.138 770.541 647.049V640.513C770.541 640.424 770.506 640.339 770.443 640.276C770.38 640.213 770.295 640.178 770.206 640.178C770.117 640.178 770.032 640.213 769.969 640.276C769.906 640.339 769.871 640.424 769.871 640.513V647.049C769.871 647.137 769.906 647.223 769.969 647.286C770.032 647.348 770.117 647.384 770.206 647.384V647.384Z" fill="#CCCCCC"/>
<path d="M770.206 645.138C770.286 645.138 770.364 645.109 770.424 645.057L774.446 641.605C774.48 641.576 774.508 641.541 774.528 641.502C774.549 641.463 774.561 641.42 774.565 641.376C774.568 641.331 774.563 641.287 774.549 641.245C774.536 641.203 774.514 641.164 774.485 641.13C774.456 641.097 774.421 641.069 774.381 641.049C774.342 641.029 774.298 641.017 774.254 641.014C774.21 641.011 774.166 641.017 774.124 641.031C774.082 641.045 774.043 641.067 774.01 641.096L769.988 644.548C769.936 644.593 769.899 644.652 769.881 644.719C769.864 644.785 769.868 644.855 769.892 644.919C769.915 644.983 769.958 645.039 770.015 645.078C770.071 645.117 770.138 645.138 770.206 645.138L770.206 645.138Z" fill="#CCCCCC"/>
<path d="M271.561 310.335C258.394 310.335 247.72 299.661 247.72 286.494C247.72 273.326 258.394 262.652 271.561 262.652C284.728 262.652 295.403 273.326 295.403 286.494C295.403 299.661 284.728 310.335 271.561 310.335Z" fill="#F2F2F2"/>
<path d="M763.399 673.996C751.428 673.996 741.725 671.731 741.725 668.938C741.725 666.145 751.428 663.881 763.399 663.881C775.369 663.881 785.073 666.145 785.073 668.938C785.073 671.731 775.369 673.996 763.399 673.996Z" fill="#F2F2F2"/>
<path d="M773.984 372.556C767.169 351.252 750.527 334.731 730.79 324.904C707.373 313.245 680.465 311.925 655.039 316.462C627.591 321.361 601.938 332.654 577.107 344.977C552.752 357.064 528.789 369.828 503.459 379.817C452.891 399.731 399.294 410.844 344.985 412.677C296.103 414.309 243.838 408.948 201.983 381.445C163.632 356.245 139.229 314.673 126.519 271.338C124.892 265.79 123.445 260.195 122.18 254.551C121.81 252.921 124.315 252.225 124.685 253.86C134.938 299.112 156.8 343.837 194.155 372.683C234.557 403.882 287.582 411.095 337.203 410.269C392.106 409.31 446.426 398.817 497.744 379.258C523.724 369.357 548.241 356.5 573.071 344.088C597.355 331.948 622.321 320.585 649.025 314.986C673.409 309.874 699.516 309.562 723.025 318.659C742.384 326.151 760.035 339.503 770.365 357.768C772.883 362.245 774.936 366.968 776.49 371.864C777.001 373.463 774.493 374.147 773.984 372.556Z" fill="#F2F2F2"/>
<path d="M465.028 627.303C464.836 627.303 464.652 627.227 464.517 627.091C464.381 626.956 464.305 626.772 464.305 626.58C464.305 626.389 464.381 626.205 464.517 626.069C464.652 625.934 464.836 625.858 465.028 625.858H471.891V622.968H465.028C464.836 622.968 464.652 622.892 464.517 622.756C464.381 622.621 464.305 622.437 464.305 622.245C464.305 622.054 464.381 621.87 464.517 621.734C464.652 621.599 464.836 621.523 465.028 621.523H523.548C523.739 621.523 523.923 621.599 524.058 621.734C524.194 621.87 524.27 622.054 524.27 622.245C524.27 622.437 524.194 622.621 524.058 622.756C523.923 622.892 523.739 622.968 523.548 622.968H516.684V625.858H523.548C523.739 625.858 523.923 625.934 524.058 626.069C524.194 626.205 524.27 626.389 524.27 626.58C524.27 626.772 524.194 626.956 524.058 627.091C523.923 627.227 523.739 627.303 523.548 627.303H516.684V630.192H523.548C523.739 630.192 523.923 630.269 524.058 630.404C524.194 630.54 524.27 630.723 524.27 630.915C524.27 631.107 524.194 631.29 524.058 631.426C523.923 631.561 523.739 631.637 523.548 631.637H516.684V634.527H522.825C523.208 634.527 523.576 634.68 523.847 634.95C524.118 635.221 524.27 635.589 524.27 635.972C524.27 636.355 524.118 636.723 523.847 636.994C523.576 637.265 523.208 637.417 522.825 637.417H516.979C517.022 637.533 517.044 637.655 517.045 637.778V647.893C517.045 648.18 516.931 648.456 516.728 648.659C516.525 648.862 516.249 648.977 515.962 648.977C515.674 648.977 515.399 648.862 515.195 648.659C514.992 648.456 514.878 648.18 514.878 647.893V637.778C514.879 637.655 514.902 637.533 514.944 637.417H473.631C473.673 637.533 473.696 637.655 473.697 637.778V647.893C473.697 648.18 473.583 648.456 473.38 648.659C473.176 648.862 472.901 648.977 472.613 648.977C472.326 648.977 472.05 648.862 471.847 648.659C471.644 648.456 471.53 648.18 471.53 647.893V637.778C471.531 637.655 471.553 637.533 471.596 637.417H465.75C465.367 637.417 464.999 637.265 464.728 636.994C464.457 636.723 464.305 636.355 464.305 635.972C464.305 635.589 464.457 635.221 464.728 634.95C464.999 634.68 465.367 634.527 465.75 634.527H471.891V631.637H465.028C464.836 631.637 464.652 631.561 464.517 631.426C464.381 631.29 464.305 631.107 464.305 630.915C464.305 630.723 464.381 630.54 464.517 630.404C464.652 630.269 464.836 630.192 465.028 630.192H471.891V627.303H465.028ZM515.239 622.968H473.336V625.858H515.239V622.968ZM473.336 634.527H515.239V631.637H473.336V634.527ZM473.336 630.192H515.239V627.303H473.336V630.192Z" fill="#3F3D56"/>
<path d="M685.372 596.979C685.372 584.22 695.723 553.942 708.491 553.942C721.259 553.942 731.61 584.22 731.61 596.979C731.61 603.111 729.174 608.991 724.839 613.327C720.503 617.663 714.623 620.098 708.491 620.098C702.36 620.098 696.479 617.663 692.143 613.327C687.808 608.991 685.372 603.111 685.372 596.979H685.372Z" fill="#E6E6E6"/>
<path d="M691.152 596.979C691.152 584.22 701.503 553.942 714.271 553.942C727.039 553.942 737.39 584.22 737.39 596.979C737.39 603.111 734.954 608.991 730.618 613.327C726.283 617.663 720.402 620.098 714.271 620.098C708.139 620.098 702.259 617.663 697.923 613.327C693.588 608.991 691.152 603.111 691.152 596.979H691.152Z" fill="#F2F2F2"/>
<path d="M713.548 648.672C713.74 648.672 713.924 648.596 714.059 648.461C714.195 648.325 714.271 648.141 714.271 647.95V583.549C714.271 583.357 714.195 583.173 714.059 583.038C713.924 582.902 713.74 582.826 713.548 582.826C713.357 582.826 713.173 582.902 713.037 583.038C712.902 583.173 712.826 583.357 712.826 583.549V647.95C712.826 648.142 712.902 648.325 713.037 648.461C713.173 648.596 713.357 648.672 713.548 648.672Z" fill="#CCCCCC"/>
<path d="M713.548 594.106C713.691 594.106 713.831 594.064 713.95 593.985C714.069 593.905 714.161 593.792 714.216 593.66C714.27 593.528 714.285 593.383 714.257 593.243C714.229 593.103 714.16 592.974 714.059 592.873L704.611 583.425C704.476 583.289 704.292 583.213 704.1 583.213C703.909 583.213 703.725 583.289 703.589 583.425C703.454 583.56 703.378 583.744 703.378 583.935C703.378 584.127 703.454 584.311 703.589 584.446L713.038 593.895C713.105 593.962 713.184 594.015 713.272 594.052C713.36 594.088 713.454 594.106 713.548 594.106V594.106Z" fill="#CCCCCC"/>
<path d="M447.68 648.672C447.871 648.672 448.055 648.596 448.19 648.461C448.326 648.325 448.402 648.141 448.402 647.95V583.549C448.402 583.357 448.326 583.173 448.19 583.038C448.055 582.902 447.871 582.826 447.68 582.826C447.488 582.826 447.304 582.902 447.169 583.038C447.033 583.173 446.957 583.357 446.957 583.549V647.95C446.957 648.142 447.033 648.325 447.169 648.461C447.304 648.596 447.488 648.672 447.68 648.672Z" fill="#3F3D56"/>
<path d="M370.376 596.979C370.376 584.22 380.726 553.942 393.495 553.942C406.263 553.942 416.614 584.22 416.614 596.979C416.614 603.111 414.178 608.991 409.842 613.327C405.506 617.663 399.626 620.098 393.494 620.098C387.363 620.098 381.483 617.663 377.147 613.327C372.811 608.991 370.375 603.111 370.375 596.979H370.376Z" fill="#E6E6E6"/>
<path d="M376.155 596.979C376.155 584.22 386.506 553.942 399.274 553.942C412.042 553.942 422.393 584.22 422.393 596.979C422.393 603.111 419.957 608.991 415.622 613.327C411.286 617.663 405.406 620.098 399.274 620.098C393.142 620.098 387.262 617.663 382.926 613.327C378.591 608.991 376.155 603.111 376.155 596.979H376.155Z" fill="#F2F2F2"/>
<path d="M398.552 648.672C398.743 648.672 398.927 648.596 399.063 648.461C399.198 648.325 399.274 648.141 399.274 647.95V583.549C399.274 583.357 399.198 583.173 399.063 583.038C398.927 582.902 398.743 582.826 398.552 582.826C398.36 582.826 398.176 582.902 398.041 583.038C397.905 583.173 397.829 583.357 397.829 583.549V647.95C397.829 648.142 397.905 648.325 398.041 648.461C398.176 648.596 398.36 648.672 398.552 648.672Z" fill="#CCCCCC"/>
<path d="M398.552 594.106C398.694 594.106 398.834 594.064 398.953 593.985C399.072 593.905 399.164 593.792 399.219 593.66C399.274 593.528 399.288 593.383 399.26 593.243C399.232 593.103 399.163 592.974 399.062 592.873L389.614 583.425C389.479 583.289 389.295 583.213 389.103 583.213C388.912 583.213 388.728 583.289 388.593 583.425C388.457 583.56 388.381 583.744 388.381 583.935C388.381 584.127 388.457 584.311 388.593 584.446L398.041 593.895C398.108 593.962 398.187 594.015 398.275 594.052C398.363 594.088 398.457 594.106 398.552 594.106Z" fill="#CCCCCC"/>
<path d="M636.546 293.233H648.105C648.967 293.233 649.793 292.89 650.403 292.28C651.012 291.671 651.355 290.844 651.356 289.982V263.251C651.355 262.389 651.012 261.563 650.403 260.953C649.793 260.344 648.967 260.001 648.105 260H636.546C635.684 260.001 634.857 260.344 634.248 260.953C633.638 261.563 633.295 262.389 633.294 263.251V289.982C633.295 290.844 633.638 291.671 634.248 292.28C634.857 292.89 635.684 293.233 636.546 293.233V293.233Z" fill="#E6E6E6"/>
<path d="M647.383 293.233H658.942C659.804 293.233 660.63 292.89 661.24 292.28C661.849 291.671 662.192 290.844 662.193 289.982V263.251C662.192 262.389 661.849 261.563 661.24 260.953C660.63 260.344 659.804 260.001 658.942 260H647.383C646.521 260.001 645.694 260.344 645.085 260.953C644.475 261.563 644.132 262.389 644.131 263.251V289.982C644.132 290.844 644.475 291.671 645.085 292.28C645.694 292.89 646.521 293.233 647.383 293.233V293.233Z" fill="#F2F2F2"/>
<path d="M591.69 648.101H651.021C652.652 648.099 654.215 647.177 655.368 645.537C656.521 643.898 657.17 641.675 657.172 639.356V298.803C657.17 296.485 656.521 294.262 655.368 292.622C654.215 290.983 652.652 290.061 651.021 290.058H591.69C590.059 290.061 588.496 290.983 587.343 292.622C586.19 294.262 585.541 296.485 585.54 298.803V639.356C585.541 641.675 586.19 643.898 587.343 645.537C588.496 647.177 590.059 648.099 591.69 648.101V648.101Z" fill="#E6E6E6"/>
<path d="M627.064 648.101H686.395C688.026 648.099 689.589 647.177 690.742 645.537C691.895 643.898 692.544 641.675 692.546 639.356V298.803C692.544 296.485 691.895 294.262 690.742 292.622C689.589 290.983 688.026 290.061 686.395 290.058H627.064C625.433 290.061 623.87 290.983 622.717 292.622C621.564 294.262 620.915 296.485 620.914 298.803V639.356C620.915 641.675 621.564 643.898 622.717 645.537C623.87 647.177 625.433 648.099 627.064 648.101V648.101Z" fill="#F2F2F2"/>
<path d="M662.975 451.115H676.702C677.181 451.114 677.64 450.924 677.979 450.585C678.318 450.246 678.508 449.787 678.509 449.308V428.357C678.508 427.878 678.318 427.419 677.979 427.08C677.64 426.742 677.181 426.551 676.702 426.551H662.975C662.497 426.551 662.038 426.742 661.699 427.08C661.36 427.419 661.17 427.878 661.169 428.357V449.308C661.17 449.787 661.36 450.246 661.699 450.585C662.038 450.924 662.497 451.114 662.975 451.115V451.115Z" fill="white"/>
<path d="M662.716 412.752H676.443C676.922 412.752 677.381 412.561 677.72 412.223C678.058 411.884 678.249 411.425 678.249 410.946V389.995C678.249 389.516 678.058 389.057 677.72 388.718C677.381 388.379 676.922 388.189 676.443 388.188H662.716C662.237 388.189 661.778 388.379 661.44 388.718C661.101 389.057 660.911 389.516 660.91 389.995V410.946C660.911 411.425 661.101 411.884 661.44 412.223C661.778 412.561 662.237 412.752 662.716 412.752V412.752Z" fill="white"/>
<path d="M662.716 373.854H676.443C676.922 373.853 677.381 373.663 677.72 373.324C678.058 372.986 678.249 372.526 678.249 372.048V351.096C678.249 350.617 678.058 350.158 677.72 349.819C677.381 349.481 676.922 349.29 676.443 349.29H662.716C662.237 349.29 661.778 349.481 661.44 349.819C661.101 350.158 660.911 350.617 660.91 351.096V372.048C660.911 372.526 661.101 372.986 661.44 373.324C661.778 373.663 662.237 373.853 662.716 373.854V373.854Z" fill="white"/>
<path d="M662.716 334.955H676.443C676.922 334.955 677.381 334.764 677.72 334.426C678.058 334.087 678.249 333.628 678.249 333.149V312.197C678.249 311.719 678.058 311.26 677.72 310.921C677.381 310.582 676.922 310.392 676.443 310.391H662.716C662.237 310.392 661.778 310.582 661.44 310.921C661.101 311.26 660.911 311.719 660.91 312.197V333.149C660.911 333.628 661.101 334.087 661.44 334.426C661.778 334.764 662.237 334.955 662.716 334.955V334.955Z" fill="white"/>
<path d="M636.244 451.115H649.971C650.45 451.114 650.909 450.924 651.248 450.585C651.586 450.246 651.777 449.787 651.777 449.308V428.357C651.777 427.878 651.586 427.419 651.248 427.08C650.909 426.742 650.45 426.551 649.971 426.551H636.244C635.765 426.551 635.306 426.742 634.968 427.08C634.629 427.419 634.439 427.878 634.438 428.357V449.308C634.439 449.787 634.629 450.246 634.968 450.585C635.306 450.924 635.765 451.114 636.244 451.115V451.115Z" fill="white"/>
<path d="M635.985 412.752H649.712C650.191 412.752 650.65 412.561 650.988 412.223C651.327 411.884 651.518 411.425 651.518 410.946V389.995C651.518 389.516 651.327 389.057 650.988 388.718C650.65 388.379 650.191 388.189 649.712 388.188H635.985C635.506 388.189 635.047 388.379 634.708 388.718C634.37 389.057 634.179 389.516 634.179 389.995V410.946C634.179 411.425 634.37 411.884 634.708 412.223C635.047 412.561 635.506 412.752 635.985 412.752V412.752Z" fill="white"/>
<path d="M635.985 373.854H649.712C650.191 373.853 650.65 373.663 650.988 373.324C651.327 372.986 651.518 372.526 651.518 372.048V351.096C651.518 350.617 651.327 350.158 650.988 349.819C650.65 349.481 650.191 349.29 649.712 349.29H635.985C635.506 349.29 635.047 349.481 634.708 349.819C634.37 350.158 634.179 350.617 634.179 351.096V372.048C634.179 372.526 634.37 372.986 634.708 373.324C635.047 373.663 635.506 373.853 635.985 373.854V373.854Z" fill="white"/>
<path d="M635.985 334.955H649.712C650.191 334.955 650.65 334.764 650.988 334.426C651.327 334.087 651.518 333.628 651.518 333.149V312.197C651.518 311.719 651.327 311.26 650.988 310.921C650.65 310.582 650.191 310.392 649.712 310.391H635.985C635.506 310.392 635.047 310.582 634.708 310.921C634.37 311.26 634.179 311.719 634.179 312.197V333.149C634.179 333.628 634.37 334.087 634.708 334.426C635.047 334.764 635.506 334.955 635.985 334.955V334.955Z" fill="white"/>
<path d="M662.975 489.405H676.702C677.181 489.405 677.64 489.214 677.979 488.876C678.318 488.537 678.508 488.078 678.509 487.599V466.648C678.508 466.169 678.318 465.71 677.979 465.371C677.64 465.032 677.181 464.842 676.702 464.841H662.975C662.497 464.842 662.038 465.032 661.699 465.371C661.36 465.71 661.17 466.169 661.169 466.648V487.599C661.17 488.078 661.36 488.537 661.699 488.876C662.038 489.214 662.497 489.405 662.975 489.405V489.405Z" fill="white"/>
<path d="M636.244 489.405H649.971C650.45 489.405 650.909 489.214 651.248 488.876C651.586 488.537 651.777 488.078 651.777 487.599V466.648C651.777 466.169 651.586 465.71 651.248 465.371C650.909 465.032 650.45 464.842 649.971 464.841H636.244C635.765 464.842 635.306 465.032 634.968 465.371C634.629 465.71 634.439 466.169 634.438 466.648V487.599C634.439 488.078 634.629 488.537 634.968 488.876C635.306 489.214 635.765 489.405 636.244 489.405V489.405Z" fill="white"/>
<path d="M662.975 527.696H676.702C677.181 527.695 677.64 527.505 677.979 527.166C678.318 526.828 678.508 526.369 678.509 525.89V504.938C678.508 504.459 678.318 504 677.979 503.662C677.64 503.323 677.181 503.133 676.702 503.132H662.975C662.497 503.133 662.038 503.323 661.699 503.662C661.36 504 661.17 504.459 661.169 504.938V525.89C661.17 526.369 661.36 526.828 661.699 527.166C662.038 527.505 662.497 527.695 662.975 527.696V527.696Z" fill="white"/>
<path d="M636.244 527.696H649.971C650.45 527.695 650.909 527.505 651.248 527.166C651.586 526.828 651.777 526.369 651.777 525.89V504.938C651.777 504.459 651.586 504 651.248 503.662C650.909 503.323 650.45 503.133 649.971 503.132H636.244C635.765 503.133 635.306 503.323 634.968 503.662C634.629 504 634.439 504.459 634.438 504.938V525.89C634.439 526.369 634.629 526.828 634.968 527.166C635.306 527.505 635.765 527.695 636.244 527.696V527.696Z" fill="white"/>
<path d="M662.975 565.987H676.702C677.181 565.986 677.64 565.796 677.979 565.457C678.318 565.119 678.508 564.659 678.509 564.181V543.229C678.508 542.75 678.318 542.291 677.979 541.952C677.64 541.614 677.181 541.423 676.702 541.423H662.975C662.497 541.423 662.038 541.614 661.699 541.952C661.36 542.291 661.17 542.75 661.169 543.229V564.181C661.17 564.659 661.36 565.119 661.699 565.457C662.038 565.796 662.497 565.986 662.975 565.987V565.987Z" fill="white"/>
<path d="M636.244 565.987H649.971C650.45 565.986 650.909 565.796 651.248 565.457C651.586 565.119 651.777 564.659 651.777 564.181V543.229C651.777 542.75 651.586 542.291 651.248 541.952C650.909 541.614 650.45 541.423 649.971 541.423H636.244C635.765 541.423 635.306 541.614 634.968 541.952C634.629 542.291 634.439 542.75 634.438 543.229V564.181C634.439 564.659 634.629 565.119 634.968 565.457C635.306 565.796 635.765 565.986 636.244 565.987V565.987Z" fill="white"/>
<path d="M662.975 604.278H676.702C677.181 604.277 677.64 604.086 677.979 603.748C678.318 603.409 678.508 602.95 678.509 602.471V581.52C678.508 581.041 678.318 580.582 677.979 580.243C677.64 579.905 677.181 579.714 676.702 579.714H662.975C662.497 579.714 662.038 579.905 661.699 580.243C661.36 580.582 661.17 581.041 661.169 581.52V602.471C661.17 602.95 661.36 603.409 661.699 603.748C662.038 604.086 662.497 604.277 662.975 604.278V604.278Z" fill="white"/>
<path d="M636.244 604.278H649.971C650.45 604.277 650.909 604.086 651.248 603.748C651.586 603.409 651.777 602.95 651.777 602.471V581.52C651.777 581.041 651.586 580.582 651.248 580.243C650.909 579.905 650.45 579.714 649.971 579.714H636.244C635.765 579.714 635.306 579.905 634.968 580.243C634.629 580.582 634.439 581.041 634.438 581.52V602.471C634.439 602.95 634.629 603.409 634.968 603.748C635.306 604.086 635.765 604.277 636.244 604.278V604.278Z" fill="white"/>
<path d="M338.587 525.529H350.146C351.008 525.528 351.835 525.185 352.444 524.575C353.054 523.966 353.396 523.139 353.397 522.278V507.106C353.396 506.244 353.054 505.417 352.444 504.808C351.835 504.198 351.008 503.856 350.146 503.855H338.587C337.725 503.856 336.899 504.198 336.289 504.808C335.68 505.417 335.337 506.244 335.336 507.106V522.278C335.337 523.139 335.68 523.966 336.289 524.575C336.899 525.185 337.725 525.528 338.587 525.529Z" fill="#E6E6E6"/>
<path d="M241.054 649.071H300.296C301.924 649.069 303.485 648.421 304.636 647.27C305.788 646.119 306.435 644.558 306.437 642.93V528.057C306.435 526.429 305.788 524.868 304.636 523.717C303.485 522.566 301.924 521.918 300.296 521.916H241.054C239.425 521.918 237.865 522.566 236.713 523.717C235.562 524.868 234.914 526.429 234.913 528.057V642.93C234.914 644.558 235.562 646.119 236.713 647.27C237.865 648.421 239.425 649.069 241.054 649.071V649.071Z" fill="#E6E6E6"/>
<path d="M276.454 649.071H379.045C380.673 649.069 382.234 648.421 383.385 647.27C384.537 646.119 385.184 644.558 385.186 642.93V528.057C385.184 526.429 384.537 524.868 383.385 523.717C382.234 522.566 380.673 521.918 379.045 521.916H276.454C274.826 521.918 273.265 522.566 272.114 523.717C270.963 524.868 270.315 526.429 270.313 528.057V642.93C270.315 644.558 270.963 646.119 272.114 647.27C273.265 648.421 274.826 649.069 276.454 649.071V649.071Z" fill="#F2F2F2"/>
<path d="M349.424 525.529H360.983C361.845 525.528 362.672 525.185 363.281 524.575C363.891 523.966 364.233 523.139 364.234 522.278V507.106C364.233 506.244 363.891 505.417 363.281 504.808C362.672 504.198 361.845 503.856 360.983 503.855H349.424C348.562 503.856 347.735 504.198 347.126 504.808C346.516 505.417 346.174 506.244 346.173 507.106V522.278C346.174 523.139 346.516 523.966 347.126 524.575C347.735 525.185 348.562 525.528 349.424 525.529V525.529Z" fill="#F2F2F2"/>
<path d="M334.252 578.63H347.979C348.458 578.629 348.917 578.439 349.256 578.1C349.594 577.762 349.785 577.303 349.785 576.824V555.872C349.785 555.393 349.594 554.934 349.256 554.596C348.917 554.257 348.458 554.067 347.979 554.066H334.252C333.773 554.067 333.314 554.257 332.976 554.596C332.637 554.934 332.446 555.393 332.446 555.872V576.824C332.446 577.303 332.637 577.762 332.976 578.1C333.314 578.439 333.773 578.629 334.252 578.63V578.63Z" fill="white"/>
<path d="M307.521 578.63H321.248C321.726 578.629 322.185 578.439 322.524 578.1C322.863 577.762 323.053 577.303 323.054 576.824V555.872C323.053 555.393 322.863 554.934 322.524 554.596C322.185 554.257 321.726 554.067 321.248 554.066H307.521C307.042 554.067 306.583 554.257 306.244 554.596C305.905 554.934 305.715 555.393 305.714 555.872V576.824C305.715 577.303 305.905 577.762 306.244 578.1C306.583 578.439 307.042 578.629 307.521 578.63V578.63Z" fill="white"/>
<path d="M334.252 616.921H347.979C348.458 616.92 348.917 616.73 349.256 616.391C349.594 616.052 349.785 615.593 349.785 615.115V594.163C349.785 593.684 349.594 593.225 349.256 592.886C348.917 592.548 348.458 592.357 347.979 592.357H334.252C333.773 592.357 333.314 592.548 332.976 592.886C332.637 593.225 332.446 593.684 332.446 594.163V615.115C332.446 615.593 332.637 616.052 332.976 616.391C333.314 616.73 333.773 616.92 334.252 616.921V616.921Z" fill="white"/>
<path d="M307.521 616.921H321.248C321.726 616.92 322.185 616.73 322.524 616.391C322.863 616.052 323.053 615.593 323.054 615.115V594.163C323.053 593.684 322.863 593.225 322.524 592.886C322.185 592.548 321.726 592.357 321.248 592.357H307.521C307.042 592.357 306.583 592.548 306.244 592.886C305.905 593.225 305.715 593.684 305.714 594.163V615.115C305.715 615.593 305.905 616.052 306.244 616.391C306.583 616.73 307.042 616.92 307.521 616.921Z" fill="white"/>
<path d="M85.7226 649.432H841.278C841.469 649.432 841.653 649.356 841.788 649.22C841.924 649.085 842 648.901 842 648.709C842 648.518 841.924 648.334 841.788 648.198C841.653 648.063 841.469 647.987 841.278 647.987H85.7226C85.531 647.987 85.3472 648.063 85.2117 648.198C85.0762 648.334 85.0001 648.518 85.0001 648.709C85.0001 648.901 85.0762 649.085 85.2117 649.22C85.3472 649.356 85.531 649.432 85.7226 649.432Z" fill="#E6E6E6"/>
<path d="M579.892 674.718H647.081C647.273 674.718 647.457 674.642 647.592 674.506C647.728 674.371 647.804 674.187 647.804 673.996C647.804 673.804 647.728 673.62 647.592 673.485C647.457 673.349 647.273 673.273 647.081 673.273H579.892C579.7 673.273 579.516 673.349 579.381 673.485C579.245 673.62 579.169 673.804 579.169 673.996C579.169 674.187 579.245 674.371 579.381 674.506C579.516 674.642 579.7 674.718 579.892 674.718Z" fill="#E6E6E6"/>
<path d="M413.001 674.718H480.191C480.382 674.718 480.566 674.642 480.701 674.506C480.837 674.371 480.913 674.187 480.913 673.996C480.913 673.804 480.837 673.62 480.701 673.485C480.566 673.349 480.382 673.273 480.191 673.273H413.001C412.809 673.273 412.626 673.349 412.49 673.485C412.355 673.62 412.278 673.804 412.278 673.996C412.278 674.187 412.355 674.371 412.49 674.506C412.626 674.642 412.809 674.718 413.001 674.718Z" fill="#E6E6E6"/>
<path d="M246.111 674.718H313.3C313.492 674.718 313.676 674.642 313.811 674.506C313.947 674.371 314.023 674.187 314.023 673.996C314.023 673.804 313.947 673.62 313.811 673.485C313.676 673.349 313.492 673.273 313.3 673.273H246.111C245.919 673.273 245.735 673.349 245.6 673.485C245.464 673.62 245.388 673.804 245.388 673.996C245.388 674.187 245.464 674.371 245.6 674.506C245.735 674.642 245.919 674.718 246.111 674.718Z" fill="#E6E6E6"/>
<path d="M541.601 596.979C541.601 584.22 551.951 553.942 564.72 553.942C577.488 553.942 587.839 584.22 587.839 596.979C587.839 603.111 585.403 608.991 581.067 613.327C576.732 617.663 570.851 620.098 564.72 620.098C558.588 620.098 552.708 617.663 548.372 613.327C544.036 608.991 541.601 603.111 541.601 596.979H541.601Z" fill="#E6E6E6"/>
<path d="M547.38 596.979C547.38 584.22 557.731 553.942 570.499 553.942C583.268 553.942 593.618 584.22 593.618 596.979C593.618 603.111 591.183 608.991 586.847 613.327C582.511 617.663 576.631 620.098 570.499 620.098C564.368 620.098 558.487 617.663 554.152 613.327C549.816 608.991 547.38 603.111 547.38 596.979H547.38Z" fill="#F2F2F2"/>
<path d="M569.777 648.672C569.969 648.672 570.152 648.596 570.288 648.461C570.423 648.325 570.5 648.141 570.5 647.95V583.549C570.5 583.357 570.423 583.173 570.288 583.038C570.152 582.902 569.969 582.826 569.777 582.826C569.585 582.826 569.402 582.902 569.266 583.038C569.131 583.173 569.055 583.357 569.055 583.549V647.95C569.055 648.142 569.131 648.325 569.266 648.461C569.402 648.596 569.585 648.672 569.777 648.672Z" fill="#CCCCCC"/>
<path d="M569.777 594.106C569.92 594.106 570.059 594.064 570.178 593.985C570.297 593.905 570.39 593.792 570.444 593.66C570.499 593.528 570.513 593.383 570.485 593.243C570.458 593.103 570.389 592.974 570.288 592.873L560.84 583.425C560.704 583.289 560.52 583.213 560.329 583.213C560.137 583.213 559.953 583.289 559.818 583.425C559.682 583.56 559.606 583.744 559.606 583.935C559.606 584.127 559.682 584.311 559.818 584.446L569.266 593.895C569.333 593.962 569.413 594.015 569.5 594.052C569.588 594.088 569.682 594.106 569.777 594.106Z" fill="#CCCCCC"/>
<path d="M172.419 596.979C172.419 584.22 182.769 553.942 195.538 553.942C208.306 553.942 218.657 584.22 218.657 596.979C218.657 603.111 216.221 608.991 211.885 613.327C207.55 617.663 201.669 620.098 195.538 620.098C189.406 620.098 183.526 617.663 179.19 613.327C174.854 608.991 172.419 603.111 172.419 596.979H172.419Z" fill="#E6E6E6"/>
<path d="M178.199 596.979C178.199 584.22 188.549 553.942 201.318 553.942C214.086 553.942 224.437 584.22 224.437 596.979C224.437 603.111 222.001 608.991 217.665 613.327C213.329 617.663 207.449 620.098 201.317 620.098C195.186 620.098 189.306 617.663 184.97 613.327C180.634 608.991 178.198 603.111 178.198 596.979H178.199Z" fill="#F2F2F2"/>
<path d="M200.595 648.672C200.787 648.672 200.971 648.596 201.106 648.461C201.241 648.325 201.318 648.141 201.318 647.95V583.549C201.318 583.357 201.242 583.173 201.106 583.038C200.971 582.902 200.787 582.826 200.595 582.826C200.404 582.826 200.22 582.902 200.084 583.038C199.949 583.173 199.873 583.357 199.873 583.549V647.95C199.873 648.142 199.949 648.325 200.084 648.461C200.22 648.596 200.404 648.672 200.595 648.672Z" fill="#CCCCCC"/>
<path d="M200.595 594.106C200.738 594.106 200.878 594.064 200.996 593.985C201.115 593.905 201.208 593.792 201.262 593.66C201.317 593.528 201.331 593.383 201.304 593.243C201.276 593.103 201.207 592.974 201.106 592.873L191.658 583.425C191.522 583.289 191.338 583.213 191.147 583.213C190.955 583.213 190.771 583.289 190.636 583.425C190.501 583.56 190.424 583.744 190.424 583.935C190.424 584.127 190.501 584.311 190.636 584.446L200.084 593.895C200.151 593.962 200.231 594.015 200.319 594.052C200.406 594.088 200.5 594.106 200.595 594.106V594.106Z" fill="#CCCCCC"/>
<path d="M439.733 605H455.627C456.106 605 456.565 604.809 456.904 604.47C457.242 604.132 457.433 603.673 457.433 603.194V587.3C457.433 586.821 457.242 586.362 456.904 586.023C456.565 585.684 456.106 585.494 455.627 585.493H439.733C439.254 585.494 438.795 585.684 438.456 586.023C438.117 586.362 437.927 586.821 437.926 587.3V603.194C437.927 603.673 438.117 604.132 438.456 604.47C438.795 604.809 439.254 605 439.733 605Z" fill="#3F3D56"/>
<path d="M285.438 612.74C285.264 612.786 285.103 612.869 284.965 612.984C284.827 613.098 284.715 613.242 284.639 613.404C284.562 613.567 284.522 613.744 284.522 613.924C284.521 614.103 284.56 614.281 284.635 614.443L281.494 617.473L283.707 617.969L286.35 615.016C286.616 614.871 286.819 614.634 286.921 614.35C287.023 614.065 287.018 613.753 286.905 613.473C286.793 613.192 286.581 612.963 286.311 612.828C286.04 612.693 285.73 612.661 285.438 612.74H285.438Z" fill="#FFB8B8"/>
<path d="M281.02 620.709L284.896 617.074C284.949 617.024 284.992 616.963 285.022 616.896C285.052 616.829 285.068 616.757 285.069 616.684C285.07 616.61 285.057 616.537 285.03 616.469C285.003 616.401 284.962 616.339 284.911 616.287L284.119 615.485C284.025 615.39 283.9 615.333 283.766 615.324C283.633 615.314 283.501 615.354 283.395 615.435L280.147 617.917L278.121 613.003C278.041 612.809 277.922 612.634 277.772 612.488C277.621 612.342 277.442 612.228 277.246 612.154C277.05 612.079 276.841 612.046 276.631 612.056C276.422 612.066 276.217 612.118 276.028 612.211V612.211C275.731 612.354 275.489 612.59 275.338 612.883C275.187 613.176 275.134 613.511 275.189 613.836C275.557 616.071 277.784 619.026 279.079 620.588C279.256 620.801 279.495 620.954 279.762 621.025C280.029 621.097 280.312 621.084 280.572 620.989C280.738 620.926 280.891 620.831 281.02 620.709V620.709Z" fill="#07BF9D"/>
<path d="M283.195 617.183L286.048 613.044C286.084 612.991 286.098 612.925 286.087 612.862C286.075 612.798 286.039 612.741 285.985 612.705L285.871 612.626C285.844 612.607 285.815 612.595 285.783 612.588C285.752 612.581 285.719 612.581 285.688 612.587C285.656 612.592 285.626 612.604 285.599 612.622C285.572 612.639 285.549 612.662 285.531 612.688L282.678 616.826C282.66 616.853 282.647 616.882 282.64 616.914C282.634 616.945 282.633 616.978 282.639 617.009C282.645 617.041 282.657 617.071 282.674 617.098C282.691 617.125 282.714 617.148 282.74 617.166L282.855 617.245C282.908 617.282 282.974 617.296 283.038 617.284C283.102 617.272 283.158 617.236 283.195 617.183V617.183Z" fill="white"/>
<path d="M283.993 617.213L286.36 613.779C286.461 613.632 286.5 613.451 286.468 613.276C286.435 613.101 286.335 612.946 286.189 612.845L285.947 612.678L282.817 617.219L283.058 617.385C283.205 617.486 283.386 617.525 283.561 617.492C283.736 617.46 283.891 617.36 283.993 617.213V617.213Z" fill="#3F3D56"/>
<path d="M283.706 646.856L285.194 646.685L284.996 640.894L283.044 641.12L283.706 646.856Z" fill="#FFB8B8"/>
<path d="M283.493 648.342L288.289 647.788L288.282 647.728C288.254 647.483 288.177 647.246 288.058 647.03C287.938 646.814 287.776 646.624 287.583 646.471C287.39 646.318 287.168 646.204 286.931 646.136C286.693 646.069 286.445 646.048 286.2 646.077H286.2L283.271 646.415L283.493 648.342Z" fill="#2F2E41"/>
<path d="M266.411 645.757L267.841 646.199L270.226 640.892L268.115 640.239L266.411 645.757Z" fill="#FFB8B8"/>
<path d="M265.617 647.031L270.23 648.456L270.248 648.397C270.321 648.161 270.346 647.914 270.323 647.668C270.3 647.422 270.229 647.183 270.114 646.965C269.999 646.747 269.842 646.554 269.652 646.396C269.462 646.239 269.243 646.12 269.007 646.047H269.007L266.19 645.177L265.617 647.031Z" fill="#2F2E41"/>
<path d="M285.367 645.522C285.518 645.475 285.645 645.371 285.721 645.233C285.797 645.094 285.816 644.931 285.774 644.779L284.877 634.458C284.836 633.987 284.688 633.532 284.444 633.127L279.017 624.12L274.161 624.993L274.13 625.006C271.769 626.452 269.674 633.461 267.647 640.24C267.332 641.294 267.006 642.384 266.688 643.426C266.629 643.575 266.63 643.741 266.692 643.888C266.753 644.036 266.87 644.154 267.017 644.217L268.488 644.836C268.627 644.895 268.784 644.9 268.926 644.85C269.069 644.8 269.189 644.699 269.261 644.566L276.82 630.726C276.83 630.708 276.843 630.694 276.86 630.683C276.876 630.672 276.895 630.665 276.914 630.663C276.934 630.66 276.954 630.663 276.972 630.67C276.99 630.677 277.006 630.688 277.019 630.703L281.406 635.668L283.019 645.129L283.025 645.149C283.083 645.285 283.188 645.394 283.321 645.458C283.454 645.522 283.605 645.536 283.747 645.497L285.329 645.527L285.338 645.527L285.367 645.522Z" fill="#2F2E41"/>
<path d="M279.28 625.107L279.311 625.098L279.32 625.067C279.343 624.992 281.562 617.48 279.562 612.691L279.56 612.687C279.502 612.573 278.106 609.892 276.485 609.624L276.442 609.616L275.915 610.602C275.749 610.768 272.897 613.729 274.191 618.82C274.075 619.238 272.5 624.969 273.356 625.825C273.669 626.041 274.048 626.136 274.425 626.093C276.076 625.952 277.705 625.621 279.28 625.107V625.107Z" fill="#07BF9D"/>
<path d="M276.819 608.685C274.728 608.685 273.033 606.99 273.033 604.899C273.033 602.808 274.728 601.113 276.819 601.113C278.91 601.113 280.605 602.808 280.605 604.899C280.605 606.99 278.91 608.685 276.819 608.685Z" fill="#2F2E41"/>
<path d="M278.323 608.667C276.666 608.667 275.324 607.324 275.324 605.667C275.324 604.011 276.666 602.668 278.323 602.668C279.98 602.668 281.323 604.011 281.323 605.667C281.323 607.324 279.98 608.667 278.323 608.667Z" fill="#FFB8B8"/>
<path d="M276.393 608.581C276.667 608.678 277.002 608.763 277.217 608.562C277.307 608.446 277.359 608.306 277.368 608.159C277.377 608.013 277.341 607.867 277.265 607.742C277.11 607.494 276.984 607.23 276.891 606.953C276.863 606.745 276.889 606.534 276.967 606.339C277.045 606.144 277.172 605.973 277.336 605.842C277.661 605.594 278.03 605.409 278.422 605.295L280.522 604.549C281.068 604.42 281.552 604.107 281.893 603.661C282.068 603.29 282.098 602.866 281.977 602.474C281.856 602.082 281.593 601.749 281.239 601.541C280.882 601.361 280.49 601.264 280.09 601.256C279.691 601.248 279.295 601.33 278.932 601.496C278.531 601.683 278.121 601.847 277.702 601.988C276.861 602.21 275.905 602.011 275.166 602.485C274.855 602.721 274.607 603.032 274.446 603.389C274.286 603.746 274.217 604.137 274.247 604.527C274.31 605.312 274.519 606.078 274.864 606.786C275.024 607.222 275.256 607.629 275.549 607.989C275.693 608.165 275.877 608.304 276.086 608.394C276.294 608.484 276.521 608.522 276.748 608.506L276.393 608.581Z" fill="#2F2E41"/>
<path d="M273.644 605.509C272.295 605.509 271.201 604.416 271.201 603.067C271.201 601.718 272.295 600.624 273.644 600.624C274.993 600.624 276.086 601.718 276.086 603.067C276.086 604.416 274.993 605.509 273.644 605.509Z" fill="#2F2E41"/>
<path d="M277.674 606.609C277.674 606.564 277.662 606.521 277.639 606.483C277.616 606.445 277.584 606.414 277.544 606.393C277.505 606.372 277.461 606.362 277.417 606.364C277.373 606.367 277.33 606.381 277.293 606.406C277.256 606.43 277.227 606.465 277.208 606.505C277.19 606.545 277.182 606.59 277.187 606.634C277.191 606.678 277.208 606.72 277.234 606.755C277.261 606.791 277.297 606.818 277.338 606.835V607.372C277.338 607.384 277.34 607.396 277.345 607.407C277.349 607.418 277.356 607.429 277.365 607.437C277.373 607.446 277.383 607.453 277.394 607.457C277.405 607.462 277.418 607.464 277.43 607.464C277.442 607.464 277.454 607.462 277.465 607.457C277.476 607.453 277.486 607.446 277.495 607.437C277.503 607.429 277.51 607.418 277.514 607.407C277.519 607.396 277.521 607.384 277.521 607.372V606.835C277.566 606.816 277.605 606.785 277.632 606.745C277.659 606.705 277.674 606.657 277.674 606.609V606.609Z" fill="white"/>
<path d="M285.289 615.304C285.111 615.286 284.93 615.308 284.761 615.367C284.591 615.427 284.437 615.522 284.309 615.648C284.18 615.774 284.081 615.926 284.018 616.094C283.955 616.262 283.929 616.442 283.943 616.621L279.943 618.365L281.844 619.601L285.351 617.755C285.651 617.712 285.923 617.561 286.118 617.33C286.313 617.099 286.417 616.804 286.409 616.502C286.402 616.2 286.283 615.911 286.077 615.69C285.871 615.469 285.59 615.332 285.289 615.304Z" fill="#FFB8B8"/>
<path d="M278.371 621.234L283.271 619.177C283.338 619.148 283.399 619.107 283.451 619.054C283.502 619.002 283.542 618.94 283.569 618.871C283.596 618.803 283.609 618.73 283.607 618.657C283.606 618.584 283.589 618.511 283.559 618.444L283.097 617.417C283.042 617.296 282.944 617.198 282.822 617.143C282.701 617.088 282.563 617.079 282.435 617.117L278.526 618.312L278.34 613C278.332 612.79 278.282 612.585 278.192 612.395C278.102 612.206 277.974 612.037 277.816 611.899C277.658 611.761 277.473 611.657 277.274 611.593C277.074 611.529 276.863 611.507 276.654 611.528V611.528C276.326 611.559 276.017 611.696 275.773 611.918C275.529 612.14 275.364 612.435 275.302 612.759C274.867 614.982 275.925 618.528 276.594 620.443C276.686 620.704 276.856 620.931 277.082 621.091C277.307 621.252 277.577 621.338 277.854 621.339C278.031 621.339 278.207 621.303 278.371 621.234Z" fill="#07BF9D"/>
<path d="M780.74 619.977H788.243V617.699C785.872 616.049 783.771 616.192 781.008 617.833L780.74 619.977Z" fill="#07BF9D"/>
<path d="M789.981 660.436H791.624L791.869 654.1H789.981V660.436Z" fill="#FFB8B8"/>
<path d="M789.562 662.029L794.859 662.028V661.962C794.859 661.691 794.806 661.423 794.702 661.173C794.598 660.922 794.446 660.695 794.255 660.504C794.064 660.312 793.836 660.16 793.586 660.057C793.336 659.953 793.068 659.9 792.797 659.9H792.797L789.562 659.9L789.562 662.029Z" fill="#2F2E41"/>
<path d="M780.728 660.436H779.086L778.84 654.1H780.729L780.728 660.436Z" fill="#FFB8B8"/>
<path d="M781.147 659.9L777.912 659.9H777.912C777.641 659.9 777.373 659.953 777.123 660.057C776.873 660.16 776.646 660.312 776.454 660.504C776.263 660.695 776.111 660.922 776.007 661.173C775.904 661.423 775.85 661.691 775.85 661.962V662.028L781.147 662.029L781.147 659.9Z" fill="#2F2E41"/>
<path d="M780.685 659.624C780.822 659.624 780.955 659.577 781.062 659.491C781.169 659.405 781.244 659.286 781.274 659.152L785.345 641.393C785.354 641.348 785.379 641.308 785.415 641.279C785.451 641.25 785.496 641.235 785.542 641.236H785.543C785.589 641.235 785.634 641.251 785.67 641.28C785.705 641.309 785.73 641.35 785.738 641.395L789.477 659.035C789.506 659.169 789.581 659.29 789.688 659.377C789.795 659.464 789.929 659.512 790.067 659.512H791.848C791.93 659.512 792.012 659.496 792.087 659.463C792.163 659.43 792.231 659.383 792.287 659.323C792.343 659.263 792.387 659.193 792.415 659.115C792.443 659.038 792.455 658.956 792.45 658.874L791.123 636.517L790.59 636.359L790.58 636.359L780.094 636.451L777.86 658.783C777.853 658.863 777.861 658.943 777.884 659.02C777.908 659.096 777.947 659.167 777.998 659.229C778.049 659.29 778.112 659.341 778.183 659.377C778.254 659.414 778.332 659.436 778.412 659.443L780.637 659.622C780.653 659.624 780.669 659.624 780.685 659.624Z" fill="#2F2E41"/>
<path d="M785.015 615.894C783.198 615.894 781.724 614.421 781.724 612.603C781.724 610.786 783.198 609.312 785.015 609.312C786.833 609.312 788.306 610.786 788.306 612.603C788.306 614.421 786.833 615.894 785.015 615.894Z" fill="#FFB8B8"/>
<path d="M787.031 638.968C787.609 638.975 788.184 638.894 788.737 638.728C789.229 638.58 789.685 638.332 790.078 638.001C790.47 637.67 790.791 637.262 791.02 636.802C791.092 636.663 791.108 636.502 791.065 636.352C790.702 635.114 788.948 628.674 790.067 623.556C790.225 622.845 790.238 622.109 790.105 621.393C789.973 620.676 789.698 619.994 789.296 619.387C788.903 618.784 788.393 618.266 787.796 617.865C787.2 617.463 786.528 617.186 785.822 617.05V617.05C785.636 617.014 785.449 616.984 785.267 616.961C784.486 616.865 783.694 616.943 782.947 617.189C782.2 617.435 781.516 617.843 780.945 618.384C780.357 618.935 779.898 619.61 779.601 620.359C779.304 621.109 779.177 621.915 779.228 622.72L780.088 636.521C780.094 636.625 780.126 636.725 780.183 636.812C780.239 636.899 780.317 636.97 780.409 637.017C781.4 637.536 784.375 638.968 787.031 638.968Z" fill="#3F3D56"/>
<path d="M781.298 610.181C781.639 609.322 782.266 608.606 783.072 608.153C783.878 607.699 784.815 607.536 785.726 607.691L784.689 608.529C785.978 608.573 787.335 608.48 788.256 609.384C787.962 609.376 787.578 610.003 787.285 609.995C787.56 610.014 787.824 610.106 788.05 610.262C788.276 610.419 788.457 610.633 788.572 610.882C788.796 611.387 788.849 611.952 788.721 612.489C788.389 613.281 788.003 614.048 787.565 614.786C787.604 613.477 785.026 610.354 783.768 610.68C784.407 610.918 784.962 611.339 785.362 611.891C784.506 611.459 783.538 611.3 782.589 611.437C782.372 611.487 782.148 611.499 781.927 611.474C781.792 611.447 781.666 611.386 781.561 611.297C781.456 611.207 781.375 611.092 781.327 610.963C781.279 610.834 781.265 610.694 781.286 610.558C781.308 610.421 781.364 610.293 781.449 610.184L781.298 610.181Z" fill="#2F2E41"/>
<path d="M787.258 638.139C787.341 638.139 787.424 638.122 787.5 638.088L793.744 635.363C793.876 635.306 793.984 635.203 794.047 635.073C794.11 634.943 794.124 634.795 794.086 634.656L789.952 619.04C789.875 618.75 789.741 618.478 789.558 618.239C789.375 618.001 789.146 617.802 788.884 617.654C788.623 617.505 788.335 617.41 788.036 617.374C787.738 617.339 787.435 617.363 787.146 617.445L785.494 617.917L786.657 637.571C786.663 637.668 786.692 637.762 786.742 637.845C786.792 637.929 786.862 637.999 786.945 638.049C787.039 638.108 787.147 638.139 787.258 638.139V638.139Z" fill="#07BF9D"/>
<path d="M775.702 634.655L775.976 633.62L776.374 632.114L776.566 631.391L776.964 629.889L779.835 619.04C779.912 618.749 780.046 618.477 780.229 618.239C780.412 618.001 780.641 617.801 780.903 617.653C781.164 617.504 781.453 617.409 781.751 617.374C782.05 617.338 782.352 617.363 782.641 617.446L784.293 617.917L783.475 631.741L783.39 633.184L783.336 634.094V634.095L783.251 635.53L783.13 637.571C783.12 637.724 783.053 637.868 782.941 637.974C782.83 638.079 782.682 638.138 782.529 638.139C782.446 638.139 782.363 638.121 782.287 638.088L776.043 635.363C775.911 635.306 775.803 635.203 775.74 635.073C775.677 634.943 775.664 634.795 775.702 634.655Z" fill="#07BF9D"/>
<path d="M776.566 631.392L783.39 633.184L783.475 631.741L776.964 629.889L776.566 631.392Z" fill="#CCCCCC"/>
<path d="M775.976 633.62L783.251 635.531L783.337 634.095V634.094L776.374 632.114L775.976 633.62Z" fill="#CCCCCC"/>
<path d="M786.397 632.052L786.481 633.468L793.174 631.475L792.782 629.992L786.397 632.052Z" fill="#CCCCCC"/>
<path d="M786.536 634.401L793.366 632.197L793.759 633.683L786.619 635.809L786.536 634.401Z" fill="#CCCCCC"/>
<path d="M793.247 635.882C793.043 635.829 792.854 635.732 792.692 635.597C792.53 635.463 792.399 635.295 792.309 635.105C792.219 634.915 792.172 634.707 792.171 634.496C792.17 634.286 792.215 634.078 792.303 633.887L789.092 623.807L791.369 623.33L794.313 633.213C794.624 633.382 794.862 633.659 794.983 633.993C795.103 634.326 795.097 634.692 794.965 635.021C794.834 635.35 794.587 635.619 794.27 635.778C793.953 635.937 793.589 635.974 793.247 635.882V635.882Z" fill="#FFB8B8"/>
<path d="M789.003 618.852C788.35 618.919 787.982 619.654 788.144 620.569L788.924 624.961C788.983 625.29 789.254 625.551 789.479 625.495L792.117 624.835C792.32 624.784 792.395 624.496 792.28 624.207L790.696 620.234C790.589 619.858 790.369 619.524 790.067 619.277C789.764 619.03 789.393 618.882 789.003 618.852Z" fill="#3F3D56"/>
<path d="M785.027 606.444C783.914 606.444 782.844 606.877 782.044 607.653C781.244 608.428 780.778 609.484 780.743 610.597H779.936C779.865 610.597 779.797 610.626 779.746 610.676C779.696 610.726 779.668 610.794 779.668 610.865V611.937C779.668 612.008 779.696 612.076 779.746 612.127C779.797 612.177 779.865 612.205 779.936 612.205H789.047C789.118 612.205 789.186 612.177 789.237 612.127C789.287 612.076 789.315 612.008 789.315 611.937V610.731C789.315 610.168 789.204 609.611 788.989 609.09C788.773 608.57 788.457 608.098 788.059 607.699C787.661 607.301 787.189 606.985 786.668 606.77C786.148 606.554 785.591 606.444 785.027 606.444V606.444Z" fill="#07BF9D"/>
<path d="M784.515 632.948H786.409C786.47 632.948 786.529 632.925 786.574 632.885C786.619 632.844 786.647 632.788 786.653 632.727L787.032 628.841H783.893L784.272 632.727C784.278 632.788 784.306 632.844 784.351 632.885C784.396 632.925 784.454 632.948 784.515 632.948Z" fill="#E6E6E6"/>
<path d="M783.898 629.33H787.027C787.092 629.33 787.154 629.304 787.2 629.258C787.245 629.212 787.271 629.15 787.271 629.086V628.499C787.271 628.434 787.245 628.372 787.2 628.326C787.154 628.28 787.092 628.255 787.027 628.254H783.898C783.833 628.255 783.771 628.28 783.725 628.326C783.679 628.372 783.654 628.434 783.653 628.499V629.086C783.654 629.15 783.679 629.212 783.725 629.258C783.771 629.304 783.833 629.33 783.898 629.33V629.33Z" fill="#CCCCCC"/>
<path d="M785.422 630.864C785.348 630.872 785.275 630.887 785.204 630.907L780.16 626.581L780.454 624.994L778.117 624.235L777.322 626.995C777.258 627.217 777.268 627.455 777.35 627.672C777.432 627.889 777.583 628.073 777.779 628.197L784.167 632.24C784.163 632.525 784.245 632.806 784.404 633.043C784.563 633.281 784.79 633.464 785.055 633.57C785.321 633.675 785.612 633.697 785.89 633.632C786.169 633.568 786.421 633.421 786.613 633.21C786.806 632.999 786.929 632.734 786.967 632.451C787.006 632.168 786.957 631.88 786.828 631.625C786.698 631.37 786.495 631.161 786.243 631.025C785.992 630.889 785.706 630.833 785.422 630.864H785.422Z" fill="#FFB8B8"/>
<path d="M780.146 619.215C779.448 619.019 778.75 619.551 778.517 620.456L777.395 624.802C777.31 625.127 777.474 625.474 777.729 625.51L780.718 625.94C780.948 625.973 781.15 625.737 781.159 625.427L781.275 621.151C781.319 620.75 781.234 620.345 781.03 619.996C780.827 619.648 780.517 619.374 780.146 619.215Z" fill="#3F3D56"/>
<path d="M746.172 630.971H748.448C748.521 630.971 748.591 630.944 748.645 630.895C748.699 630.846 748.733 630.778 748.74 630.706L749.195 626.037H745.424L745.88 630.705C745.886 630.778 745.92 630.846 745.974 630.895C746.028 630.944 746.099 630.971 746.172 630.971V630.971Z" fill="#E6E6E6"/>
<path d="M745.43 626.624H749.189C749.267 626.624 749.342 626.593 749.397 626.538C749.452 626.483 749.483 626.408 749.483 626.33V625.626C749.483 625.548 749.452 625.473 749.397 625.418C749.342 625.363 749.267 625.332 749.189 625.332H745.43C745.352 625.332 745.278 625.363 745.223 625.418C745.167 625.473 745.136 625.548 745.136 625.626V626.33C745.136 626.408 745.167 626.483 745.223 626.538C745.278 626.593 745.352 626.624 745.43 626.624V626.624Z" fill="#CCCCCC"/>
<path d="M723.815 658.388C725.468 656.189 726.776 653.75 727.691 651.155C727.744 651 727.74 650.831 727.68 650.678C727.62 650.526 727.508 650.399 727.364 650.321L721.706 647.29C721.614 647.24 721.513 647.212 721.409 647.208C721.305 647.204 721.201 647.224 721.106 647.265C721.009 647.308 720.923 647.371 720.854 647.452C720.786 647.532 720.736 647.627 720.71 647.73C720.051 650.23 718.814 652.54 717.097 654.473C717.026 654.552 716.974 654.646 716.945 654.748C716.916 654.849 716.911 654.956 716.929 655.06C716.947 655.163 716.988 655.26 717.05 655.344C717.111 655.428 717.19 655.497 717.282 655.546L722.94 658.578C723.084 658.655 723.252 658.678 723.412 658.644C723.572 658.609 723.715 658.518 723.815 658.388Z" fill="#CCCCCC"/>
<path d="M723.429 658.098C723.398 658.136 723.356 658.162 723.308 658.172C723.26 658.182 723.211 658.175 723.168 658.152L717.51 655.121C717.482 655.106 717.459 655.086 717.44 655.061C717.422 655.036 717.41 655.007 717.405 654.976C717.399 654.944 717.401 654.911 717.41 654.879C717.419 654.848 717.435 654.819 717.457 654.795C719.225 652.804 720.499 650.426 721.177 647.852C721.185 647.82 721.2 647.791 721.221 647.766C721.242 647.741 721.269 647.721 721.299 647.708C721.327 647.695 721.358 647.69 721.389 647.691C721.42 647.692 721.451 647.701 721.478 647.715L727.135 650.747C727.178 650.77 727.212 650.808 727.23 650.853C727.248 650.898 727.25 650.948 727.235 650.995C726.336 653.543 725.053 655.938 723.429 658.098V658.098Z" fill="white"/>
<path d="M721.334 651.616L724.416 652.976C724.533 653.028 724.666 653.031 724.785 652.985C724.905 652.938 725.001 652.847 725.053 652.73L725.129 652.557C725.181 652.44 725.184 652.307 725.137 652.187C725.091 652.068 724.999 651.972 724.882 651.92L721.801 650.56C721.684 650.508 721.551 650.505 721.431 650.552C721.312 650.598 721.216 650.69 721.164 650.807L721.088 650.979C721.036 651.096 721.033 651.229 721.079 651.349C721.126 651.468 721.217 651.564 721.334 651.616V651.616Z" fill="#CCCCCC"/>
<path d="M720.208 653.709L723.289 655.069C723.406 655.121 723.539 655.124 723.659 655.077C723.778 655.031 723.874 654.939 723.926 654.822L724.002 654.65C724.054 654.533 724.057 654.4 724.011 654.28C723.964 654.161 723.873 654.065 723.755 654.013L720.674 652.653C720.557 652.601 720.424 652.598 720.305 652.644C720.185 652.691 720.089 652.782 720.037 652.899L719.961 653.072C719.909 653.189 719.906 653.322 719.953 653.442C719.999 653.561 720.091 653.657 720.208 653.709V653.709Z" fill="#CCCCCC"/>
<path d="M727.435 651.965C727.647 651.828 727.827 651.647 727.962 651.433C728.097 651.219 728.183 650.978 728.215 650.727C728.246 650.476 728.223 650.222 728.145 649.981C728.068 649.74 727.939 649.519 727.767 649.334L729.066 630.892L725.323 631.255L725.22 649.315C724.928 649.625 724.759 650.031 724.747 650.456C724.734 650.882 724.877 651.297 725.15 651.624C725.423 651.951 725.807 652.166 726.228 652.229C726.649 652.291 727.078 652.198 727.435 651.965V651.965Z" fill="#A0616A"/>
<path d="M728.219 637.089C728.307 637.026 728.379 636.944 728.431 636.849C728.483 636.755 728.512 636.649 728.518 636.542L728.792 631.571C728.82 631.079 728.663 630.594 728.354 630.209C728.045 629.825 727.604 629.569 727.117 629.491C726.63 629.412 726.132 629.517 725.717 629.784C725.303 630.052 725.002 630.463 724.873 630.939L723.668 635.383C723.618 635.568 723.644 635.766 723.739 635.933C723.835 636.099 723.992 636.221 724.178 636.272L727.605 637.201C727.709 637.229 727.819 637.234 727.925 637.215C728.031 637.195 728.131 637.152 728.219 637.089Z" fill="#3F3D56"/>
<path d="M734.599 674.638L736.572 674.637L737.511 667.025H734.598L734.599 674.638Z" fill="#A0616A"/>
<path d="M738.423 674.074H734.176V676.47H740.379V676.029C740.379 675.773 740.328 675.518 740.23 675.281C740.132 675.044 739.987 674.828 739.806 674.646C739.624 674.465 739.409 674.321 739.171 674.222C738.934 674.124 738.68 674.074 738.423 674.074V674.074Z" fill="#2F2E41"/>
<path d="M727.194 674.638L729.167 674.637L730.106 667.025H727.193L727.194 674.638Z" fill="#A0616A"/>
<path d="M731.018 674.074H726.771V676.47H732.973V676.029C732.973 675.773 732.923 675.518 732.825 675.281C732.726 675.044 732.582 674.828 732.401 674.646C732.219 674.465 732.003 674.321 731.766 674.222C731.529 674.124 731.274 674.074 731.018 674.074V674.074Z" fill="#2F2E41"/>
<path d="M734.692 670.803L736.865 670.699C737.05 670.69 737.224 670.611 737.353 670.477C737.481 670.344 737.553 670.166 737.555 669.981C738.127 661.139 738.921 651.66 737.706 647.997C737.707 647.893 737.685 647.79 737.642 647.694C737.599 647.599 737.536 647.515 737.458 647.446C737.379 647.377 737.286 647.327 737.186 647.297C737.086 647.268 736.981 647.26 736.878 647.275L728.186 648.537C728.014 648.561 727.857 648.646 727.743 648.777C727.629 648.908 727.566 649.075 727.565 649.248C726.456 653.585 726.405 661.448 726.447 669.618C726.447 669.714 726.465 669.809 726.501 669.897C726.537 669.986 726.59 670.066 726.658 670.134C726.725 670.202 726.805 670.256 726.893 670.292C726.982 670.329 727.076 670.348 727.172 670.348H729.514C729.687 670.349 729.854 670.288 729.986 670.175C730.117 670.063 730.204 669.907 730.23 669.736L731.675 660.55C731.696 660.415 731.765 660.293 731.869 660.205C731.974 660.118 732.106 660.071 732.242 660.074C732.378 660.076 732.509 660.128 732.609 660.219C732.71 660.31 732.775 660.435 732.791 660.57L733.938 670.165C733.96 670.341 734.045 670.503 734.177 670.62C734.31 670.738 734.48 670.803 734.658 670.803C734.669 670.803 734.68 670.803 734.692 670.803Z" fill="#2F2E41"/>
<path d="M733.163 649.249C734.431 648.504 735.837 648.023 737.297 647.834C737.392 647.824 737.485 647.796 737.57 647.749C737.654 647.703 737.729 647.64 737.788 647.564C737.849 647.488 737.893 647.4 737.919 647.306C737.945 647.212 737.951 647.113 737.938 647.017L735.855 631.554C735.735 630.65 735.386 629.791 734.84 629.059C734.295 628.328 733.571 627.748 732.738 627.376C731.932 627.005 731.044 626.847 730.159 626.916C729.275 626.985 728.423 627.28 727.684 627.772C727.613 627.819 727.543 627.868 727.474 627.917C726.623 628.54 725.976 629.402 725.614 630.392C725.252 631.382 725.191 632.458 725.44 633.483C726.717 638.707 727.155 647.273 727.23 648.937C727.236 649.079 727.284 649.216 727.368 649.33C727.451 649.445 727.567 649.533 727.7 649.582C728.486 649.867 729.315 650.015 730.151 650.018C731.204 650.024 732.241 649.76 733.163 649.249V649.249Z" fill="#3F3D56"/>
<path d="M731.42 625.276C729.237 625.276 727.466 623.506 727.466 621.322C727.466 619.138 729.237 617.368 731.42 617.368C733.604 617.368 735.374 619.138 735.374 621.322C735.374 623.506 733.604 625.276 731.42 625.276Z" fill="#A0616A"/>
<path d="M728.623 624.45C728.788 624.628 729.001 624.756 729.236 624.817C729.471 624.879 729.719 624.872 729.95 624.797C730.182 624.723 730.387 624.584 730.542 624.397C730.697 624.21 730.796 623.982 730.826 623.741C730.834 623.657 730.833 623.574 730.825 623.49C730.68 623.033 730.594 622.56 730.566 622.081C730.581 621.956 730.627 621.837 730.701 621.735C731.289 620.948 732.669 622.087 733.224 621.375C733.564 620.938 733.164 620.25 733.425 619.762C733.769 619.117 734.79 619.435 735.43 619.082C736.142 618.689 736.099 617.597 735.63 616.933C735.325 616.54 734.938 616.219 734.494 615.994C734.051 615.768 733.564 615.643 733.067 615.627C732.072 615.604 731.084 615.797 730.171 616.193C729.092 616.544 728.14 617.203 727.434 618.09C727.068 618.672 726.836 619.328 726.755 620.01C726.674 620.692 726.746 621.384 726.965 622.035C727.352 622.942 727.915 623.763 728.623 624.45Z" fill="#2F2E41"/>
<path d="M725.491 628.294C725.561 627.969 726.155 627.525 727.005 627.163C728.371 626.609 729.848 626.386 731.317 626.512C732.786 626.638 734.204 627.109 735.456 627.887C735.543 627.892 735.627 627.925 735.693 627.982C735.76 628.038 735.806 628.115 735.825 628.201L738.684 640.846L739.056 642.493L739.302 643.583L739.674 645.225L739.872 646.102C739.885 646.158 739.885 646.216 739.873 646.273C739.862 646.329 739.838 646.382 739.805 646.429C739.771 646.475 739.727 646.514 739.677 646.542C739.627 646.571 739.572 646.588 739.515 646.593L727.169 647.659C727.158 647.659 727.145 647.66 727.133 647.66C727.031 647.66 726.934 647.621 726.86 647.551C726.785 647.481 726.741 647.385 726.734 647.284L726.617 645.495L726.491 643.583L726.436 642.754L726.312 640.846L725.49 628.315V628.304L725.491 628.294Z" fill="#07BF9D"/>
<path d="M745.748 629.09C745.729 629.177 745.716 629.265 745.71 629.354L738.794 633.344L737.114 632.376L735.322 634.722L738.918 637.285L746.807 631.061C747.129 631.18 747.479 631.198 747.812 631.113C748.144 631.028 748.443 630.844 748.668 630.585C748.893 630.327 749.034 630.005 749.072 629.664C749.111 629.323 749.044 628.979 748.882 628.677C748.719 628.374 748.469 628.129 748.164 627.972C747.858 627.816 747.512 627.756 747.172 627.801C746.832 627.846 746.514 627.993 746.259 628.224C746.005 628.454 745.827 628.756 745.748 629.09V629.09Z" fill="#A0616A"/>
<path d="M738.548 633.005C738.559 632.897 738.546 632.789 738.51 632.687C738.474 632.585 738.416 632.493 738.339 632.416L734.82 628.896C734.471 628.547 734.006 628.34 733.513 628.314C733.021 628.288 732.536 628.446 732.153 628.756C731.769 629.066 731.514 629.507 731.437 629.995C731.36 630.482 731.466 630.98 731.734 631.394L734.241 635.256C734.345 635.417 734.51 635.53 734.698 635.57C734.885 635.61 735.081 635.574 735.243 635.469L738.222 633.536C738.312 633.478 738.389 633.399 738.445 633.307C738.501 633.215 738.537 633.112 738.548 633.005Z" fill="#3F3D56"/>
<path d="M726.313 640.846L726.436 642.754L739.056 642.493L738.684 640.846H726.313Z" fill="#CCCCCC"/>
<path d="M726.491 643.583L726.617 645.495L739.674 645.225L739.302 643.583H726.491Z" fill="#CCCCCC"/>
<path d="M731.343 613.64C732.681 613.64 733.967 614.161 734.927 615.093C735.888 616.024 736.449 617.293 736.49 618.631H737.46C737.546 618.631 737.628 618.664 737.688 618.725C737.748 618.785 737.782 618.867 737.782 618.952V620.24C737.782 620.326 737.748 620.408 737.688 620.468C737.628 620.528 737.546 620.562 737.46 620.562H726.513C726.428 620.562 726.346 620.528 726.286 620.468C726.225 620.408 726.191 620.326 726.191 620.24V618.791C726.191 618.115 726.325 617.445 726.584 616.82C726.842 616.195 727.222 615.627 727.7 615.149C728.179 614.671 728.747 614.291 729.372 614.032C729.997 613.773 730.666 613.64 731.343 613.64Z" fill="#07BF9D"/>
<path d="M702.35 666.048H703.454C703.461 665.915 704.944 662.436 704.944 662.436L705.84 660.269L706.432 658.824L707.328 656.656L708.354 654.164C708.38 654.051 708.444 653.951 708.534 653.879C708.625 653.807 708.737 653.768 708.852 653.768C708.968 653.768 709.08 653.807 709.17 653.879C709.261 653.951 709.325 654.051 709.351 654.164L710.377 656.656L711.273 658.824L711.865 660.269L712.761 662.436C712.761 662.436 714.243 665.915 714.25 666.048H715.355C715.642 666.048 715.918 666.163 716.121 666.366C716.324 666.569 716.438 666.845 716.438 667.132C716.438 667.42 716.324 667.695 716.121 667.898C715.918 668.102 715.642 668.216 715.355 668.216H702.35C702.063 668.216 701.787 668.102 701.584 667.898C701.381 667.695 701.266 667.42 701.266 667.132C701.266 666.845 701.381 666.569 701.584 666.366C701.787 666.163 702.063 666.048 702.35 666.048Z" fill="#FF6584"/>
<path d="M703.073 684.833H703.501C703.461 684.74 705.363 679.876 705.363 679.876L706.504 677.095L707.27 675.231L708.412 672.45L709.654 669.437C709.689 669.295 709.771 669.168 709.886 669.078C710.001 668.987 710.144 668.938 710.29 668.938C710.437 668.938 710.579 668.987 710.694 669.078C710.809 669.168 710.891 669.295 710.926 669.437L712.168 672.45L713.31 675.231L714.083 677.095L715.224 679.876C715.224 679.876 717.119 684.74 717.08 684.833H717.522C717.809 684.833 718.085 684.947 718.288 685.15C718.492 685.353 718.606 685.629 718.606 685.916C718.606 686.204 718.492 686.479 718.288 686.683C718.085 686.886 717.809 687 717.522 687H703.073C702.785 687 702.51 686.886 702.306 686.683C702.103 686.479 701.989 686.204 701.989 685.916C701.989 685.629 702.103 685.353 702.306 685.15C702.51 684.947 702.785 684.833 703.073 684.833Z" fill="#FF6584"/>
<path d="M706.432 658.824H711.273L710.377 656.656H707.328L706.432 658.824Z" fill="#F2F2F2"/>
<path d="M704.944 662.436H712.761L711.865 660.269H705.84L704.944 662.436Z" fill="#F2F2F2"/>
<path d="M707.27 675.231H713.31L712.169 672.45H708.412L707.27 675.231Z" fill="#F2F2F2"/>
<path d="M705.363 679.877H715.225L714.083 677.095H706.504L705.363 679.877Z" fill="#F2F2F2"/>
<path d="M543.635 624.684C543.523 624.574 543.437 624.441 543.383 624.293C543.328 624.146 543.307 623.989 543.32 623.833C543.333 623.676 543.38 623.525 543.458 623.388C543.536 623.252 543.642 623.135 543.771 623.044L544.313 619.471L546.539 620.172L545.319 623.36C545.457 623.585 545.507 623.853 545.46 624.113C545.414 624.373 545.273 624.607 545.065 624.77C544.858 624.934 544.597 625.015 544.334 624.999C544.07 624.983 543.821 624.871 543.635 624.684V624.684Z" fill="#FFB8B8"/>
<path d="M545.928 623.003L547.302 616.589C547.435 615.975 547.409 615.336 547.226 614.735C547.042 614.133 546.707 613.589 546.253 613.154C544.495 611.46 542.235 609.325 541.455 608.773C540.722 608.251 539.836 607.989 538.937 608.03L538.918 608.032L537.737 609.148L540.311 613.385L544.218 615.833L543.783 622.119L545.928 623.003Z" fill="#07BF9D"/>
<path d="M541.118 614.287H546.882C547.132 614.287 547.334 614.489 547.334 614.739C547.334 614.989 547.132 615.191 546.882 615.191H541.118C540.869 615.191 540.666 614.989 540.666 614.739C540.666 614.489 540.869 614.287 541.118 614.287Z" fill="#CCCCCC"/>
<path d="M541.118 624.119H546.882C547.132 624.119 547.334 624.321 547.334 624.571C547.334 624.821 547.132 625.023 546.882 625.023H541.118C540.869 625.023 540.666 624.821 540.666 624.571C540.666 624.321 540.869 624.119 541.118 624.119Z" fill="#CCCCCC"/>
<path d="M543.944 648.755C544 648.755 544.055 648.734 544.096 648.696C544.138 648.658 544.164 648.605 544.169 648.549L547.05 614.759C547.053 614.729 547.05 614.699 547.041 614.671C547.032 614.643 547.018 614.616 546.999 614.593C546.979 614.571 546.956 614.552 546.93 614.538C546.903 614.524 546.875 614.516 546.845 614.513C546.815 614.511 546.786 614.514 546.757 614.523C546.729 614.532 546.702 614.546 546.68 614.565C546.657 614.584 546.638 614.608 546.624 614.634C546.611 614.661 546.602 614.689 546.6 614.719L543.947 645.938L541.369 614.72C541.367 614.69 541.359 614.661 541.345 614.634C541.331 614.608 541.313 614.585 541.29 614.565C541.267 614.546 541.241 614.532 541.212 614.523C541.184 614.514 541.154 614.51 541.125 614.513C541.095 614.515 541.066 614.524 541.04 614.537C541.013 614.551 540.99 614.57 540.971 614.593C540.952 614.616 540.937 614.642 540.928 614.67C540.919 614.699 540.916 614.729 540.919 614.758L543.718 648.549C543.723 648.605 543.749 648.657 543.791 648.696C543.832 648.734 543.887 648.755 543.943 648.755L543.944 648.755Z" fill="#CCCCCC"/>
<path d="M537.475 606.677C535.838 606.677 534.51 605.349 534.51 603.712C534.51 602.074 535.838 600.747 537.475 600.747C539.113 600.747 540.441 602.074 540.441 603.712C540.441 605.349 539.113 606.677 537.475 606.677Z" fill="#FFB8B8"/>
<path d="M546.313 647.4L547.723 646.951L546.66 641.298L544.579 641.961L546.313 647.4Z" fill="#FFB8B8"/>
<path d="M546.391 648.651L550.931 647.204L550.893 647.086C550.749 646.635 550.432 646.259 550.011 646.042C549.59 645.825 549.1 645.783 548.649 645.926L545.811 646.831L546.391 648.651Z" fill="#2F2E41"/>
<path d="M536.052 647.371H537.533L538.237 641.662H536.052V647.371Z" fill="#FFB8B8"/>
<path d="M540.331 648.689H535.792V647.004H538.657C539.101 647.005 539.526 647.181 539.84 647.495C540.154 647.809 540.33 648.234 540.331 648.678V648.689Z" fill="#2F2E41"/>
<path d="M536.096 645.518L536.595 645.444C537.223 645.406 537.843 645.29 538.442 645.099C538.565 645.045 538.573 644.229 538.499 639.645C538.445 636.28 538.378 632.093 538.509 629.845C538.514 629.756 538.549 629.672 538.608 629.605C538.668 629.539 538.747 629.495 538.835 629.479C538.922 629.464 539.013 629.478 539.091 629.52C539.169 629.562 539.231 629.63 539.266 629.711C540.394 632.315 542.285 638.141 543.537 641.996C543.972 643.337 544.316 644.396 544.533 645.031C544.575 645.151 544.661 645.251 544.773 645.312C544.884 645.372 545.015 645.389 545.138 645.359C546.168 645.101 546.1 644.992 547.567 644.612C547.693 644.58 547.803 644.5 547.872 644.388C547.941 644.277 547.965 644.144 547.937 644.015C547.672 642.764 542.816 622.476 542.445 620.547C542.432 620.481 542.407 620.418 542.37 620.362C542.333 620.306 542.285 620.258 542.229 620.22C542.173 620.183 542.111 620.156 542.045 620.143C541.979 620.13 541.911 620.13 541.845 620.143C540.752 620.364 540.087 620.597 539.006 620.823C537.841 621.067 536.635 621.319 535.459 621.555C535.342 621.578 535.238 621.642 535.163 621.736C534.836 622.086 534.433 622.357 533.984 622.528C533.676 622.675 534.374 622.662 534.106 622.874C533.02 623.734 534.582 641.192 535.525 645.135C535.556 645.258 535.631 645.366 535.736 645.437C535.842 645.508 535.97 645.537 536.096 645.518V645.518Z" fill="#2F2E41"/>
<path d="M536.211 606.306C536.385 605.572 535.509 603.991 535.682 603.257C535.8 602.759 536.97 603.097 537.243 602.665C537.369 602.443 537.549 602.254 537.765 602.117C537.982 601.98 538.228 601.897 538.484 601.877C539.071 601.871 539.649 602.307 540.206 602.118C540.337 602.053 540.455 601.962 540.551 601.851C540.647 601.74 540.72 601.611 540.766 601.471C540.812 601.332 540.83 601.184 540.819 601.038C540.807 600.891 540.767 600.749 540.7 600.618C540.402 600.098 539.939 599.693 539.385 599.465C538.513 598.932 537.468 598.757 536.469 598.975C535.898 599.197 535.374 599.526 534.926 599.945C534.478 600.277 534.083 600.677 533.758 601.131C533.481 601.604 533.332 602.14 533.323 602.688C533.314 603.236 533.447 603.776 533.708 604.258C534.248 605.219 535.109 605.96 536.14 606.351" fill="#2F2E41"/>
<path d="M543.493 623.401C543.173 622.867 542.687 620.362 542.088 616.157C541.68 613.286 541.324 610.37 541.148 608.88C541.134 608.76 541.09 608.645 541.02 608.546C540.949 608.447 540.855 608.367 540.746 608.315C540.631 608.26 540.517 608.207 540.404 608.158C539.046 607.537 537.539 607.317 536.06 607.525C534.582 607.732 533.193 608.359 532.059 609.331L532.046 609.343L532.042 609.361C532.036 609.394 531.424 612.695 532.678 614.925C533.915 617.125 533.93 622.951 533.93 623.01V623.085L534.002 623.064C535.927 622.514 543.362 623.476 543.437 623.486L543.553 623.501L543.493 623.401Z" fill="#07BF9D"/>
<path d="M532.303 615.756H538.067C538.317 615.756 538.519 615.958 538.519 616.208C538.519 616.458 538.317 616.66 538.067 616.66H532.303C532.054 616.66 531.851 616.458 531.851 616.208C531.851 615.958 532.054 615.756 532.303 615.756Z" fill="#CCCCCC"/>
<path d="M532.303 625.588H538.067C538.317 625.588 538.519 625.79 538.519 626.04C538.519 626.29 538.317 626.492 538.067 626.492H532.303C532.054 626.492 531.851 626.29 531.851 626.04C531.851 625.79 532.054 625.588 532.303 625.588Z" fill="#CCCCCC"/>
<path d="M535.129 648.868C535.185 648.868 535.24 648.847 535.281 648.809C535.323 648.771 535.349 648.718 535.354 648.662L538.235 616.228C538.24 616.168 538.222 616.109 538.183 616.063C538.145 616.017 538.09 615.988 538.03 615.983C537.97 615.978 537.911 615.996 537.865 616.035C537.819 616.073 537.79 616.128 537.785 616.188L535.132 646.051L532.554 616.189C532.552 616.159 532.544 616.13 532.53 616.104C532.516 616.077 532.498 616.054 532.475 616.034C532.452 616.015 532.426 616.001 532.398 615.992C532.369 615.983 532.339 615.979 532.31 615.982C532.28 615.985 532.251 615.993 532.225 616.007C532.198 616.02 532.175 616.039 532.156 616.062C532.137 616.085 532.122 616.111 532.113 616.14C532.105 616.168 532.101 616.198 532.104 616.228L534.903 648.662C534.908 648.718 534.934 648.77 534.976 648.809C535.017 648.847 535.072 648.868 535.128 648.868L535.129 648.868Z" fill="#CCCCCC"/>
<path d="M536.99 625.731C537.023 625.578 537.023 625.419 536.989 625.266C536.954 625.113 536.887 624.969 536.791 624.845C536.695 624.721 536.573 624.619 536.434 624.547C536.295 624.475 536.141 624.434 535.984 624.428L533.588 621.723L532.099 623.521L534.855 625.535C534.862 625.799 534.966 626.051 535.146 626.244C535.327 626.437 535.572 626.557 535.835 626.581C536.098 626.605 536.361 626.532 536.574 626.375C536.787 626.219 536.935 625.99 536.99 625.731H536.99Z" fill="#FFB8B8"/>
<path d="M535.594 623.848L531.813 618.807L533.763 614.629L533.621 609.674L532.023 609.379L532.006 609.387C531.229 609.841 530.628 610.542 530.296 611.379C529.941 612.267 529.205 615.287 528.649 617.664C528.504 618.276 528.519 618.915 528.692 619.52C528.864 620.124 529.189 620.675 529.635 621.118L534.273 625.756L535.594 623.848Z" fill="#07BF9D"/>
<path d="M551.444 647.466L546.271 648.712C546.171 648.738 546.064 648.729 545.97 648.685C545.876 648.641 545.8 648.566 545.756 648.472L541.313 636.657C541.293 636.612 541.283 636.563 541.283 636.513C541.283 636.464 541.293 636.415 541.312 636.369C541.335 636.318 541.367 636.273 541.408 636.234C541.449 636.196 541.497 636.167 541.549 636.148L545.438 634.663C545.5 634.639 545.566 634.629 545.631 634.632C545.697 634.636 545.761 634.654 545.82 634.684C545.871 634.709 545.915 634.745 545.951 634.788C545.987 634.832 546.013 634.883 546.028 634.938L546.028 634.939L548.773 645.351L548.814 645.354C549.666 645.404 550.475 645.741 551.111 646.311C551.243 646.471 551.341 646.655 551.398 646.854C551.455 647.053 551.471 647.261 551.444 647.466Z" fill="#CCCCCC"/>
<path d="M547.698 640.844L547.722 641.068L543.005 641.568L542.982 641.343L547.698 640.844Z" fill="#B3B3B3"/>
<path d="M548.109 642.706L548.202 642.912L544.406 644.619L544.314 644.413L548.109 642.706Z" fill="#B3B3B3"/>
<path d="M542.485 639.76L546.959 638.278L546.866 638.072L542.393 639.553L542.485 639.76Z" fill="#B3B3B3"/>
<path d="M542.033 638.743L546.506 636.583L546.414 636.377L541.94 638.536L542.033 638.743Z" fill="#B3B3B3"/>
<path d="M548.503 644.475L548.65 644.647L545.425 647.402L545.278 647.23L548.503 644.475Z" fill="#B3B3B3"/>
<path d="M549.419 645.389L549.625 645.482L548.33 648.338L548.124 648.244L549.419 645.389Z" fill="#B3B3B3"/>
<path d="M423.35 625.631C423.541 625.586 423.721 625.5 423.876 625.379C424.031 625.257 424.157 625.103 424.246 624.928C424.335 624.752 424.384 624.559 424.39 624.363C424.397 624.166 424.36 623.97 424.282 623.789L429.244 612.579L426.406 611.864L422.421 623.108C422.126 623.259 421.896 623.512 421.775 623.821C421.654 624.129 421.65 624.471 421.765 624.782C421.879 625.093 422.104 625.351 422.396 625.507C422.688 625.664 423.027 625.708 423.35 625.631V625.631Z" fill="#A0616A"/>
<path d="M428.323 616.092C428.403 616.056 428.473 616.004 428.53 615.939C428.588 615.874 428.63 615.797 428.655 615.714L429.522 612.812C429.712 612.41 429.734 611.949 429.584 611.53C429.434 611.112 429.124 610.77 428.721 610.581C428.319 610.391 427.859 610.369 427.44 610.519C427.022 610.669 426.68 610.979 426.491 611.382L424.813 613.915C424.765 613.988 424.733 614.069 424.72 614.155C424.706 614.241 424.711 614.328 424.735 614.412C424.758 614.495 424.8 614.573 424.856 614.639C424.912 614.705 424.982 614.758 425.06 614.795L427.821 616.087C427.899 616.124 427.985 616.144 428.072 616.144C428.158 616.145 428.244 616.127 428.323 616.092V616.092Z" fill="#07BF9D"/>
<path d="M418.222 614.646L421.266 616.801C421.305 616.829 421.352 616.844 421.4 616.844C421.448 616.844 421.495 616.829 421.534 616.801L422.357 616.183C422.384 616.163 422.407 616.137 422.423 616.107C422.439 616.077 422.448 616.044 422.449 616.01C422.45 615.977 422.444 615.943 422.431 615.912C422.417 615.881 422.397 615.853 422.372 615.831L420.03 613.742C419.999 613.715 419.961 613.697 419.921 613.689C419.881 613.681 419.84 613.684 419.801 613.698L418.277 614.243C418.238 614.258 418.203 614.283 418.177 614.315C418.151 614.348 418.134 614.387 418.129 614.428C418.123 614.469 418.129 614.512 418.145 614.55C418.162 614.588 418.189 614.621 418.222 614.646V614.646Z" fill="#3F3D56"/>
<path d="M418.47 614.442C418.463 614.421 418.464 614.399 418.472 614.379C418.481 614.36 418.498 614.344 418.518 614.337L419.89 613.846C419.904 613.841 419.919 613.839 419.933 613.842C419.947 613.845 419.961 613.851 419.972 613.861L422.084 615.744L422.096 615.757C422.102 615.765 422.106 615.775 422.108 615.785C422.111 615.795 422.111 615.805 422.11 615.816C422.108 615.826 422.104 615.836 422.099 615.845C422.093 615.853 422.086 615.861 422.078 615.867L421.338 616.422C421.324 616.432 421.307 616.438 421.29 616.438C421.273 616.437 421.256 616.432 421.242 616.421L418.499 614.479C418.486 614.47 418.476 614.457 418.47 614.442Z" fill="white"/>
<path d="M429.315 646.772H427.779L427.048 640.847H429.315V646.772Z" fill="#A0616A"/>
<path d="M429.707 646.271L426.682 646.271H426.682C426.429 646.271 426.178 646.321 425.944 646.417C425.71 646.514 425.498 646.656 425.319 646.835C425.14 647.014 424.998 647.227 424.901 647.461C424.804 647.695 424.754 647.945 424.754 648.199V648.261L429.707 648.261L429.707 646.271Z" fill="#2F2E41"/>
<path d="M434.453 646.772H432.916L432.186 640.847H434.453V646.772Z" fill="#A0616A"/>
<path d="M434.844 646.271L431.819 646.271H431.819C431.566 646.271 431.315 646.321 431.081 646.417C430.848 646.514 430.635 646.656 430.456 646.835C430.277 647.014 430.135 647.227 430.038 647.461C429.941 647.695 429.891 647.945 429.891 648.199V648.261L434.844 648.261L434.844 646.271Z" fill="#2F2E41"/>
<path d="M434.779 644.962C434.884 644.841 434.943 644.687 434.945 644.527C435.311 640.76 434.315 620.956 432.013 619.265L431.998 619.252L425.26 618.088L425.135 618.213C425.125 618.388 423.9 635.747 427.283 644.606C427.324 644.712 427.397 644.802 427.49 644.866C427.584 644.93 427.695 644.964 427.808 644.964H429.154C429.231 644.964 429.308 644.948 429.379 644.917C429.451 644.886 429.515 644.84 429.568 644.783C429.62 644.726 429.661 644.659 429.686 644.585C429.712 644.512 429.722 644.434 429.716 644.356L428.627 627.768C428.623 627.72 428.637 627.673 428.667 627.636C428.697 627.599 428.739 627.574 428.786 627.567C428.834 627.56 428.882 627.571 428.921 627.598C428.96 627.626 428.987 627.667 428.997 627.713L432.065 644.549C432.091 644.668 432.155 644.775 432.247 644.855C432.338 644.934 432.453 644.982 432.574 644.992L434.341 645.123C434.355 645.124 434.368 645.124 434.382 645.124C434.531 645.124 434.673 645.066 434.779 644.962V644.962Z" fill="#2F2E41"/>
<path d="M425.912 607.933C424.212 607.933 422.835 606.556 422.835 604.856C422.835 603.156 424.212 601.779 425.912 601.779C427.612 601.779 428.99 603.156 428.99 604.856C428.99 606.556 427.612 607.933 425.912 607.933Z" fill="#A0616A"/>
<path d="M433.324 621.96C433.454 621.828 433.529 621.651 433.533 621.466L432.277 615.582C433.279 611.322 431.944 610.523 430.438 609.716L430.448 609.711L429.819 608.009C429.799 607.933 429.763 607.863 429.712 607.803C429.662 607.743 429.599 607.694 429.528 607.662C429.457 607.629 429.379 607.612 429.301 607.612C429.223 607.613 429.146 607.631 429.075 607.664L425.867 609.369C425.723 609.45 425.616 609.584 425.57 609.743C425.516 609.912 425.519 610.094 425.58 610.261L425.817 610.902C425.205 611.72 424.257 614.956 425.26 616.209L424.503 620.384C424.487 620.538 424.525 620.692 424.611 620.821C424.697 620.949 424.825 621.043 424.973 621.087L432.877 622.101C432.907 622.107 432.939 622.11 432.97 622.11C433.103 622.109 433.23 622.055 433.324 621.96V621.96Z" fill="#07BF9D"/>
<path d="M421.818 615.213C421.869 615.26 421.916 615.312 421.958 615.367L428.157 614.938L428.822 613.583L430.999 614.319L430.054 616.833C429.978 617.036 429.838 617.209 429.655 617.325C429.472 617.442 429.257 617.496 429.04 617.48L421.991 616.945C421.835 617.162 421.617 617.326 421.365 617.416C421.113 617.506 420.84 617.516 420.583 617.447C420.325 617.378 420.094 617.232 419.921 617.028C419.748 616.824 419.641 616.573 419.615 616.307C419.588 616.041 419.643 615.774 419.773 615.54C419.902 615.307 420.099 615.118 420.339 614.999C420.578 614.88 420.848 614.837 421.112 614.875C421.376 614.913 421.623 615.031 421.818 615.213V615.213Z" fill="#A0616A"/>
<path d="M428.389 614.96L431.09 615.859C431.167 615.885 431.249 615.894 431.329 615.885C431.41 615.876 431.488 615.85 431.557 615.809C431.627 615.767 431.687 615.711 431.733 615.645C431.779 615.578 431.81 615.502 431.824 615.422L432.316 612.626C432.445 612.232 432.412 611.803 432.225 611.433C432.038 611.063 431.712 610.782 431.318 610.652C430.924 610.523 430.495 610.554 430.125 610.74C429.754 610.927 429.473 611.252 429.342 611.646L428.064 614.17C428.027 614.243 428.006 614.322 428.003 614.403C428 614.484 428.014 614.565 428.045 614.64C428.076 614.714 428.123 614.782 428.182 614.837C428.241 614.892 428.312 614.934 428.389 614.96V614.96Z" fill="#07BF9D"/>
<path d="M427.641 602.426C426.257 602.426 425.135 601.304 425.135 599.92C425.135 598.536 426.257 597.414 427.641 597.414C429.025 597.414 430.146 598.536 430.146 599.92C430.146 601.304 429.025 602.426 427.641 602.426Z" fill="#2F2E41"/>
<path d="M422.999 605.236C422.756 605.285 422.505 605.264 422.273 605.176C422.156 605.109 422.055 605.015 421.98 604.902C421.905 604.789 421.858 604.66 421.843 604.526C421.376 601.424 424.014 601.679 424.326 601.544C424.523 601.429 424.707 601.294 424.877 601.142C425.317 600.898 425.818 600.788 426.319 600.825C426.911 600.77 427.508 600.843 428.07 601.039C428.559 601.268 428.966 601.643 429.234 602.112C429.5 602.579 429.694 603.083 429.811 603.607C429.996 604.2 430.03 604.83 429.91 605.44C429.781 605.895 429.514 606.299 429.145 606.594C428.776 606.89 428.324 607.063 427.852 607.089C427.928 606.724 427.881 606.344 427.719 606.008C427.558 605.673 427.29 605.399 426.957 605.231C426.428 604.971 425.826 604.899 425.251 605.028C424.878 605.104 424.5 605.151 424.119 605.169C423.746 605.183 423.298 605.205 422.999 605.236Z" fill="#2F2E41"/>
<path d="M182.154 647.384C182.152 644.096 180.844 640.944 178.519 638.621C176.193 636.297 173.04 634.992 169.753 634.992C166.465 634.992 163.312 636.297 160.987 638.621C158.662 640.944 157.354 644.096 157.351 647.384" fill="#F2F2F2"/>
<path d="M169.753 647.384C169.842 647.384 169.927 647.348 169.99 647.286C170.053 647.223 170.088 647.137 170.088 647.049V640.513C170.088 640.424 170.053 640.339 169.99 640.276C169.927 640.213 169.842 640.178 169.753 640.178C169.664 640.178 169.579 640.213 169.516 640.276C169.453 640.339 169.418 640.424 169.418 640.513V647.049C169.418 647.137 169.453 647.223 169.516 647.286C169.579 647.348 169.664 647.384 169.753 647.384V647.384Z" fill="#CCCCCC"/>
<path d="M169.753 645.138C169.833 645.138 169.911 645.109 169.971 645.057L173.993 641.605C174.027 641.576 174.055 641.541 174.075 641.502C174.096 641.463 174.108 641.42 174.111 641.376C174.115 641.332 174.11 641.287 174.096 641.245C174.082 641.203 174.061 641.164 174.032 641.13C174.003 641.097 173.968 641.069 173.928 641.049C173.889 641.029 173.845 641.018 173.801 641.014C173.757 641.011 173.713 641.017 173.671 641.031C173.629 641.045 173.59 641.067 173.557 641.096L169.535 644.548C169.483 644.593 169.446 644.652 169.428 644.719C169.411 644.785 169.415 644.855 169.439 644.919C169.463 644.983 169.505 645.039 169.562 645.078C169.618 645.117 169.685 645.138 169.753 645.138L169.753 645.138Z" fill="#CCCCCC"/>
<path d="M143.945 647.384C143.942 644.096 142.634 640.944 140.309 638.621C137.984 636.297 134.831 634.992 131.543 634.992C128.256 634.992 125.103 636.297 122.777 638.621C120.452 640.944 119.144 644.096 119.142 647.384" fill="#F2F2F2"/>
<path d="M131.543 647.384C131.632 647.384 131.717 647.348 131.78 647.286C131.843 647.223 131.878 647.138 131.878 647.049V640.513C131.878 640.424 131.843 640.339 131.78 640.276C131.717 640.213 131.632 640.178 131.543 640.178C131.454 640.178 131.369 640.213 131.306 640.276C131.243 640.339 131.208 640.424 131.208 640.513V647.049C131.208 647.137 131.243 647.223 131.306 647.286C131.369 647.348 131.454 647.384 131.543 647.384V647.384Z" fill="#CCCCCC"/>
<path d="M131.543 645.138C131.623 645.138 131.701 645.109 131.761 645.057L135.783 641.605C135.817 641.576 135.845 641.541 135.866 641.502C135.886 641.463 135.898 641.42 135.902 641.376C135.905 641.331 135.9 641.287 135.886 641.245C135.873 641.203 135.851 641.164 135.822 641.13C135.793 641.097 135.758 641.069 135.718 641.049C135.679 641.029 135.636 641.017 135.591 641.014C135.547 641.011 135.503 641.017 135.461 641.031C135.419 641.045 135.38 641.067 135.347 641.096L131.325 644.548C131.273 644.593 131.236 644.652 131.219 644.719C131.201 644.785 131.205 644.855 131.229 644.919C131.253 644.983 131.295 645.039 131.352 645.078C131.408 645.117 131.475 645.138 131.543 645.138V645.138Z" fill="#CCCCCC"/>
</svg>
