<svg width="856" height="491" viewBox="0 0 856 491" fill="none" xmlns="http://www.w3.org/2000/svg">
<path d="M832.047 446.188C832.044 442.47 830.566 438.904 827.936 436.276C825.306 433.648 821.741 432.171 818.024 432.171C814.306 432.171 810.741 433.648 808.112 436.276C805.482 438.904 804.003 442.47 804 446.188" fill="#F2F2F2"/>
<path d="M818.024 446.188C818.124 446.188 818.221 446.148 818.292 446.077C818.363 446.006 818.403 445.91 818.403 445.809V438.416C818.403 438.316 818.363 438.219 818.292 438.148C818.221 438.077 818.124 438.037 818.024 438.037C817.923 438.037 817.827 438.077 817.756 438.148C817.685 438.219 817.645 438.316 817.645 438.416V445.809C817.645 445.91 817.685 446.006 817.756 446.077C817.827 446.148 817.923 446.188 818.024 446.188V446.188Z" fill="#CCCCCC"/>
<path d="M818.024 443.648C818.114 443.648 818.202 443.615 818.271 443.556L822.819 439.652C822.857 439.619 822.888 439.58 822.911 439.535C822.934 439.491 822.948 439.442 822.952 439.392C822.956 439.342 822.95 439.292 822.935 439.244C822.919 439.197 822.895 439.153 822.862 439.115C822.829 439.077 822.79 439.046 822.745 439.023C822.7 439.001 822.651 438.987 822.602 438.984C822.552 438.98 822.501 438.986 822.454 439.002C822.407 439.018 822.363 439.043 822.325 439.076L817.777 442.981C817.718 443.031 817.676 443.099 817.657 443.174C817.637 443.249 817.641 443.328 817.668 443.4C817.695 443.473 817.744 443.536 817.807 443.58C817.871 443.624 817.947 443.648 818.024 443.648L818.024 443.648Z" fill="#CCCCCC"/>
<path d="M788.84 446.188C788.837 442.47 787.359 438.904 784.729 436.276C782.099 433.648 778.534 432.171 774.817 432.171C771.099 432.171 767.534 433.648 764.905 436.276C762.275 438.904 760.796 442.47 760.794 446.188" fill="#F2F2F2"/>
<path d="M774.817 446.188C774.917 446.188 775.014 446.148 775.085 446.077C775.156 446.006 775.196 445.91 775.196 445.809V438.416C775.196 438.316 775.156 438.219 775.085 438.148C775.014 438.077 774.917 438.037 774.817 438.037C774.716 438.037 774.62 438.077 774.549 438.148C774.478 438.219 774.438 438.316 774.438 438.416V445.809C774.438 445.91 774.478 446.006 774.549 446.077C774.62 446.148 774.716 446.188 774.817 446.188V446.188Z" fill="#CCCCCC"/>
<path d="M774.817 443.648C774.908 443.648 774.995 443.615 775.064 443.556L779.612 439.652C779.65 439.619 779.682 439.58 779.705 439.535C779.728 439.491 779.741 439.442 779.746 439.392C779.75 439.342 779.744 439.292 779.728 439.244C779.713 439.197 779.688 439.153 779.655 439.115C779.623 439.077 779.583 439.045 779.538 439.023C779.493 439 779.445 438.987 779.395 438.983C779.345 438.98 779.295 438.986 779.247 439.002C779.2 439.018 779.156 439.043 779.118 439.076L774.57 442.981C774.511 443.031 774.469 443.099 774.45 443.174C774.43 443.249 774.435 443.328 774.461 443.4C774.488 443.473 774.537 443.536 774.6 443.58C774.664 443.624 774.74 443.648 774.817 443.648L774.817 443.648Z" fill="#CCCCCC"/>
<path d="M210.959 64.9363C196.07 64.9363 184 52.8623 184 37.9682C184 23.0741 196.07 11 210.959 11C225.849 11 237.919 23.0741 237.919 37.9682C237.919 52.8623 225.849 64.9363 210.959 64.9363Z" fill="#F2F2F2"/>
<path d="M767.119 476.29C753.584 476.29 742.611 473.729 742.611 470.57C742.611 467.41 753.584 464.849 767.119 464.849C780.655 464.849 791.628 467.41 791.628 470.57C791.628 473.729 780.655 476.29 767.119 476.29Z" fill="#F2F2F2"/>
<path d="M779.089 135.317C771.382 111.22 752.564 92.5313 730.246 81.416C703.767 68.2278 673.339 66.7345 644.588 71.8674C613.551 77.4084 584.543 90.1819 556.465 104.121C528.924 117.794 501.827 132.232 473.185 143.531C416.004 166.056 355.398 178.627 293.986 180.7C238.71 182.546 179.61 176.482 132.282 145.372C88.916 116.868 61.3212 69.8429 46.949 20.8249C45.109 14.5494 43.4733 8.22004 42.0419 1.83668C41.6243 -0.00720574 44.4567 -0.794475 44.8755 1.05445C56.4689 52.2417 81.1905 102.832 123.431 135.462C169.116 170.752 229.076 178.91 285.186 177.977C347.269 176.891 408.693 165.022 466.722 142.898C496.1 131.699 523.824 117.156 551.901 103.116C579.361 89.3844 607.592 76.5304 637.788 70.1973C665.361 64.4144 694.882 64.062 721.466 74.3525C743.356 82.826 763.316 97.9295 774.996 118.59C777.844 123.654 780.165 128.997 781.923 134.535C782.501 136.343 779.665 137.117 779.089 135.317Z" fill="#F2F2F2"/>
<path d="M429.727 423.473C429.511 423.473 429.303 423.387 429.149 423.234C428.996 423.081 428.91 422.873 428.91 422.656C428.91 422.439 428.996 422.232 429.149 422.078C429.303 421.925 429.511 421.839 429.727 421.839H437.488V418.57H429.727C429.511 418.57 429.303 418.484 429.149 418.331C428.996 418.178 428.91 417.97 428.91 417.753C428.91 417.536 428.996 417.328 429.149 417.175C429.303 417.022 429.511 416.936 429.727 416.936H495.9C496.117 416.936 496.325 417.022 496.478 417.175C496.631 417.328 496.717 417.536 496.717 417.753C496.717 417.97 496.631 418.178 496.478 418.331C496.325 418.484 496.117 418.57 495.9 418.57H488.139V421.839H495.9C496.117 421.839 496.325 421.925 496.478 422.078C496.631 422.232 496.717 422.439 496.717 422.656C496.717 422.873 496.631 423.081 496.478 423.234C496.325 423.387 496.117 423.473 495.9 423.473H488.139V426.742H495.9C496.117 426.742 496.325 426.828 496.478 426.982C496.631 427.135 496.717 427.343 496.717 427.56C496.717 427.776 496.631 427.984 496.478 428.137C496.325 428.291 496.117 428.377 495.9 428.377H488.139V431.646H495.083C495.517 431.646 495.932 431.818 496.239 432.124C496.545 432.431 496.717 432.847 496.717 433.28C496.717 433.714 496.545 434.129 496.239 434.436C495.932 434.742 495.517 434.914 495.083 434.914H488.473C488.521 435.045 488.546 435.184 488.548 435.323V446.764C488.548 447.089 488.419 447.401 488.189 447.631C487.959 447.861 487.647 447.99 487.322 447.99C486.997 447.99 486.686 447.861 486.456 447.631C486.226 447.401 486.097 447.089 486.097 446.764V435.323C486.098 435.184 486.124 435.045 486.172 434.914H439.456C439.504 435.045 439.529 435.184 439.531 435.323V446.764C439.531 447.089 439.401 447.401 439.172 447.631C438.942 447.861 438.63 447.99 438.305 447.99C437.98 447.99 437.668 447.861 437.439 447.631C437.209 447.401 437.08 447.089 437.08 446.764V435.323C437.081 435.184 437.106 435.045 437.155 434.914H430.544C430.111 434.914 429.695 434.742 429.389 434.436C429.082 434.129 428.91 433.714 428.91 433.28C428.91 432.847 429.082 432.431 429.389 432.124C429.695 431.818 430.111 431.646 430.544 431.646H437.488V428.377H429.727C429.511 428.377 429.303 428.291 429.149 428.137C428.996 427.984 428.91 427.776 428.91 427.56C428.91 427.343 428.996 427.135 429.149 426.982C429.303 426.828 429.511 426.742 429.727 426.742H437.488V423.473H429.727ZM486.505 418.57H439.122V421.839H486.505V418.57ZM439.122 431.646H486.505V428.377H439.122V431.646ZM439.122 426.742H486.505V423.473H439.122V426.742Z" fill="#3F3D56"/>
<path d="M678.888 389.174C678.888 374.74 690.593 340.492 705.031 340.492C719.469 340.492 731.173 374.74 731.173 389.174C731.173 396.109 728.419 402.761 723.516 407.665C718.614 412.569 711.964 415.324 705.031 415.324C698.097 415.324 691.448 412.569 686.545 407.665C681.643 402.761 678.888 396.109 678.888 389.174H678.888Z" fill="#E6E6E6"/>
<path d="M685.424 389.174C685.424 374.74 697.128 340.492 711.566 340.492C726.005 340.492 737.709 374.74 737.709 389.174C737.709 396.109 734.955 402.761 730.052 407.665C725.149 412.569 718.5 415.324 711.566 415.324C704.633 415.324 697.984 412.569 693.081 407.665C688.178 402.761 685.424 396.109 685.424 389.174H685.424Z" fill="#F2F2F2"/>
<path d="M710.75 447.646C710.966 447.646 711.174 447.56 711.327 447.406C711.48 447.253 711.566 447.045 711.566 446.829V373.981C711.566 373.765 711.48 373.557 711.327 373.403C711.174 373.25 710.966 373.164 710.75 373.164C710.533 373.164 710.325 373.25 710.172 373.403C710.019 373.557 709.933 373.765 709.933 373.981V446.829C709.933 447.045 710.019 447.253 710.172 447.406C710.325 447.56 710.533 447.646 710.75 447.646Z" fill="#CCCCCC"/>
<path d="M710.75 385.924C710.911 385.924 711.069 385.876 711.203 385.786C711.338 385.696 711.442 385.568 711.504 385.419C711.566 385.27 711.582 385.105 711.551 384.947C711.519 384.788 711.441 384.643 711.327 384.529L700.643 373.841C700.49 373.688 700.282 373.602 700.066 373.602C699.849 373.602 699.641 373.688 699.488 373.841C699.335 373.994 699.249 374.202 699.249 374.419C699.249 374.635 699.335 374.843 699.488 374.997L710.172 385.684C710.248 385.76 710.338 385.82 710.437 385.862C710.536 385.903 710.642 385.924 710.75 385.924V385.924Z" fill="#CCCCCC"/>
<path d="M410.111 447.646C410.327 447.646 410.535 447.56 410.688 447.406C410.842 447.253 410.928 447.045 410.928 446.829V373.981C410.928 373.765 410.842 373.557 410.688 373.403C410.535 373.25 410.327 373.164 410.111 373.164C409.894 373.164 409.686 373.25 409.533 373.403C409.38 373.557 409.294 373.765 409.294 373.981V446.829C409.294 447.045 409.38 447.253 409.533 447.406C409.686 447.56 409.894 447.646 410.111 447.646Z" fill="#3F3D56"/>
<path d="M322.697 389.174C322.697 374.74 334.401 340.492 348.839 340.492C363.277 340.492 374.982 374.74 374.982 389.174C374.982 396.109 372.227 402.761 367.325 407.665C362.422 412.569 355.773 415.324 348.839 415.324C341.906 415.324 335.256 412.569 330.354 407.665C325.451 402.761 322.697 396.109 322.697 389.174H322.697Z" fill="#E6E6E6"/>
<path d="M329.232 389.174C329.232 374.74 340.937 340.492 355.375 340.492C369.813 340.492 381.517 374.74 381.517 389.174C381.517 396.109 378.763 402.761 373.86 407.665C368.958 412.569 362.308 415.324 355.375 415.324C348.441 415.324 341.792 412.569 336.889 407.665C331.986 402.761 329.232 396.109 329.232 389.174H329.232Z" fill="#F2F2F2"/>
<path d="M354.558 447.646C354.774 447.646 354.982 447.56 355.135 447.406C355.289 447.253 355.375 447.045 355.375 446.829V373.981C355.375 373.765 355.289 373.557 355.135 373.403C354.982 373.25 354.774 373.164 354.558 373.164C354.341 373.164 354.133 373.25 353.98 373.403C353.827 373.557 353.741 373.765 353.741 373.981V446.829C353.741 447.045 353.827 447.253 353.98 447.406C354.133 447.56 354.341 447.646 354.558 447.646Z" fill="#CCCCCC"/>
<path d="M354.558 385.924C354.719 385.924 354.877 385.876 355.012 385.786C355.146 385.696 355.251 385.568 355.312 385.419C355.374 385.27 355.39 385.105 355.359 384.947C355.327 384.788 355.25 384.643 355.135 384.529L344.452 373.841C344.298 373.688 344.091 373.602 343.874 373.602C343.657 373.602 343.45 373.688 343.296 373.841C343.143 373.994 343.057 374.202 343.057 374.419C343.057 374.635 343.143 374.843 343.296 374.997L353.98 385.684C354.056 385.76 354.146 385.82 354.245 385.862C354.344 385.903 354.451 385.924 354.558 385.924Z" fill="#CCCCCC"/>
<path d="M623.676 45.592H636.748C637.722 45.5909 638.657 45.2031 639.346 44.5137C640.035 43.8242 640.423 42.8895 640.424 41.9145V11.6775C640.423 10.7025 640.035 9.76773 639.346 9.07831C638.657 8.38888 637.722 8.00108 636.748 8H623.676C622.702 8.00108 621.767 8.38888 621.078 9.07831C620.389 9.76773 620.001 10.7025 620 11.6775V41.9145C620.001 42.8895 620.389 43.8242 621.078 44.5137C621.767 45.2031 622.702 45.5909 623.676 45.592V45.592Z" fill="#E6E6E6"/>
<path d="M635.931 45.592H649.002C649.976 45.5909 650.911 45.2031 651.6 44.5137C652.289 43.8242 652.677 42.8895 652.678 41.9145V11.6775C652.677 10.7025 652.289 9.76773 651.6 9.07831C650.911 8.38888 649.976 8.00108 649.002 8H635.931C634.956 8.00108 634.021 8.38888 633.332 9.07831C632.643 9.76773 632.255 10.7025 632.254 11.6775V41.9145C632.255 42.8895 632.643 43.8242 633.332 44.5137C634.021 45.2031 634.956 45.5909 635.931 45.592V45.592Z" fill="#F2F2F2"/>
<path d="M572.955 447H640.045C641.889 446.997 643.657 445.954 644.961 444.099C646.265 442.245 646.998 439.73 647 437.108V51.8922C646.998 49.2696 646.265 46.7552 644.961 44.9006C643.657 43.0461 641.889 42.003 640.045 42H572.955C571.111 42.0029 569.343 43.0461 568.039 44.9006C566.735 46.7551 566.002 49.2696 566 51.8922V437.108C566.002 439.73 566.735 442.245 568.039 444.099C569.343 445.954 571.111 446.997 572.955 447V447Z" fill="#E6E6E6"/>
<path d="M612.955 447H680.045C681.889 446.997 683.657 445.954 684.961 444.099C686.265 442.245 686.998 439.73 687 437.108V51.8922C686.998 49.2696 686.265 46.7552 684.961 44.9006C683.657 43.0461 681.889 42.003 680.045 42H612.955C611.111 42.003 609.343 43.0461 608.039 44.9006C606.735 46.7552 606.002 49.2696 606 51.8922V437.108C606.002 439.73 606.735 442.245 608.039 444.099C609.343 445.954 611.111 446.997 612.955 447V447Z" fill="#F2F2F2"/>
<path d="M653.563 224.179H669.085C669.626 224.178 670.145 223.963 670.528 223.58C670.911 223.197 671.127 222.677 671.127 222.136V198.436C671.127 197.895 670.911 197.375 670.528 196.992C670.145 196.609 669.626 196.394 669.085 196.393H653.563C653.021 196.394 652.502 196.609 652.119 196.992C651.736 197.375 651.521 197.895 651.52 198.436V222.136C651.521 222.677 651.736 223.197 652.119 223.58C652.502 223.963 653.021 224.178 653.563 224.179V224.179Z" fill="white"/>
<path d="M653.27 180.785H668.792C669.333 180.785 669.852 180.569 670.235 180.186C670.618 179.803 670.833 179.284 670.834 178.742V155.043C670.833 154.501 670.618 153.982 670.235 153.599C669.852 153.216 669.333 153.001 668.792 153H653.27C652.728 153.001 652.209 153.216 651.826 153.599C651.443 153.982 651.228 154.501 651.227 155.043V178.742C651.228 179.284 651.443 179.803 651.826 180.186C652.209 180.569 652.728 180.785 653.27 180.785V180.785Z" fill="white"/>
<path d="M653.27 136.785H668.792C669.333 136.785 669.852 136.569 670.235 136.186C670.618 135.803 670.833 135.284 670.834 134.742V111.043C670.833 110.501 670.618 109.982 670.235 109.599C669.852 109.216 669.333 109.001 668.792 109H653.27C652.728 109.001 652.209 109.216 651.826 109.599C651.443 109.982 651.228 110.501 651.227 111.043V134.742C651.228 135.284 651.443 135.803 651.826 136.186C652.209 136.569 652.728 136.785 653.27 136.785V136.785Z" fill="white"/>
<path d="M653.27 92.7854H668.792C669.333 92.7848 669.852 92.5693 670.235 92.1863C670.618 91.8033 670.833 91.284 670.834 90.7423V67.043C670.833 66.5014 670.618 65.9821 670.235 65.5991C669.852 65.2161 669.333 65.0006 668.792 65H653.27C652.728 65.0006 652.209 65.2161 651.826 65.5991C651.443 65.9821 651.228 66.5014 651.227 67.043V90.7423C651.228 91.284 651.443 91.8033 651.826 92.1863C652.209 92.5693 652.728 92.7848 653.27 92.7854V92.7854Z" fill="white"/>
<path d="M623.336 224.179H638.858C639.399 224.178 639.918 223.963 640.301 223.58C640.684 223.197 640.899 222.677 640.9 222.136V198.436C640.899 197.895 640.684 197.375 640.301 196.992C639.918 196.609 639.399 196.394 638.858 196.393H623.336C622.794 196.394 622.275 196.609 621.892 196.992C621.509 197.375 621.294 197.895 621.293 198.436V222.136C621.294 222.677 621.509 223.197 621.892 223.58C622.275 223.963 622.794 224.178 623.336 224.179V224.179Z" fill="white"/>
<path d="M623.042 180.785H638.564C639.106 180.785 639.625 180.569 640.008 180.186C640.391 179.803 640.606 179.284 640.607 178.742V155.043C640.606 154.501 640.391 153.982 640.008 153.599C639.625 153.216 639.106 153.001 638.564 153H623.042C622.501 153.001 621.982 153.216 621.599 153.599C621.216 153.982 621.001 154.501 621 155.043V178.742C621.001 179.284 621.216 179.803 621.599 180.186C621.982 180.569 622.501 180.785 623.042 180.785V180.785Z" fill="white"/>
<path d="M623.042 136.785H638.564C639.106 136.785 639.625 136.569 640.008 136.186C640.391 135.803 640.606 135.284 640.607 134.742V111.043C640.606 110.501 640.391 109.982 640.008 109.599C639.625 109.216 639.106 109.001 638.564 109H623.042C622.501 109.001 621.982 109.216 621.599 109.599C621.216 109.982 621.001 110.501 621 111.043V134.742C621.001 135.284 621.216 135.803 621.599 136.186C621.982 136.569 622.501 136.785 623.042 136.785V136.785Z" fill="white"/>
<path d="M623.042 92.7854H638.564C639.106 92.7848 639.625 92.5693 640.008 92.1863C640.391 91.8033 640.606 91.284 640.607 90.7423V67.043C640.606 66.5014 640.391 65.9821 640.008 65.5991C639.625 65.2161 639.106 65.0006 638.564 65H623.042C622.501 65.0006 621.982 65.2161 621.599 65.5991C621.216 65.9821 621.001 66.5014 621 67.043V90.7423C621.001 91.284 621.216 91.8033 621.599 92.1863C621.982 92.5693 622.501 92.7848 623.042 92.7854V92.7854Z" fill="white"/>
<path d="M653.563 267.491H669.085C669.626 267.491 670.145 267.275 670.528 266.892C670.911 266.509 671.127 265.99 671.127 265.448V241.749C671.127 241.207 670.911 240.688 670.528 240.305C670.145 239.922 669.626 239.706 669.085 239.706H653.563C653.021 239.706 652.502 239.922 652.119 240.305C651.736 240.688 651.521 241.207 651.52 241.749V265.448C651.521 265.99 651.736 266.509 652.119 266.892C652.502 267.275 653.021 267.491 653.563 267.491V267.491Z" fill="white"/>
<path d="M623.336 267.491H638.858C639.399 267.491 639.918 267.275 640.301 266.892C640.684 266.509 640.899 265.99 640.9 265.448V241.749C640.899 241.207 640.684 240.688 640.301 240.305C639.918 239.922 639.399 239.706 638.858 239.706H623.336C622.794 239.706 622.275 239.922 621.892 240.305C621.509 240.688 621.294 241.207 621.293 241.749V265.448C621.294 265.99 621.509 266.509 621.892 266.892C622.275 267.275 622.794 267.491 623.336 267.491V267.491Z" fill="white"/>
<path d="M653.563 310.804H669.085C669.626 310.803 670.145 310.588 670.528 310.205C670.911 309.822 671.127 309.302 671.127 308.761V285.061C671.127 284.52 670.911 284 670.528 283.617C670.145 283.234 669.626 283.019 669.085 283.018H653.563C653.021 283.019 652.502 283.234 652.119 283.617C651.736 284 651.521 284.52 651.52 285.061V308.761C651.521 309.302 651.736 309.822 652.119 310.205C652.502 310.588 653.021 310.803 653.563 310.804V310.804Z" fill="white"/>
<path d="M623.336 310.804H638.858C639.399 310.803 639.918 310.588 640.301 310.205C640.684 309.822 640.899 309.302 640.9 308.761V285.061C640.899 284.52 640.684 284 640.301 283.617C639.918 283.234 639.399 283.019 638.858 283.018H623.336C622.794 283.019 622.275 283.234 621.892 283.617C621.509 284 621.294 284.52 621.293 285.061V308.761C621.294 309.302 621.509 309.822 621.892 310.205C622.275 310.588 622.794 310.803 623.336 310.804V310.804Z" fill="white"/>
<path d="M653.563 354.116H669.085C669.626 354.116 670.145 353.9 670.528 353.517C670.911 353.134 671.127 352.615 671.127 352.073V328.374C671.127 327.832 670.911 327.313 670.528 326.93C670.145 326.547 669.626 326.331 669.085 326.331H653.563C653.021 326.331 652.502 326.547 652.119 326.93C651.736 327.313 651.521 327.832 651.52 328.374V352.073C651.521 352.615 651.736 353.134 652.119 353.517C652.502 353.9 653.021 354.116 653.563 354.116V354.116Z" fill="white"/>
<path d="M623.336 354.116H638.858C639.399 354.116 639.918 353.9 640.301 353.517C640.684 353.134 640.899 352.615 640.9 352.073V328.374C640.899 327.832 640.684 327.313 640.301 326.93C639.918 326.547 639.399 326.331 638.858 326.331H623.336C622.794 326.331 622.275 326.547 621.892 326.93C621.509 327.313 621.294 327.832 621.293 328.374V352.073C621.294 352.615 621.509 353.134 621.892 353.517C622.275 353.9 622.794 354.116 623.336 354.116V354.116Z" fill="white"/>
<path d="M653.563 397.429H669.085C669.626 397.428 670.145 397.213 670.528 396.83C670.911 396.447 671.127 395.927 671.127 395.386V371.686C671.127 371.145 670.911 370.625 670.528 370.242C670.145 369.859 669.626 369.644 669.085 369.643H653.563C653.021 369.644 652.502 369.859 652.119 370.242C651.736 370.625 651.521 371.145 651.52 371.686V395.386C651.521 395.927 651.736 396.447 652.119 396.83C652.502 397.213 653.021 397.428 653.563 397.429V397.429Z" fill="white"/>
<path d="M623.336 397.429H638.858C639.399 397.428 639.918 397.213 640.301 396.83C640.684 396.447 640.899 395.927 640.9 395.386V371.686C640.899 371.145 640.684 370.625 640.301 370.242C639.918 369.859 639.399 369.644 638.858 369.643H623.336C622.794 369.644 622.275 369.859 621.892 370.242C621.509 370.625 621.294 371.145 621.293 371.686V395.386C621.294 395.927 621.509 396.447 621.892 396.83C622.275 397.213 622.794 397.428 623.336 397.429V397.429Z" fill="white"/>
<path d="M286.751 308.352H299.822C300.797 308.351 301.731 307.963 302.42 307.274C303.109 306.584 303.497 305.65 303.498 304.675V287.513C303.497 286.538 303.109 285.603 302.42 284.914C301.731 284.224 300.797 283.837 299.822 283.836H286.751C285.776 283.837 284.842 284.224 284.152 284.914C283.463 285.603 283.075 286.538 283.074 287.513V304.675C283.075 305.65 283.463 306.584 284.152 307.274C284.842 307.963 285.776 308.351 286.751 308.352Z" fill="#E6E6E6"/>
<path d="M176.462 448.096H243.452C245.293 448.094 247.058 447.362 248.36 446.059C249.662 444.757 250.394 442.991 250.396 441.15V311.212C250.394 309.371 249.662 307.605 248.36 306.303C247.058 305.001 245.293 304.268 243.452 304.266H176.462C174.621 304.268 172.856 305.001 171.554 306.303C170.252 307.605 169.52 309.371 169.518 311.212V441.15C169.52 442.991 170.252 444.757 171.554 446.059C172.856 447.362 174.621 448.094 176.462 448.096V448.096Z" fill="#E6E6E6"/>
<path d="M216.493 448.096H332.5C334.341 448.094 336.106 447.362 337.408 446.059C338.71 444.757 339.442 442.991 339.444 441.15V311.212C339.442 309.371 338.71 307.605 337.408 306.303C336.106 305.001 334.341 304.268 332.5 304.266H216.493C214.652 304.268 212.887 305.001 211.585 306.303C210.283 307.605 209.551 309.371 209.549 311.212V441.15C209.551 442.991 210.283 444.757 211.585 446.059C212.887 447.362 214.652 448.094 216.493 448.096V448.096Z" fill="#F2F2F2"/>
<path d="M299.005 308.352H312.076C313.051 308.351 313.985 307.963 314.675 307.274C315.364 306.584 315.751 305.65 315.753 304.675V287.513C315.751 286.538 315.364 285.603 314.675 284.914C313.985 284.224 313.051 283.837 312.076 283.836H299.005C298.03 283.837 297.096 284.224 296.407 284.914C295.717 285.603 295.33 286.538 295.329 287.513V304.675C295.33 305.65 295.717 306.584 296.407 307.274C297.096 307.963 298.03 308.351 299.005 308.352V308.352Z" fill="#F2F2F2"/>
<path d="M281.849 368.417H297.371C297.913 368.417 298.432 368.201 298.815 367.818C299.197 367.435 299.413 366.916 299.413 366.374V342.675C299.413 342.133 299.197 341.614 298.815 341.231C298.432 340.848 297.913 340.633 297.371 340.632H281.849C281.307 340.633 280.788 340.848 280.405 341.231C280.023 341.614 279.807 342.133 279.807 342.675V366.374C279.807 366.916 280.023 367.435 280.405 367.818C280.788 368.201 281.307 368.417 281.849 368.417V368.417Z" fill="white"/>
<path d="M251.622 368.417H267.144C267.685 368.417 268.204 368.201 268.587 367.818C268.97 367.435 269.186 366.916 269.186 366.374V342.675C269.186 342.133 268.97 341.614 268.587 341.231C268.204 340.848 267.685 340.633 267.144 340.632H251.622C251.08 340.633 250.561 340.848 250.178 341.231C249.795 341.614 249.58 342.133 249.579 342.675V366.374C249.58 366.916 249.795 367.435 250.178 367.818C250.561 368.201 251.08 368.417 251.622 368.417V368.417Z" fill="white"/>
<path d="M281.849 411.73H297.371C297.913 411.729 298.432 411.514 298.815 411.131C299.197 410.748 299.413 410.229 299.413 409.687V385.988C299.413 385.446 299.197 384.927 298.815 384.544C298.432 384.161 297.913 383.945 297.371 383.945H281.849C281.307 383.945 280.788 384.161 280.405 384.544C280.023 384.927 279.807 385.446 279.807 385.988V409.687C279.807 410.229 280.023 410.748 280.405 411.131C280.788 411.514 281.307 411.729 281.849 411.73V411.73Z" fill="white"/>
<path d="M251.622 411.73H267.144C267.685 411.729 268.204 411.514 268.587 411.131C268.97 410.748 269.186 410.229 269.186 409.687V385.988C269.186 385.446 268.97 384.927 268.587 384.544C268.204 384.161 267.685 383.945 267.144 383.945H251.622C251.08 383.945 250.561 384.161 250.178 384.544C249.795 384.927 249.58 385.446 249.579 385.988V409.687C249.58 410.229 249.795 410.748 250.178 411.131C250.561 411.514 251.08 411.729 251.622 411.73Z" fill="white"/>
<path d="M0.817046 448.505H855.183C855.4 448.505 855.608 448.419 855.761 448.265C855.914 448.112 856 447.904 856 447.688C856 447.471 855.914 447.263 855.761 447.11C855.608 446.956 855.4 446.87 855.183 446.87H0.817046C0.600376 446.87 0.392543 446.956 0.239335 447.11C0.0861262 447.263 9.2541e-05 447.471 9.2541e-05 447.688C9.2541e-05 447.904 0.0861262 448.112 0.239335 448.265C0.392543 448.419 0.600376 448.505 0.817046 448.505Z" fill="#E6E6E6"/>
<path d="M559.613 477.107H635.59C635.806 477.107 636.014 477.021 636.167 476.868C636.321 476.715 636.407 476.507 636.407 476.29C636.407 476.073 636.321 475.866 636.167 475.712C636.014 475.559 635.806 475.473 635.59 475.473H559.613C559.396 475.473 559.189 475.559 559.035 475.712C558.882 475.866 558.796 476.073 558.796 476.29C558.796 476.507 558.882 476.715 559.035 476.868C559.189 477.021 559.396 477.107 559.613 477.107Z" fill="#E6E6E6"/>
<path d="M370.897 477.107H446.874C447.09 477.107 447.298 477.021 447.451 476.868C447.604 476.715 447.69 476.507 447.69 476.29C447.69 476.073 447.604 475.866 447.451 475.712C447.298 475.559 447.09 475.473 446.874 475.473H370.897C370.68 475.473 370.472 475.559 370.319 475.712C370.166 475.866 370.08 476.073 370.08 476.29C370.08 476.507 370.166 476.715 370.319 476.868C370.472 477.021 370.68 477.107 370.897 477.107Z" fill="#E6E6E6"/>
<path d="M182.181 477.107H258.157C258.374 477.107 258.582 477.021 258.735 476.868C258.888 476.715 258.974 476.507 258.974 476.29C258.974 476.073 258.888 475.866 258.735 475.712C258.582 475.559 258.374 475.473 258.157 475.473H182.181C181.964 475.473 181.756 475.559 181.603 475.712C181.45 475.866 181.364 476.073 181.364 476.29C181.364 476.507 181.45 476.715 181.603 476.868C181.756 477.021 181.964 477.107 182.181 477.107Z" fill="#E6E6E6"/>
<path d="M516.315 389.174C516.315 374.74 528.019 340.492 542.457 340.492C556.895 340.492 568.6 374.74 568.6 389.174C568.6 396.109 565.845 402.761 560.943 407.665C556.04 412.569 549.39 415.324 542.457 415.324C535.524 415.324 528.874 412.569 523.971 407.665C519.069 402.761 516.315 396.109 516.315 389.174H516.315Z" fill="#E6E6E6"/>
<path d="M522.85 389.174C522.85 374.74 534.555 340.492 548.993 340.492C563.431 340.492 575.135 374.74 575.135 389.174C575.135 396.109 572.381 402.761 567.478 407.665C562.576 412.569 555.926 415.324 548.993 415.324C542.059 415.324 535.41 412.569 530.507 407.665C525.604 402.761 522.85 396.109 522.85 389.174H522.85Z" fill="#F2F2F2"/>
<path d="M548.176 447.646C548.392 447.646 548.6 447.56 548.753 447.406C548.907 447.253 548.993 447.045 548.993 446.829V373.981C548.993 373.765 548.907 373.557 548.753 373.403C548.6 373.25 548.392 373.164 548.176 373.164C547.959 373.164 547.751 373.25 547.598 373.403C547.445 373.557 547.359 373.765 547.359 373.981V446.829C547.359 447.045 547.445 447.253 547.598 447.406C547.751 447.56 547.959 447.646 548.176 447.646Z" fill="#CCCCCC"/>
<path d="M548.176 385.924C548.337 385.924 548.495 385.876 548.63 385.786C548.764 385.696 548.869 385.568 548.93 385.419C548.992 385.27 549.008 385.105 548.977 384.947C548.945 384.788 548.868 384.643 548.753 384.529L538.07 373.841C537.916 373.688 537.709 373.602 537.492 373.602C537.275 373.602 537.068 373.688 536.914 373.841C536.761 373.994 536.675 374.202 536.675 374.419C536.675 374.635 536.761 374.843 536.914 374.997L547.598 385.684C547.674 385.76 547.764 385.82 547.863 385.862C547.962 385.903 548.068 385.924 548.176 385.924Z" fill="#CCCCCC"/>
<path d="M98.8514 389.174C98.8514 374.74 110.556 340.492 124.994 340.492C139.432 340.492 151.136 374.74 151.136 389.174C151.136 396.109 148.382 402.761 143.479 407.665C138.577 412.569 131.927 415.324 124.994 415.324C118.06 415.324 111.411 412.569 106.508 407.665C101.606 402.761 98.8513 396.109 98.8513 389.174H98.8514Z" fill="#E6E6E6"/>
<path d="M105.387 389.174C105.387 374.74 117.091 340.492 131.529 340.492C145.968 340.492 157.672 374.74 157.672 389.174C157.672 396.109 154.918 402.761 150.015 407.665C145.112 412.569 138.463 415.324 131.529 415.324C124.596 415.324 117.947 412.569 113.044 407.665C108.141 402.761 105.387 396.109 105.387 389.174H105.387Z" fill="#F2F2F2"/>
<path d="M130.713 447.646C130.929 447.646 131.137 447.56 131.29 447.406C131.443 447.253 131.529 447.045 131.529 446.829V373.981C131.529 373.765 131.443 373.557 131.29 373.403C131.137 373.25 130.929 373.164 130.713 373.164C130.496 373.164 130.288 373.25 130.135 373.403C129.982 373.557 129.896 373.765 129.896 373.981V446.829C129.896 447.045 129.982 447.253 130.135 447.406C130.288 447.56 130.496 447.646 130.713 447.646Z" fill="#CCCCCC"/>
<path d="M130.713 385.924C130.874 385.924 131.032 385.876 131.166 385.786C131.301 385.696 131.405 385.568 131.467 385.419C131.529 385.27 131.545 385.105 131.514 384.947C131.482 384.788 131.404 384.643 131.29 384.529L120.606 373.841C120.453 373.688 120.245 373.602 120.029 373.602C119.812 373.602 119.604 373.688 119.451 373.841C119.298 373.994 119.212 374.202 119.212 374.419C119.212 374.635 119.298 374.843 119.451 374.997L130.135 385.684C130.211 385.76 130.301 385.82 130.4 385.862C130.499 385.903 130.605 385.924 130.713 385.924V385.924Z" fill="#CCCCCC"/>
<path d="M401.124 398.246H419.097C419.639 398.245 420.158 398.03 420.541 397.647C420.924 397.264 421.139 396.745 421.14 396.203V378.224C421.139 377.682 420.924 377.163 420.541 376.78C420.158 376.397 419.639 376.182 419.097 376.181H401.124C400.583 376.182 400.064 376.397 399.681 376.78C399.298 377.163 399.082 377.682 399.082 378.224V396.203C399.082 396.745 399.298 397.264 399.681 397.647C400.064 398.03 400.583 398.245 401.124 398.246Z" fill="#3F3D56"/>
<path d="M226.651 407.001C226.455 407.053 226.272 407.147 226.116 407.276C225.96 407.406 225.834 407.569 225.747 407.752C225.661 407.936 225.616 408.137 225.615 408.34C225.614 408.543 225.658 408.744 225.743 408.928L222.191 412.355L224.693 412.916L227.683 409.576C227.983 409.412 228.213 409.144 228.328 408.822C228.444 408.5 228.437 408.147 228.31 407.83C228.183 407.512 227.944 407.253 227.638 407.1C227.332 406.947 226.981 406.912 226.651 407.001H226.651Z" fill="#FFB8B8"/>
<path d="M221.656 416.016L226.038 411.903C226.098 411.846 226.147 411.778 226.181 411.702C226.214 411.626 226.232 411.545 226.234 411.462C226.236 411.379 226.22 411.296 226.19 411.219C226.159 411.142 226.113 411.072 226.055 411.013L225.16 410.107C225.054 409.999 224.912 409.934 224.761 409.924C224.61 409.913 224.461 409.958 224.341 410.049L220.668 412.857L218.377 407.299C218.287 407.079 218.152 406.881 217.982 406.716C217.812 406.55 217.61 406.422 217.388 406.338C217.166 406.254 216.93 406.216 216.693 406.227C216.456 406.238 216.224 406.298 216.011 406.402V406.402C215.675 406.565 215.401 406.832 215.23 407.163C215.059 407.495 215 407.873 215.062 408.24C215.478 410.769 217.997 414.111 219.461 415.878C219.661 416.119 219.931 416.292 220.233 416.373C220.535 416.454 220.855 416.44 221.149 416.331C221.337 416.261 221.509 416.154 221.656 416.016V416.016Z" fill="#07BF9D"/>
<path d="M224.115 412.026L227.341 407.345C227.382 407.285 227.398 407.211 227.385 407.139C227.372 407.067 227.33 407.003 227.27 406.961L227.141 406.872C227.111 406.851 227.077 406.837 227.042 406.829C227.006 406.821 226.97 406.821 226.934 406.827C226.898 406.834 226.864 406.847 226.834 406.867C226.803 406.887 226.777 406.912 226.757 406.942L223.53 411.623C223.51 411.653 223.495 411.687 223.488 411.722C223.48 411.758 223.48 411.794 223.486 411.83C223.493 411.866 223.506 411.9 223.526 411.93C223.546 411.961 223.571 411.987 223.601 412.008L223.731 412.097C223.791 412.138 223.865 412.154 223.937 412.141C224.009 412.128 224.073 412.087 224.115 412.026V412.026Z" fill="white"/>
<path d="M225.017 412.061L227.694 408.176C227.808 408.01 227.852 407.806 227.815 407.608C227.779 407.409 227.666 407.234 227.5 407.119L227.227 406.931L223.687 412.067L223.96 412.255C224.126 412.369 224.33 412.413 224.529 412.377C224.727 412.34 224.902 412.227 225.017 412.061V412.061Z" fill="#3F3D56"/>
<path d="M224.693 445.591L226.375 445.398L226.152 438.848L223.944 439.103L224.693 445.591Z" fill="#FFB8B8"/>
<path d="M224.452 447.272L229.875 446.646L229.867 446.577C229.835 446.3 229.749 446.032 229.613 445.788C229.478 445.544 229.295 445.329 229.077 445.156C228.858 444.982 228.607 444.854 228.339 444.777C228.071 444.7 227.79 444.678 227.513 444.71H227.513L224.2 445.092L224.452 447.272Z" fill="#2F2E41"/>
<path d="M205.136 444.348L206.753 444.848L209.45 438.844L207.063 438.107L205.136 444.348Z" fill="#FFB8B8"/>
<path d="M204.238 445.789L209.454 447.401L209.475 447.335C209.557 447.068 209.586 446.788 209.56 446.51C209.534 446.232 209.454 445.962 209.323 445.715C209.193 445.468 209.016 445.249 208.801 445.071C208.586 444.893 208.338 444.759 208.072 444.676H208.071L204.886 443.692L204.238 445.789Z" fill="#2F2E41"/>
<path d="M226.57 444.082C226.741 444.029 226.885 443.912 226.971 443.755C227.057 443.598 227.078 443.414 227.031 443.241L226.017 431.567C225.97 431.035 225.803 430.52 225.528 430.062L219.391 419.874L213.899 420.861L213.864 420.876C211.195 422.511 208.825 430.44 206.534 438.107C206.177 439.3 205.809 440.533 205.449 441.711C205.382 441.879 205.384 442.067 205.453 442.234C205.523 442.401 205.655 442.535 205.822 442.606L207.484 443.306C207.642 443.373 207.819 443.379 207.98 443.322C208.142 443.266 208.277 443.151 208.358 443L216.906 427.346C216.917 427.326 216.932 427.309 216.951 427.297C216.969 427.284 216.991 427.277 217.013 427.274C217.035 427.271 217.057 427.274 217.078 427.282C217.098 427.29 217.117 427.303 217.131 427.32L222.092 432.936L223.915 443.637L223.923 443.661C223.988 443.814 224.107 443.938 224.257 444.01C224.407 444.082 224.578 444.098 224.739 444.054L226.527 444.088L226.538 444.088L226.57 444.082Z" fill="#2F2E41"/>
<path d="M219.688 420.99L219.723 420.979L219.733 420.944C219.759 420.859 222.269 412.362 220.007 406.946L220.004 406.941C219.938 406.812 218.36 403.779 216.527 403.476L216.478 403.468L215.882 404.582C215.695 404.77 212.47 408.12 213.934 413.879C213.802 414.351 212.021 420.833 212.99 421.802C213.343 422.046 213.772 422.154 214.198 422.106C216.065 421.946 217.907 421.572 219.688 420.99V420.99Z" fill="#07BF9D"/>
<path d="M216.905 402.414C214.541 402.414 212.624 400.496 212.624 398.131C212.624 395.766 214.541 393.849 216.905 393.849C219.269 393.849 221.186 395.766 221.186 398.131C221.186 400.496 219.269 402.414 216.905 402.414Z" fill="#2F2E41"/>
<path d="M218.606 402.393C216.732 402.393 215.214 400.874 215.214 399C215.214 397.127 216.732 395.608 218.606 395.608C220.479 395.608 221.997 397.127 221.997 399C221.997 400.874 220.479 402.393 218.606 402.393Z" fill="#FFB8B8"/>
<path d="M216.423 402.296C216.733 402.406 217.112 402.503 217.355 402.275C217.457 402.144 217.516 401.985 217.526 401.819C217.535 401.654 217.495 401.489 217.41 401.347C217.234 401.067 217.092 400.768 216.986 400.455C216.954 400.22 216.984 399.981 217.072 399.76C217.16 399.54 217.304 399.346 217.49 399.198C217.857 398.918 218.274 398.708 218.718 398.58L221.092 397.736C221.71 397.59 222.257 397.235 222.642 396.731C222.841 396.311 222.875 395.833 222.738 395.389C222.601 394.945 222.303 394.569 221.903 394.334C221.499 394.13 221.056 394.02 220.604 394.011C220.153 394.002 219.705 394.095 219.294 394.282C218.841 394.493 218.377 394.679 217.903 394.839C216.953 395.09 215.872 394.865 215.036 395.401C214.684 395.668 214.404 396.02 214.222 396.424C214.04 396.827 213.963 397.27 213.996 397.711C214.068 398.599 214.305 399.465 214.695 400.266C214.876 400.759 215.137 401.219 215.469 401.627C215.632 401.826 215.84 401.983 216.076 402.085C216.311 402.186 216.568 402.23 216.825 402.211L216.423 402.296Z" fill="#2F2E41"/>
<path d="M213.315 398.822C211.789 398.822 210.553 397.585 210.553 396.059C210.553 394.533 211.789 393.297 213.315 393.297C214.84 393.297 216.076 394.533 216.076 396.059C216.076 397.585 214.84 398.822 213.315 398.822Z" fill="#2F2E41"/>
<path d="M217.872 400.065C217.872 400.015 217.858 399.966 217.832 399.923C217.807 399.88 217.77 399.845 217.725 399.821C217.681 399.798 217.631 399.787 217.581 399.789C217.531 399.792 217.483 399.808 217.441 399.836C217.4 399.864 217.366 399.903 217.345 399.948C217.324 399.994 217.316 400.044 217.321 400.094C217.326 400.144 217.345 400.191 217.375 400.231C217.405 400.271 217.445 400.302 217.492 400.321V400.929C217.492 400.942 217.494 400.956 217.5 400.969C217.505 400.981 217.512 400.993 217.522 401.003C217.532 401.012 217.543 401.02 217.556 401.025C217.568 401.031 217.582 401.033 217.595 401.033C217.609 401.033 217.623 401.031 217.635 401.025C217.648 401.02 217.659 401.012 217.669 401.003C217.679 400.993 217.686 400.981 217.691 400.969C217.697 400.956 217.699 400.942 217.699 400.929V400.321C217.75 400.301 217.794 400.265 217.824 400.22C217.855 400.174 217.872 400.12 217.872 400.065V400.065Z" fill="white"/>
<path d="M226.483 409.901C226.281 409.881 226.077 409.905 225.885 409.973C225.694 410.04 225.519 410.148 225.374 410.29C225.229 410.432 225.117 410.604 225.045 410.795C224.974 410.985 224.945 411.188 224.961 411.391L220.437 413.364L222.587 414.762L226.553 412.674C226.891 412.625 227.2 412.454 227.421 412.193C227.641 411.931 227.758 411.598 227.749 411.256C227.741 410.915 227.607 410.588 227.374 410.338C227.14 410.088 226.823 409.933 226.483 409.901Z" fill="#FFB8B8"/>
<path d="M218.66 416.608L224.2 414.282C224.277 414.25 224.346 414.203 224.404 414.143C224.462 414.084 224.507 414.014 224.538 413.936C224.568 413.859 224.583 413.777 224.581 413.694C224.579 413.611 224.56 413.529 224.526 413.453L224.003 412.292C223.941 412.154 223.831 412.044 223.693 411.981C223.556 411.919 223.4 411.909 223.255 411.953L218.835 413.304L218.624 407.295C218.616 407.058 218.559 406.825 218.457 406.611C218.355 406.397 218.211 406.206 218.032 406.05C217.854 405.894 217.645 405.776 217.419 405.704C217.193 405.631 216.955 405.606 216.719 405.63V405.63C216.348 405.665 215.998 405.82 215.722 406.071C215.446 406.322 215.259 406.656 215.189 407.022C214.698 409.537 215.894 413.548 216.651 415.715C216.754 416.01 216.947 416.266 217.202 416.447C217.457 416.629 217.762 416.727 218.075 416.728C218.276 416.727 218.475 416.687 218.66 416.608Z" fill="#07BF9D"/>
<path d="M786.728 415.187H795.213V412.61C792.532 410.744 790.156 410.906 787.031 412.762L786.728 415.187Z" fill="#07BF9D"/>
<path d="M797.178 460.953H799.035L799.313 453.786H797.178V460.953Z" fill="#FFB8B8"/>
<path d="M796.704 462.754L802.694 462.754V462.678C802.694 462.372 802.633 462.068 802.516 461.785C802.399 461.502 802.227 461.245 802.011 461.029C801.794 460.812 801.537 460.64 801.255 460.523C800.972 460.406 800.669 460.346 800.362 460.346H800.362L796.704 460.346L796.704 462.754Z" fill="#2F2E41"/>
<path d="M786.715 460.953H784.858L784.58 453.786H786.716L786.715 460.953Z" fill="#FFB8B8"/>
<path d="M787.189 460.346L783.531 460.346H783.531C783.225 460.346 782.921 460.406 782.639 460.523C782.356 460.64 782.099 460.812 781.882 461.029C781.666 461.245 781.494 461.502 781.377 461.785C781.26 462.068 781.199 462.372 781.199 462.678V462.754L787.189 462.754L787.189 460.346Z" fill="#2F2E41"/>
<path d="M786.666 460.034C786.821 460.033 786.972 459.98 787.093 459.883C787.214 459.786 787.298 459.651 787.332 459.5L791.936 439.412C791.946 439.361 791.974 439.315 792.015 439.283C792.055 439.25 792.106 439.233 792.158 439.234H792.159C792.211 439.233 792.262 439.251 792.303 439.284C792.343 439.317 792.371 439.363 792.38 439.414L796.608 459.367C796.641 459.52 796.725 459.656 796.847 459.755C796.968 459.853 797.119 459.907 797.275 459.907H799.289C799.382 459.907 799.474 459.888 799.56 459.852C799.645 459.815 799.722 459.761 799.786 459.693C799.849 459.626 799.899 459.546 799.93 459.458C799.962 459.371 799.976 459.278 799.97 459.185L798.47 433.896L797.866 433.717L797.855 433.717L785.998 433.821L783.472 459.083C783.464 459.173 783.473 459.264 783.499 459.35C783.526 459.437 783.57 459.517 783.628 459.586C783.686 459.656 783.757 459.713 783.838 459.755C783.918 459.796 784.006 459.821 784.096 459.829L786.612 460.032C786.63 460.033 786.648 460.034 786.666 460.034Z" fill="#2F2E41"/>
<path d="M791.563 410.569C789.508 410.569 787.842 408.902 787.842 406.846C787.842 404.79 789.508 403.124 791.563 403.124C793.618 403.124 795.284 404.79 795.284 406.846C795.284 408.902 793.618 410.569 791.563 410.569Z" fill="#FFB8B8"/>
<path d="M793.843 436.669C794.496 436.677 795.146 436.585 795.771 436.397C796.327 436.229 796.843 435.949 797.287 435.575C797.731 435.2 798.094 434.739 798.353 434.218C798.435 434.062 798.453 433.88 798.404 433.71C797.993 432.309 796.01 425.025 797.275 419.235C797.454 418.431 797.469 417.599 797.319 416.788C797.169 415.978 796.858 415.207 796.403 414.519C795.959 413.838 795.383 413.252 794.708 412.798C794.033 412.344 793.274 412.03 792.475 411.876V411.876C792.265 411.835 792.054 411.802 791.848 411.776C790.965 411.667 790.069 411.755 789.224 412.033C788.379 412.311 787.606 412.773 786.96 413.385C786.295 414.009 785.776 414.772 785.441 415.62C785.105 416.468 784.961 417.379 785.018 418.289L785.991 433.901C785.998 434.018 786.035 434.131 786.098 434.23C786.162 434.328 786.25 434.408 786.354 434.462C787.474 435.049 790.839 436.669 793.843 436.669Z" fill="#3F3D56"/>
<path d="M787.359 404.106C787.746 403.134 788.454 402.325 789.365 401.812C790.277 401.299 791.336 401.115 792.367 401.29L791.194 402.238C792.651 402.287 794.186 402.183 795.227 403.205C794.896 403.196 794.461 403.905 794.13 403.895C794.44 403.917 794.739 404.022 794.994 404.199C795.25 404.375 795.454 404.617 795.585 404.899C795.838 405.471 795.898 406.109 795.754 406.718C795.378 407.613 794.941 408.481 794.447 409.315C794.49 407.835 791.576 404.303 790.152 404.671C790.875 404.94 791.503 405.416 791.955 406.041C790.987 405.552 789.892 405.373 788.819 405.527C788.574 405.583 788.321 405.598 788.071 405.569C787.918 405.539 787.775 405.47 787.656 405.369C787.538 405.267 787.447 405.137 787.392 404.991C787.338 404.845 787.322 404.687 787.346 404.532C787.37 404.378 787.434 404.233 787.53 404.11L787.359 404.106Z" fill="#2F2E41"/>
<path d="M794.099 435.731C794.193 435.731 794.286 435.711 794.372 435.673L801.433 432.591C801.583 432.526 801.705 432.41 801.776 432.263C801.847 432.116 801.862 431.948 801.82 431.791L797.145 414.128C797.059 413.799 796.907 413.491 796.7 413.222C796.492 412.952 796.233 412.727 795.938 412.559C795.642 412.391 795.316 412.284 794.979 412.243C794.641 412.203 794.299 412.23 793.973 412.324L792.104 412.857L793.419 435.089C793.426 435.198 793.459 435.305 793.516 435.399C793.572 435.493 793.651 435.572 793.744 435.63C793.851 435.696 793.974 435.731 794.099 435.731V435.731Z" fill="#07BF9D"/>
<path d="M781.031 431.791L781.342 430.619L781.792 428.915L782.009 428.099L782.459 426.399L785.706 414.127C785.792 413.799 785.944 413.49 786.151 413.221C786.358 412.951 786.617 412.726 786.913 412.558C787.208 412.39 787.534 412.283 787.872 412.243C788.209 412.202 788.552 412.23 788.878 412.324L790.746 412.857L789.821 428.494L789.725 430.126L789.665 431.156V431.157L789.568 432.78L789.431 435.089C789.42 435.262 789.344 435.425 789.218 435.544C789.091 435.663 788.925 435.73 788.751 435.731C788.657 435.731 788.564 435.711 788.478 435.674L781.418 432.591C781.268 432.527 781.146 432.41 781.075 432.263C781.004 432.116 780.988 431.948 781.031 431.791Z" fill="#07BF9D"/>
<path d="M782.009 428.099L789.725 430.126L789.821 428.494L782.459 426.399L782.009 428.099Z" fill="#CCCCCC"/>
<path d="M781.342 430.619L789.568 432.781L789.665 431.157V431.155L781.792 428.915L781.342 430.619Z" fill="#CCCCCC"/>
<path d="M793.125 428.846L793.22 430.448L800.789 428.193L800.345 426.516L793.125 428.846Z" fill="#CCCCCC"/>
<path d="M793.283 431.503L801.005 429.009L801.45 430.69L793.376 433.095L793.283 431.503Z" fill="#CCCCCC"/>
<path d="M800.871 433.178C800.641 433.118 800.426 433.008 800.243 432.856C800.06 432.704 799.912 432.514 799.811 432.299C799.709 432.084 799.655 431.849 799.654 431.611C799.653 431.373 799.704 431.137 799.804 430.921L796.173 419.52L798.748 418.98L802.076 430.159C802.428 430.35 802.698 430.664 802.834 431.041C802.97 431.418 802.963 431.832 802.814 432.204C802.666 432.576 802.386 432.881 802.028 433.06C801.669 433.24 801.258 433.282 800.871 433.178V433.178Z" fill="#FFB8B8"/>
<path d="M796.072 413.915C795.333 413.99 794.917 414.821 795.101 415.857L795.983 420.825C796.049 421.197 796.356 421.492 796.61 421.428L799.594 420.682C799.823 420.625 799.908 420.299 799.778 419.972L797.987 415.478C797.865 415.053 797.617 414.675 797.275 414.396C796.933 414.116 796.513 413.948 796.072 413.915Z" fill="#3F3D56"/>
<path d="M791.577 399.879C790.317 399.879 789.107 400.369 788.203 401.246C787.299 402.123 786.771 403.318 786.732 404.577H785.819C785.739 404.577 785.662 404.609 785.605 404.666C785.548 404.723 785.516 404.8 785.516 404.88V406.093C785.516 406.173 785.548 406.25 785.605 406.307C785.662 406.364 785.739 406.396 785.819 406.396H796.122C796.203 406.396 796.28 406.364 796.336 406.307C796.393 406.25 796.425 406.173 796.425 406.093V404.729C796.425 404.092 796.3 403.461 796.056 402.873C795.813 402.284 795.455 401.75 795.005 401.299C794.555 400.849 794.02 400.492 793.432 400.248C792.844 400.004 792.213 399.879 791.577 399.879V399.879Z" fill="#07BF9D"/>
<path d="M790.997 429.859H793.139C793.208 429.859 793.274 429.834 793.325 429.788C793.376 429.741 793.408 429.678 793.414 429.609L793.843 425.214H790.294L790.722 429.609C790.729 429.678 790.76 429.741 790.811 429.788C790.862 429.834 790.929 429.859 790.997 429.859Z" fill="#E6E6E6"/>
<path d="M790.299 425.767H793.837C793.911 425.767 793.981 425.737 794.033 425.686C794.084 425.634 794.114 425.563 794.114 425.49V424.827C794.114 424.753 794.084 424.683 794.033 424.631C793.981 424.579 793.911 424.55 793.837 424.55H790.299C790.226 424.55 790.156 424.579 790.104 424.631C790.052 424.683 790.023 424.753 790.023 424.827V425.49C790.023 425.563 790.052 425.634 790.104 425.686C790.156 425.737 790.226 425.767 790.299 425.767V425.767Z" fill="#CCCCCC"/>
<path d="M792.022 427.502C791.939 427.511 791.857 427.527 791.776 427.55L786.072 422.657L786.405 420.862L783.763 420.004L782.863 423.125C782.791 423.377 782.802 423.646 782.895 423.891C782.988 424.137 783.158 424.345 783.38 424.485L790.604 429.058C790.599 429.381 790.692 429.698 790.871 429.967C791.051 430.235 791.308 430.443 791.608 430.562C791.908 430.681 792.238 430.706 792.552 430.633C792.867 430.561 793.152 430.394 793.37 430.155C793.587 429.916 793.727 429.617 793.77 429.297C793.814 428.977 793.759 428.651 793.612 428.363C793.466 428.075 793.236 427.838 792.952 427.684C792.668 427.53 792.343 427.467 792.022 427.502H792.022Z" fill="#FFB8B8"/>
<path d="M786.057 414.325C785.267 414.104 784.478 414.705 784.214 415.729L782.945 420.645C782.85 421.013 783.035 421.405 783.323 421.446L786.703 421.932C786.963 421.97 787.192 421.703 787.202 421.352L787.333 416.515C787.383 416.061 787.287 415.603 787.057 415.209C786.827 414.815 786.476 414.505 786.057 414.325Z" fill="#3F3D56"/>
<path d="M747.64 427.623H750.213C750.295 427.623 750.375 427.592 750.436 427.537C750.497 427.481 750.536 427.405 750.543 427.323L751.058 422.042H746.794L747.309 427.323C747.317 427.405 747.355 427.481 747.416 427.537C747.477 427.592 747.557 427.623 747.64 427.623V427.623Z" fill="#E6E6E6"/>
<path d="M746.801 422.706H751.052C751.14 422.706 751.224 422.671 751.286 422.609C751.349 422.546 751.384 422.462 751.384 422.374V421.577C751.384 421.488 751.349 421.404 751.286 421.342C751.224 421.279 751.14 421.244 751.052 421.244H746.801C746.713 421.244 746.628 421.279 746.566 421.342C746.504 421.404 746.469 421.488 746.469 421.577V422.374C746.469 422.462 746.504 422.546 746.566 422.609C746.628 422.671 746.713 422.706 746.801 422.706V422.706Z" fill="#CCCCCC"/>
<path d="M722.359 458.636C724.229 456.148 725.706 453.389 726.742 450.454C726.801 450.279 726.797 450.087 726.729 449.915C726.662 449.742 726.535 449.599 726.372 449.511L719.974 446.082C719.87 446.026 719.756 445.994 719.638 445.99C719.521 445.985 719.403 446.007 719.296 446.054C719.186 446.102 719.089 446.174 719.011 446.265C718.933 446.356 718.878 446.464 718.848 446.58C718.103 449.408 716.703 452.021 714.762 454.208C714.682 454.297 714.623 454.403 714.591 454.518C714.558 454.633 714.552 454.754 714.573 454.872C714.593 454.988 714.639 455.097 714.709 455.192C714.778 455.288 714.867 455.366 714.971 455.421L721.369 458.85C721.533 458.938 721.722 458.964 721.903 458.925C722.085 458.885 722.246 458.783 722.359 458.636Z" fill="#CCCCCC"/>
<path d="M721.922 458.308C721.888 458.351 721.84 458.38 721.786 458.392C721.732 458.403 721.676 458.395 721.627 458.369L715.229 454.94C715.198 454.923 715.171 454.9 715.151 454.872C715.13 454.844 715.116 454.811 715.111 454.776C715.104 454.74 715.106 454.702 715.116 454.667C715.126 454.631 715.145 454.598 715.17 454.571C717.168 452.32 718.609 449.63 719.376 446.718C719.385 446.682 719.402 446.649 719.426 446.62C719.45 446.592 719.48 446.57 719.514 446.555C719.546 446.541 719.581 446.534 719.616 446.535C719.651 446.537 719.685 446.546 719.716 446.563L726.114 449.993C726.162 450.019 726.2 450.061 726.221 450.112C726.241 450.163 726.243 450.22 726.226 450.272C725.21 453.155 723.758 455.865 721.922 458.308V458.308Z" fill="white"/>
<path d="M719.554 450.976L723.038 452.514C723.171 452.573 723.321 452.576 723.456 452.524C723.591 452.471 723.7 452.368 723.758 452.235L723.845 452.04C723.903 451.907 723.906 451.757 723.854 451.622C723.802 451.487 723.698 451.378 723.566 451.319L720.081 449.781C719.949 449.722 719.798 449.719 719.663 449.771C719.528 449.824 719.42 449.928 719.361 450.06L719.275 450.255C719.217 450.388 719.213 450.538 719.265 450.673C719.318 450.808 719.421 450.917 719.554 450.976V450.976Z" fill="#CCCCCC"/>
<path d="M718.28 453.343L721.764 454.881C721.897 454.94 722.047 454.943 722.182 454.891C722.317 454.839 722.426 454.735 722.484 454.602L722.57 454.407C722.629 454.274 722.632 454.124 722.58 453.989C722.528 453.854 722.424 453.745 722.291 453.687L718.807 452.148C718.674 452.09 718.524 452.086 718.389 452.139C718.254 452.191 718.145 452.295 718.087 452.427L718.001 452.623C717.942 452.755 717.939 452.905 717.991 453.04C718.044 453.175 718.147 453.284 718.28 453.343V453.343Z" fill="#CCCCCC"/>
<path d="M726.452 451.37C726.692 451.216 726.896 451.01 727.048 450.768C727.201 450.526 727.298 450.254 727.334 449.97C727.37 449.686 727.343 449.398 727.255 449.126C727.168 448.854 727.022 448.604 726.827 448.394L728.297 427.534L724.064 427.945L723.948 448.373C723.617 448.723 723.427 449.183 723.412 449.664C723.398 450.145 723.56 450.615 723.869 450.984C724.178 451.354 724.611 451.597 725.087 451.668C725.563 451.739 726.049 451.633 726.452 451.37V451.37Z" fill="#A0616A"/>
<path d="M727.339 434.543C727.438 434.472 727.52 434.379 727.578 434.272C727.637 434.165 727.67 434.046 727.677 433.924L727.987 428.302C728.018 427.745 727.841 427.196 727.491 426.762C727.142 426.327 726.643 426.037 726.093 425.949C725.542 425.86 724.978 425.978 724.51 426.28C724.041 426.583 723.701 427.048 723.555 427.587L722.193 432.613C722.136 432.823 722.165 433.047 722.273 433.235C722.381 433.424 722.559 433.562 722.769 433.619L726.645 434.67C726.762 434.702 726.886 434.707 727.006 434.685C727.126 434.664 727.24 434.615 727.339 434.543Z" fill="#3F3D56"/>
<path d="M734.553 477.017L736.784 477.016L737.846 468.406H734.552L734.553 477.017Z" fill="#A0616A"/>
<path d="M738.877 476.378H734.075V479.089H741.089V478.591C741.089 478.3 741.032 478.012 740.92 477.744C740.809 477.476 740.646 477.232 740.441 477.026C740.236 476.821 739.992 476.658 739.724 476.547C739.455 476.436 739.168 476.378 738.877 476.378V476.378Z" fill="#2F2E41"/>
<path d="M726.18 477.017L728.411 477.016L729.473 468.406H726.179L726.18 477.017Z" fill="#A0616A"/>
<path d="M730.504 476.378H725.701V479.089H732.715V478.591C732.715 478.3 732.658 478.012 732.547 477.744C732.436 477.476 732.273 477.232 732.067 477.026C731.862 476.821 731.618 476.658 731.35 476.547C731.082 476.436 730.794 476.378 730.504 476.378V476.378Z" fill="#2F2E41"/>
<path d="M734.658 472.678L737.115 472.561C737.324 472.551 737.522 472.461 737.667 472.31C737.812 472.159 737.894 471.958 737.895 471.748C738.543 461.748 739.44 451.025 738.067 446.882C738.068 446.764 738.043 446.647 737.994 446.54C737.946 446.432 737.875 446.336 737.786 446.259C737.697 446.181 737.592 446.124 737.479 446.09C737.366 446.057 737.247 446.048 737.13 446.065L727.301 447.493C727.107 447.52 726.929 447.616 726.8 447.764C726.671 447.912 726.6 448.101 726.6 448.297C725.345 453.202 725.288 462.097 725.336 471.339C725.335 471.447 725.355 471.554 725.396 471.654C725.437 471.754 725.497 471.845 725.573 471.922C725.65 471.999 725.74 472.06 725.84 472.101C725.94 472.143 726.047 472.164 726.155 472.164H728.803C728.999 472.165 729.188 472.096 729.337 471.969C729.485 471.842 729.583 471.665 729.613 471.472L731.247 461.081C731.271 460.929 731.349 460.79 731.467 460.691C731.584 460.592 731.734 460.539 731.888 460.542C732.042 460.545 732.189 460.604 732.304 460.707C732.418 460.81 732.491 460.951 732.509 461.104L733.806 471.957C733.83 472.156 733.927 472.339 734.076 472.472C734.226 472.605 734.419 472.679 734.62 472.679C734.632 472.679 734.645 472.679 734.658 472.678Z" fill="#2F2E41"/>
<path d="M732.929 448.299C734.363 447.455 735.953 446.911 737.604 446.697C737.712 446.686 737.817 446.654 737.913 446.602C738.008 446.549 738.092 446.478 738.159 446.392C738.228 446.306 738.278 446.206 738.308 446.1C738.337 445.994 738.344 445.882 738.329 445.773L735.974 428.283C735.838 427.259 735.443 426.288 734.826 425.46C734.209 424.633 733.391 423.977 732.449 423.556C731.537 423.137 730.533 422.958 729.533 423.036C728.533 423.115 727.569 423.448 726.734 424.004C726.653 424.058 726.574 424.113 726.496 424.169C725.534 424.874 724.803 425.848 724.393 426.968C723.984 428.088 723.915 429.305 724.196 430.464C725.64 436.374 726.136 446.063 726.221 447.945C726.228 448.106 726.282 448.26 726.376 448.39C726.471 448.52 726.601 448.619 726.752 448.674C727.641 448.997 728.578 449.164 729.524 449.168C730.715 449.175 731.887 448.876 732.929 448.299V448.299Z" fill="#3F3D56"/>
<path d="M730.959 421.181C728.49 421.181 726.488 419.179 726.488 416.709C726.488 414.239 728.49 412.236 730.959 412.236C733.428 412.236 735.43 414.239 735.43 416.709C735.43 419.179 733.428 421.181 730.959 421.181Z" fill="#A0616A"/>
<path d="M727.795 420.247C727.982 420.449 728.223 420.593 728.489 420.662C728.755 420.732 729.035 420.724 729.297 420.64C729.558 420.555 729.79 420.398 729.966 420.187C730.141 419.975 730.253 419.717 730.287 419.445C730.295 419.35 730.295 419.255 730.285 419.161C730.122 418.644 730.024 418.109 729.993 417.567C730.01 417.426 730.062 417.291 730.146 417.176C730.81 416.286 732.37 417.574 732.998 416.768C733.382 416.274 732.93 415.496 733.225 414.943C733.615 414.214 734.769 414.574 735.492 414.175C736.298 413.731 736.249 412.495 735.719 411.743C735.375 411.299 734.936 410.937 734.435 410.682C733.934 410.426 733.383 410.285 732.821 410.267C731.696 410.241 730.578 410.459 729.546 410.907C728.326 411.303 727.25 412.05 726.451 413.053C726.037 413.711 725.775 414.453 725.684 415.224C725.592 415.996 725.673 416.778 725.921 417.515C726.359 418.541 726.996 419.47 727.795 420.247Z" fill="#2F2E41"/>
<path d="M724.254 424.595C724.333 424.227 725.004 423.725 725.965 423.315C727.51 422.689 729.181 422.437 730.842 422.58C732.503 422.722 734.106 423.255 735.522 424.135C735.621 424.14 735.715 424.177 735.791 424.242C735.866 424.306 735.918 424.393 735.939 424.49L739.172 438.793L739.593 440.656L739.871 441.889L740.292 443.746L740.516 444.739C740.53 444.802 740.531 444.868 740.517 444.931C740.504 444.995 740.478 445.055 740.439 445.108C740.401 445.16 740.352 445.204 740.296 445.236C740.239 445.268 740.176 445.288 740.111 445.294L726.151 446.499C726.138 446.499 726.124 446.501 726.111 446.501C725.996 446.501 725.885 446.456 725.801 446.377C725.718 446.298 725.667 446.19 725.66 446.075L725.527 444.052L725.385 441.889L725.323 440.951L725.183 438.793L724.252 424.619V424.606L724.254 424.595Z" fill="#07BF9D"/>
<path d="M747.161 425.496C747.138 425.594 747.124 425.694 747.117 425.794L739.297 430.307L737.397 429.212L735.37 431.866L739.437 434.765L748.358 427.725C748.722 427.859 749.118 427.88 749.494 427.784C749.87 427.688 750.207 427.48 750.462 427.187C750.717 426.894 750.876 426.531 750.92 426.145C750.963 425.759 750.888 425.37 750.704 425.028C750.52 424.686 750.237 424.408 749.892 424.231C749.547 424.054 749.156 423.987 748.771 424.037C748.386 424.088 748.026 424.255 747.739 424.515C747.451 424.776 747.249 425.118 747.161 425.496V425.496Z" fill="#A0616A"/>
<path d="M739.018 429.923C739.031 429.802 739.017 429.679 738.976 429.564C738.935 429.449 738.869 429.344 738.783 429.258L734.803 425.276C734.409 424.881 733.882 424.647 733.325 424.618C732.768 424.588 732.22 424.766 731.787 425.117C731.353 425.468 731.065 425.967 730.978 426.518C730.89 427.069 731.01 427.633 731.314 428.101L734.148 432.47C734.266 432.652 734.452 432.78 734.665 432.825C734.877 432.87 735.099 432.829 735.281 432.711L738.649 430.525C738.752 430.458 738.838 430.37 738.902 430.266C738.966 430.162 739.006 430.045 739.018 429.923Z" fill="#3F3D56"/>
<path d="M725.183 438.793L725.323 440.951L739.593 440.656L739.172 438.793H725.183Z" fill="#CCCCCC"/>
<path d="M725.385 441.889L725.527 444.052L740.292 443.746L739.871 441.889H725.385Z" fill="#CCCCCC"/>
<path d="M730.871 408.019C732.385 408.019 733.838 408.609 734.925 409.662C736.011 410.716 736.645 412.151 736.692 413.664H737.789C737.885 413.664 737.978 413.702 738.046 413.771C738.114 413.839 738.153 413.932 738.153 414.028V415.485C738.153 415.582 738.114 415.674 738.046 415.743C737.978 415.811 737.885 415.849 737.789 415.849H725.41C725.314 415.849 725.221 415.811 725.153 415.743C725.085 415.674 725.046 415.582 725.046 415.485V413.846C725.046 413.081 725.197 412.323 725.49 411.616C725.782 410.909 726.211 410.267 726.752 409.726C727.293 409.185 727.935 408.755 728.642 408.463C729.349 408.17 730.106 408.019 730.871 408.019Z" fill="#07BF9D"/>
<path d="M698.087 467.301H699.335C699.343 467.149 701.019 463.215 701.019 463.215L702.033 460.763L702.702 459.129L703.716 456.677L704.876 453.857C704.905 453.73 704.977 453.617 705.08 453.536C705.182 453.454 705.309 453.41 705.439 453.41C705.57 453.41 705.697 453.454 705.799 453.536C705.901 453.617 705.973 453.73 706.003 453.857L707.163 456.677L708.176 459.129L708.846 460.763L709.859 463.215C709.859 463.215 711.535 467.149 711.543 467.301H712.792C713.117 467.301 713.429 467.43 713.658 467.66C713.888 467.89 714.017 468.201 714.017 468.527C714.017 468.852 713.888 469.163 713.658 469.393C713.429 469.623 713.117 469.752 712.792 469.752H698.087C697.762 469.752 697.45 469.623 697.22 469.393C696.99 469.163 696.861 468.852 696.861 468.527C696.861 468.201 696.99 467.89 697.22 467.66C697.45 467.43 697.762 467.301 698.087 467.301Z" fill="#FF6584"/>
<path d="M698.904 488.548H699.388C699.343 488.444 701.493 482.942 701.493 482.942L702.784 479.796L703.65 477.688L704.941 474.541L706.346 471.133C706.386 470.973 706.478 470.83 706.608 470.727C706.739 470.625 706.899 470.57 707.065 470.57C707.231 470.57 707.392 470.625 707.522 470.727C707.652 470.83 707.745 470.973 707.784 471.133L709.189 474.541L710.48 477.688L711.354 479.796L712.645 482.942C712.645 482.942 714.787 488.444 714.743 488.548H715.243C715.568 488.548 715.879 488.677 716.109 488.907C716.339 489.137 716.468 489.449 716.468 489.774C716.468 490.099 716.339 490.411 716.109 490.641C715.879 490.871 715.568 491 715.243 491H698.904C698.579 491 698.267 490.871 698.037 490.641C697.807 490.411 697.678 490.099 697.678 489.774C697.678 489.449 697.807 489.137 698.037 488.907C698.267 488.677 698.579 488.548 698.904 488.548Z" fill="#FF6584"/>
<path d="M702.703 459.129H708.176L707.163 456.677H703.716L702.703 459.129Z" fill="#F2F2F2"/>
<path d="M701.02 463.215H709.859L708.846 460.763H702.033L701.02 463.215Z" fill="#F2F2F2"/>
<path d="M703.65 477.688H710.48L709.189 474.541H704.941L703.65 477.688Z" fill="#F2F2F2"/>
<path d="M701.494 482.942H712.645L711.354 479.796H702.784L701.494 482.942Z" fill="#F2F2F2"/>
<path d="M518.614 420.512C518.488 420.387 518.391 420.236 518.33 420.07C518.268 419.903 518.244 419.725 518.258 419.548C518.273 419.371 518.326 419.2 518.414 419.046C518.502 418.892 518.623 418.759 518.768 418.657L519.381 414.615L521.899 415.407L520.52 419.013C520.675 419.268 520.732 419.572 520.679 419.866C520.626 420.16 520.467 420.424 520.232 420.609C519.998 420.794 519.703 420.886 519.405 420.868C519.107 420.85 518.826 420.723 518.614 420.512V420.512Z" fill="#FFB8B8"/>
<path d="M521.208 418.61L522.761 411.355C522.912 410.66 522.883 409.938 522.675 409.257C522.467 408.577 522.089 407.962 521.575 407.47C519.587 405.554 517.032 403.138 516.15 402.513C515.321 401.923 514.319 401.627 513.303 401.673L513.282 401.675L511.946 402.938L514.856 407.73L519.274 410.499L518.782 417.61L521.208 418.61Z" fill="#07BF9D"/>
<path d="M515.769 408.751H522.286C522.569 408.751 522.798 408.98 522.798 409.262C522.798 409.544 522.569 409.773 522.286 409.773H515.769C515.487 409.773 515.258 409.544 515.258 409.262C515.258 408.98 515.487 408.751 515.769 408.751Z" fill="#CCCCCC"/>
<path d="M515.769 419.872H522.286C522.569 419.872 522.798 420.101 522.798 420.383C522.798 420.666 522.569 420.895 522.286 420.895H515.769C515.487 420.895 515.258 420.666 515.258 420.383C515.258 420.101 515.487 419.872 515.769 419.872Z" fill="#CCCCCC"/>
<path d="M518.964 447.74C519.028 447.74 519.089 447.716 519.137 447.672C519.184 447.629 519.213 447.57 519.219 447.506L522.477 409.285C522.48 409.251 522.476 409.217 522.466 409.185C522.456 409.153 522.44 409.123 522.418 409.098C522.397 409.072 522.37 409.05 522.341 409.035C522.311 409.019 522.278 409.01 522.245 409.007C522.211 409.004 522.178 409.007 522.145 409.017C522.113 409.028 522.084 409.044 522.058 409.066C522.032 409.087 522.011 409.114 521.995 409.144C521.98 409.173 521.97 409.206 521.968 409.24L518.968 444.553L516.053 409.24C516.05 409.207 516.041 409.174 516.026 409.144C516.01 409.114 515.989 409.087 515.963 409.066C515.938 409.044 515.908 409.028 515.876 409.017C515.844 409.007 515.81 409.003 515.776 409.006C515.743 409.009 515.71 409.019 515.68 409.034C515.65 409.05 515.624 409.071 515.602 409.097C515.581 409.123 515.564 409.152 515.554 409.185C515.544 409.217 515.541 409.251 515.544 409.284L518.709 447.506C518.715 447.57 518.744 447.629 518.791 447.672C518.838 447.715 518.9 447.739 518.964 447.74L518.964 447.74Z" fill="#CCCCCC"/>
<path d="M511.65 400.143C509.798 400.143 508.297 398.641 508.297 396.789C508.297 394.936 509.798 393.435 511.65 393.435C513.502 393.435 515.003 394.936 515.003 396.789C515.003 398.641 513.502 400.143 511.65 400.143Z" fill="#FFB8B8"/>
<path d="M521.643 446.207L523.238 445.698L522.036 439.304L519.682 440.054L521.643 446.207Z" fill="#FFB8B8"/>
<path d="M521.732 447.621L526.865 445.985L526.823 445.851C526.66 445.341 526.301 444.916 525.825 444.67C525.349 444.425 524.795 444.377 524.284 444.54L521.076 445.563L521.732 447.621Z" fill="#2F2E41"/>
<path d="M510.041 446.173H511.715L512.511 439.716H510.041V446.173Z" fill="#FFB8B8"/>
<path d="M514.879 447.664H509.746V445.759H512.986C513.488 445.76 513.969 445.959 514.324 446.314C514.678 446.669 514.878 447.15 514.879 447.652V447.664Z" fill="#2F2E41"/>
<path d="M510.09 444.078L510.655 443.994C511.364 443.951 512.066 443.82 512.743 443.603C512.882 443.542 512.891 442.62 512.808 437.435C512.747 433.629 512.671 428.892 512.818 426.349C512.825 426.249 512.864 426.153 512.931 426.078C512.998 426.003 513.088 425.953 513.187 425.935C513.286 425.918 513.388 425.934 513.477 425.982C513.565 426.03 513.635 426.106 513.675 426.198C514.95 429.143 517.089 435.733 518.504 440.094C518.996 441.611 519.385 442.809 519.631 443.527C519.679 443.663 519.775 443.776 519.901 443.845C520.028 443.913 520.175 443.932 520.315 443.897C521.48 443.606 521.402 443.482 523.061 443.053C523.204 443.017 523.328 442.926 523.406 442.8C523.484 442.674 523.511 442.523 523.48 442.378C523.18 440.963 517.689 418.013 517.269 415.832C517.255 415.757 517.226 415.686 517.184 415.622C517.142 415.559 517.088 415.505 517.025 415.462C516.962 415.42 516.891 415.39 516.817 415.375C516.742 415.36 516.666 415.36 516.591 415.375C515.355 415.624 514.603 415.889 513.381 416.144C512.063 416.42 510.7 416.705 509.37 416.972C509.238 416.998 509.119 417.071 509.036 417.177C508.665 417.573 508.209 417.88 507.702 418.073C507.354 418.239 508.143 418.224 507.84 418.464C506.612 419.437 508.378 439.184 509.445 443.644C509.479 443.784 509.564 443.906 509.683 443.986C509.803 444.066 509.948 444.099 510.09 444.078V444.078Z" fill="#2F2E41"/>
<path d="M510.221 399.724C510.416 398.893 509.427 397.105 509.623 396.274C509.755 395.711 511.078 396.094 511.387 395.605C511.53 395.353 511.733 395.14 511.978 394.985C512.222 394.829 512.501 394.736 512.79 394.714C513.455 394.706 514.108 395.199 514.737 394.986C514.886 394.912 515.019 394.81 515.128 394.684C515.237 394.558 515.319 394.412 515.371 394.254C515.423 394.097 515.443 393.93 515.43 393.764C515.417 393.598 515.372 393.437 515.296 393.289C514.959 392.702 514.436 392.243 513.81 391.986C512.823 391.382 511.642 391.184 510.512 391.431C509.866 391.682 509.274 392.054 508.768 392.528C508.26 392.904 507.814 393.356 507.446 393.87C507.134 394.404 506.964 395.011 506.954 395.631C506.944 396.25 507.094 396.862 507.39 397.407C508 398.494 508.974 399.332 510.139 399.774" fill="#2F2E41"/>
<path d="M518.454 419.06C518.092 418.456 517.543 415.622 516.865 410.866C516.404 407.619 516.002 404.32 515.802 402.635C515.787 402.499 515.737 402.368 515.658 402.257C515.578 402.145 515.471 402.055 515.348 401.996C515.218 401.933 515.089 401.874 514.962 401.818C513.426 401.115 511.722 400.867 510.05 401.102C508.377 401.337 506.807 402.046 505.525 403.145L505.51 403.159L505.506 403.179C505.499 403.216 504.806 406.95 506.225 409.472C507.624 411.961 507.64 418.552 507.64 418.618V418.702L507.722 418.679C509.898 418.057 518.306 419.146 518.391 419.157L518.522 419.174L518.454 419.06Z" fill="#07BF9D"/>
<path d="M505.801 410.413H512.319C512.601 410.413 512.83 410.642 512.83 410.924C512.83 411.206 512.601 411.435 512.319 411.435H505.801C505.519 411.435 505.29 411.206 505.29 410.924C505.29 410.642 505.519 410.413 505.801 410.413Z" fill="#CCCCCC"/>
<path d="M505.801 421.534H512.319C512.601 421.534 512.83 421.763 512.83 422.045C512.83 422.328 512.601 422.557 512.319 422.557H505.801C505.519 422.557 505.29 422.328 505.29 422.045C505.29 421.763 505.519 421.534 505.801 421.534Z" fill="#CCCCCC"/>
<path d="M508.996 447.867C509.06 447.867 509.122 447.843 509.169 447.8C509.216 447.757 509.245 447.698 509.251 447.634L512.509 410.947C512.515 410.879 512.494 410.812 512.45 410.76C512.407 410.708 512.345 410.675 512.277 410.669C512.209 410.663 512.142 410.684 512.09 410.728C512.038 410.771 512.006 410.834 512 410.901L509 444.681L506.085 410.902C506.083 410.868 506.073 410.836 506.058 410.806C506.042 410.776 506.021 410.749 505.995 410.728C505.97 410.706 505.94 410.689 505.908 410.679C505.876 410.669 505.842 410.665 505.809 410.668C505.775 410.671 505.742 410.68 505.713 410.696C505.683 410.712 505.656 410.733 505.635 410.759C505.613 410.784 505.597 410.814 505.587 410.846C505.577 410.879 505.573 410.912 505.576 410.946L508.742 447.634C508.747 447.697 508.776 447.757 508.823 447.8C508.87 447.843 508.932 447.867 508.996 447.867L508.996 447.867Z" fill="#CCCCCC"/>
<path d="M511.101 421.696C511.139 421.523 511.138 421.343 511.1 421.17C511.061 420.997 510.985 420.834 510.876 420.693C510.768 420.553 510.63 420.438 510.472 420.356C510.315 420.275 510.141 420.229 509.964 420.222L507.254 417.162L505.571 419.196L508.687 421.473C508.695 421.772 508.812 422.058 509.016 422.276C509.221 422.494 509.498 422.63 509.795 422.657C510.093 422.684 510.39 422.602 510.63 422.425C510.871 422.247 511.038 421.988 511.101 421.696H511.101Z" fill="#FFB8B8"/>
<path d="M509.523 419.566L505.247 413.864L507.452 409.138L507.292 403.533L505.484 403.199L505.465 403.208C504.587 403.722 503.906 404.515 503.532 405.461C503.13 406.465 502.298 409.882 501.67 412.571C501.506 413.263 501.522 413.986 501.717 414.67C501.912 415.354 502.28 415.976 502.784 416.477L508.029 421.724L509.523 419.566Z" fill="#07BF9D"/>
<path d="M527.445 446.282L521.596 447.69C521.482 447.72 521.362 447.71 521.256 447.66C521.149 447.61 521.064 447.525 521.014 447.419L515.989 434.055C515.967 434.003 515.956 433.948 515.955 433.892C515.955 433.836 515.967 433.781 515.989 433.729C516.014 433.672 516.051 433.62 516.097 433.577C516.143 433.534 516.197 433.5 516.256 433.479L520.654 431.799C520.724 431.772 520.798 431.76 520.872 431.765C520.947 431.769 521.019 431.788 521.086 431.823C521.143 431.851 521.194 431.891 521.234 431.941C521.275 431.991 521.304 432.048 521.321 432.11L521.321 432.111L524.425 443.889L524.471 443.892C525.434 443.949 526.35 444.331 527.068 444.975C527.218 445.155 527.328 445.364 527.393 445.589C527.458 445.814 527.476 446.05 527.445 446.282Z" fill="#CCCCCC"/>
<path d="M523.209 438.79L523.236 439.045L517.903 439.609L517.876 439.355L523.209 438.79Z" fill="#B3B3B3"/>
<path d="M523.674 440.896L523.779 441.13L519.487 443.061L519.382 442.828L523.674 440.896Z" fill="#B3B3B3"/>
<path d="M517.315 437.565L522.373 435.889L522.268 435.656L517.21 437.331L517.315 437.565Z" fill="#B3B3B3"/>
<path d="M516.803 436.414L521.862 433.971L521.757 433.738L516.699 436.18L516.803 436.414Z" fill="#B3B3B3"/>
<path d="M524.12 442.898L524.286 443.093L520.639 446.209L520.473 446.015L524.12 442.898Z" fill="#B3B3B3"/>
<path d="M525.156 443.931L525.388 444.037L523.924 447.267L523.691 447.162L525.156 443.931Z" fill="#B3B3B3"/>
<path d="M382.599 421.582C382.816 421.532 383.019 421.435 383.194 421.297C383.369 421.16 383.512 420.986 383.612 420.787C383.713 420.589 383.769 420.37 383.776 420.148C383.783 419.925 383.741 419.704 383.654 419.5L389.265 406.819L386.055 406.01L381.549 418.729C381.215 418.899 380.955 419.186 380.818 419.535C380.681 419.884 380.677 420.271 380.807 420.622C380.936 420.974 381.19 421.266 381.52 421.443C381.851 421.62 382.234 421.669 382.599 421.582V421.582Z" fill="#A0616A"/>
<path d="M388.223 410.792C388.313 410.752 388.392 410.693 388.457 410.619C388.522 410.546 388.57 410.459 388.598 410.365L389.579 407.082C389.793 406.627 389.818 406.106 389.649 405.633C389.479 405.159 389.128 404.773 388.673 404.558C388.219 404.344 387.697 404.319 387.224 404.489C386.751 404.659 386.365 405.01 386.151 405.464L384.253 408.331C384.199 408.412 384.163 408.505 384.148 408.602C384.133 408.699 384.139 408.798 384.165 408.892C384.192 408.987 384.239 409.074 384.302 409.149C384.365 409.224 384.444 409.284 384.533 409.326L387.655 410.787C387.744 410.829 387.84 410.851 387.938 410.852C388.037 410.853 388.134 410.832 388.223 410.792V410.792Z" fill="#07BF9D"/>
<path d="M376.801 409.157L380.243 411.594C380.287 411.626 380.34 411.643 380.394 411.643C380.449 411.643 380.502 411.626 380.546 411.594L381.476 410.895C381.507 410.873 381.532 410.844 381.55 410.81C381.568 410.776 381.579 410.739 381.58 410.7C381.582 410.662 381.575 410.624 381.56 410.589C381.545 410.553 381.522 410.522 381.493 410.497L378.844 408.135C378.81 408.104 378.767 408.084 378.722 408.075C378.677 408.066 378.63 408.069 378.586 408.085L376.863 408.701C376.818 408.718 376.779 408.746 376.75 408.783C376.72 408.82 376.701 408.864 376.695 408.91C376.689 408.957 376.695 409.005 376.714 409.048C376.733 409.092 376.763 409.129 376.801 409.157V409.157Z" fill="#3F3D56"/>
<path d="M377.081 408.926C377.073 408.903 377.074 408.878 377.084 408.855C377.094 408.833 377.112 408.816 377.135 408.807L378.687 408.251C378.702 408.246 378.719 408.245 378.735 408.248C378.751 408.251 378.766 408.258 378.779 408.269L381.168 410.399L381.181 410.414C381.188 410.423 381.193 410.434 381.195 410.445C381.198 410.457 381.198 410.468 381.196 410.48C381.195 410.492 381.19 410.503 381.184 410.513C381.178 410.523 381.17 410.531 381.16 410.538L380.324 411.166C380.308 411.178 380.289 411.184 380.27 411.184C380.25 411.183 380.231 411.177 380.216 411.165L377.114 408.969C377.099 408.958 377.088 408.943 377.081 408.926Z" fill="white"/>
<path d="M389.345 445.497H387.608L386.781 438.795H389.345V445.497Z" fill="#A0616A"/>
<path d="M389.788 444.929L386.367 444.929H386.367C386.081 444.929 385.797 444.986 385.533 445.095C385.268 445.205 385.028 445.365 384.825 445.568C384.623 445.77 384.462 446.011 384.353 446.275C384.243 446.54 384.187 446.823 384.187 447.11V447.181L389.788 447.181L389.788 444.929Z" fill="#2F2E41"/>
<path d="M395.154 445.497H393.416L392.59 438.795H395.154V445.497Z" fill="#A0616A"/>
<path d="M395.597 444.929L392.176 444.929H392.176C391.89 444.929 391.606 444.986 391.342 445.095C391.077 445.205 390.837 445.365 390.634 445.568C390.432 445.77 390.271 446.011 390.162 446.275C390.052 446.54 389.996 446.823 389.996 447.11V447.181L395.597 447.181L395.597 444.929Z" fill="#2F2E41"/>
<path d="M395.522 443.448C395.641 443.312 395.708 443.138 395.711 442.957C396.125 438.696 394.998 416.295 392.395 414.382L392.378 414.366L384.759 413.05L384.617 413.192C384.606 413.39 383.221 433.025 387.046 443.046C387.093 443.165 387.175 443.268 387.281 443.34C387.387 443.413 387.512 443.451 387.64 443.451H389.162C389.25 443.451 389.337 443.433 389.417 443.398C389.498 443.363 389.57 443.311 389.63 443.247C389.689 443.182 389.735 443.106 389.764 443.023C389.793 442.939 389.804 442.851 389.797 442.764L388.566 424C388.561 423.946 388.578 423.893 388.611 423.851C388.645 423.808 388.693 423.78 388.746 423.773C388.8 423.765 388.854 423.777 388.898 423.808C388.943 423.839 388.974 423.885 388.985 423.938L392.454 442.982C392.483 443.116 392.555 443.237 392.659 443.327C392.763 443.417 392.893 443.472 393.029 443.482L395.027 443.63C395.043 443.632 395.059 443.632 395.074 443.632C395.242 443.632 395.403 443.566 395.522 443.448V443.448Z" fill="#2F2E41"/>
<path d="M385.496 401.564C383.574 401.564 382.016 400.006 382.016 398.083C382.016 396.161 383.574 394.602 385.496 394.602C387.418 394.602 388.976 396.161 388.976 398.083C388.976 400.006 387.418 401.564 385.496 401.564Z" fill="#A0616A"/>
<path d="M393.878 417.431C394.025 417.281 394.11 417.081 394.114 416.871L392.693 410.216C393.827 405.397 392.318 404.494 390.615 403.581L390.626 403.575L389.914 401.649C389.892 401.564 389.851 401.484 389.794 401.416C389.737 401.348 389.666 401.294 389.585 401.257C389.505 401.219 389.417 401.2 389.329 401.201C389.24 401.201 389.153 401.222 389.073 401.26L385.446 403.188C385.283 403.279 385.162 403.431 385.109 403.611C385.048 403.802 385.052 404.008 385.121 404.196L385.389 404.922C384.697 405.847 383.626 409.507 384.759 410.924L383.904 415.648C383.885 415.821 383.928 415.996 384.025 416.141C384.122 416.287 384.267 416.393 384.435 416.443L393.372 417.59C393.407 417.597 393.442 417.6 393.477 417.6C393.628 417.598 393.772 417.537 393.878 417.431V417.431Z" fill="#07BF9D"/>
<path d="M380.867 409.798C380.925 409.852 380.977 409.91 381.025 409.972L388.035 409.488L388.787 407.955L391.248 408.788L390.18 411.631C390.094 411.86 389.936 412.056 389.729 412.188C389.522 412.32 389.278 412.381 389.034 412.363L381.063 411.758C380.886 412.003 380.639 412.189 380.355 412.29C380.07 412.391 379.762 412.404 379.47 412.325C379.178 412.247 378.917 412.082 378.722 411.851C378.526 411.621 378.406 411.337 378.376 411.036C378.346 410.735 378.408 410.433 378.554 410.168C378.7 409.904 378.924 409.691 379.194 409.556C379.465 409.422 379.77 409.373 380.069 409.416C380.367 409.459 380.646 409.593 380.867 409.798V409.798Z" fill="#A0616A"/>
<path d="M388.297 409.512L391.352 410.529C391.439 410.558 391.531 410.568 391.622 410.558C391.713 410.548 391.801 410.519 391.88 410.472C391.958 410.425 392.026 410.362 392.078 410.286C392.13 410.211 392.165 410.125 392.181 410.035L392.738 406.872C392.884 406.426 392.847 405.941 392.635 405.522C392.424 405.104 392.055 404.786 391.609 404.64C391.164 404.493 390.679 404.529 390.26 404.739C389.841 404.95 389.523 405.318 389.375 405.763L387.929 408.619C387.888 408.701 387.865 408.79 387.861 408.882C387.857 408.974 387.874 409.065 387.909 409.15C387.943 409.234 387.996 409.311 388.063 409.373C388.13 409.436 388.21 409.483 388.297 409.512V409.512Z" fill="#07BF9D"/>
<path d="M387.451 395.334C385.886 395.334 384.617 394.065 384.617 392.5C384.617 390.934 385.886 389.665 387.451 389.665C389.016 389.665 390.285 390.934 390.285 392.5C390.285 394.065 389.016 395.334 387.451 395.334Z" fill="#2F2E41"/>
<path d="M382.202 398.513C381.928 398.568 381.643 398.545 381.382 398.445C381.249 398.369 381.135 398.263 381.05 398.135C380.966 398.008 380.913 397.862 380.895 397.71C380.367 394.2 383.35 394.489 383.703 394.337C383.925 394.207 384.134 394.054 384.326 393.882C384.823 393.606 385.39 393.481 385.956 393.523C386.626 393.461 387.301 393.544 387.937 393.765C388.49 394.025 388.95 394.449 389.253 394.979C389.553 395.507 389.773 396.077 389.906 396.67C390.115 397.341 390.153 398.054 390.017 398.744C389.872 399.258 389.57 399.715 389.152 400.049C388.735 400.384 388.224 400.579 387.69 400.609C387.776 400.196 387.723 399.766 387.54 399.386C387.357 399.007 387.054 398.698 386.678 398.507C386.08 398.213 385.399 398.132 384.749 398.278C384.327 398.363 383.899 398.416 383.469 398.437C383.047 398.453 382.541 398.478 382.202 398.513Z" fill="#2F2E41"/>
<path d="M109.86 446.188C109.857 442.47 108.379 438.904 105.749 436.276C103.119 433.648 99.5542 432.171 95.8369 432.171C92.1195 432.171 88.5542 433.648 85.9246 436.276C83.2951 438.904 81.8164 442.47 81.8135 446.188" fill="#F2F2F2"/>
<path d="M95.8369 446.188C95.9374 446.188 96.0338 446.148 96.1049 446.077C96.176 446.006 96.2159 445.91 96.2159 445.809V438.416C96.2159 438.316 96.176 438.219 96.1049 438.148C96.0338 438.077 95.9374 438.037 95.8369 438.037C95.7364 438.037 95.6399 438.077 95.5688 438.148C95.4977 438.219 95.4578 438.316 95.4578 438.416V445.809C95.4578 445.91 95.4978 446.006 95.5689 446.077C95.64 446.148 95.7364 446.188 95.8369 446.188V446.188Z" fill="#CCCCCC"/>
<path d="M95.837 443.648C95.9276 443.648 96.0152 443.615 96.0838 443.556L100.632 439.652C100.67 439.619 100.702 439.58 100.725 439.535C100.747 439.491 100.761 439.442 100.765 439.392C100.769 439.342 100.763 439.292 100.748 439.244C100.732 439.197 100.708 439.153 100.675 439.115C100.643 439.077 100.603 439.046 100.558 439.023C100.513 439.001 100.465 438.987 100.415 438.984C100.365 438.98 100.315 438.986 100.267 439.002C100.22 439.018 100.176 439.043 100.138 439.076L95.59 442.981C95.5313 443.031 95.4893 443.099 95.4699 443.174C95.4505 443.249 95.4546 443.328 95.4815 443.4C95.5084 443.473 95.5569 443.536 95.6204 443.58C95.684 443.624 95.7597 443.648 95.8371 443.648L95.837 443.648Z" fill="#CCCCCC"/>
<path d="M66.6533 446.188C66.6504 442.47 65.1717 438.904 62.5422 436.276C59.9126 433.648 56.3473 432.171 52.6299 432.171C48.9126 432.171 45.3474 433.648 42.7178 436.276C40.0882 438.904 38.6095 442.47 38.6067 446.188" fill="#F2F2F2"/>
<path d="M52.6299 446.188C52.7304 446.188 52.8269 446.148 52.898 446.077C52.9691 446.006 53.009 445.91 53.009 445.809V438.416C53.009 438.316 52.9691 438.219 52.898 438.148C52.8269 438.077 52.7304 438.037 52.6299 438.037C52.5294 438.037 52.433 438.077 52.3619 438.148C52.2908 438.219 52.2509 438.316 52.2509 438.416V445.809C52.2509 445.91 52.2908 446.006 52.3619 446.077C52.433 446.148 52.5294 446.188 52.6299 446.188V446.188Z" fill="#CCCCCC"/>
<path d="M52.6301 443.648C52.7207 443.648 52.8082 443.615 52.8768 443.556L57.4249 439.652C57.4632 439.619 57.4948 439.58 57.5178 439.535C57.5407 439.491 57.5546 439.442 57.5586 439.392C57.5627 439.342 57.5568 439.292 57.5413 439.244C57.5258 439.197 57.5011 439.153 57.4685 439.115C57.4359 439.077 57.3959 439.045 57.3512 439.023C57.3065 439 57.2578 438.987 57.2078 438.983C57.1578 438.98 57.1077 438.986 57.0602 439.002C57.0127 439.018 56.9689 439.043 56.9312 439.076L52.3831 442.981C52.3243 443.031 52.2824 443.099 52.263 443.174C52.2436 443.249 52.2476 443.328 52.2745 443.4C52.3014 443.473 52.3499 443.536 52.4135 443.58C52.4771 443.624 52.5527 443.648 52.6301 443.648V443.648Z" fill="#CCCCCC"/>
</svg>
