<svg width="194" height="57" viewBox="0 0 194 57" fill="none" xmlns="http://www.w3.org/2000/svg">
<path d="M22 4.96875C21.4375 4.96875 20.7812 5.08333 20.0312 5.3125C19.2812 5.54167 18.5104 5.97917 17.7188 6.625C16.9479 7.25 16.1875 8.13542 15.4375 9.28125C14.6875 10.4271 14.0104 11.9167 13.4062 13.75C12.8229 15.5625 12.3438 17.7708 11.9688 20.375C11.6146 22.9792 11.4375 26.0521 11.4375 29.5938C11.4375 32.9688 11.6146 35.8958 11.9688 38.375C12.3438 40.8542 12.8333 42.9688 13.4375 44.7188C14.0625 46.4479 14.7708 47.8646 15.5625 48.9688C16.3542 50.0729 17.1875 50.9271 18.0625 51.5312C18.9375 52.1562 19.8125 52.5833 20.6875 52.8125C21.5625 53.0417 22.3854 53.1562 23.1562 53.1562C23.9688 53.1562 24.7917 53.0521 25.625 52.8438C26.4583 52.6354 27.2708 52.3333 28.0625 51.9375C28.875 51.5417 29.6458 51.0625 30.375 50.5C31.125 49.9375 31.8125 49.2917 32.4375 48.5625L33.8438 49.9688C33.2188 50.7396 32.4688 51.5208 31.5938 52.3125C30.7188 53.125 29.6979 53.8542 28.5312 54.5C27.3854 55.1667 26.0938 55.7083 24.6562 56.125C23.2188 56.5417 21.625 56.75 19.875 56.75C17.1458 56.75 14.6042 56.2292 12.25 55.1875C9.91667 54.1458 7.875 52.5208 6.125 50.3125C4.39583 48.125 3.03125 45.3125 2.03125 41.875C1.05208 38.4375 0.5625 34.3229 0.5625 29.5312C0.5625 25.0312 1.08333 21.0833 2.125 17.6875C3.16667 14.2917 4.58333 11.4583 6.375 9.1875C8.16667 6.89583 10.2708 5.17708 12.6875 4.03125C15.1042 2.86458 17.6771 2.28125 20.4062 2.28125C22.2188 2.28125 23.8646 2.45833 25.3438 2.8125C26.8438 3.14583 28.1354 3.64583 29.2188 4.3125C30.3021 4.95833 31.1354 5.77083 31.7188 6.75C32.3229 7.70833 32.625 8.80208 32.625 10.0312C32.625 10.5938 32.5312 11.1875 32.3438 11.8125C32.1562 12.4167 31.8646 12.9792 31.4688 13.5C31.0938 14 30.625 14.4167 30.0625 14.75C29.5 15.0625 28.8438 15.2188 28.0938 15.2188C27.4271 15.2188 26.9062 15.0729 26.5312 14.7812C26.1771 14.4896 25.9062 14.1042 25.7188 13.625C25.5521 13.1458 25.4375 12.6042 25.375 12C25.3333 11.375 25.3021 10.7396 25.2812 10.0938C25.2604 9.44792 25.2083 8.82292 25.125 8.21875C25.0625 7.59375 24.9167 7.04167 24.6875 6.5625C24.4792 6.08333 24.1667 5.69792 23.75 5.40625C23.3333 5.11458 22.75 4.96875 22 4.96875Z" fill="#078B73"/>
<path d="M46.8125 19.0625C46.3333 19.0625 45.875 19.125 45.4375 19.25C45.0208 19.375 44.6458 19.5833 44.3125 19.875C43.9792 20.1458 43.7188 20.5 43.5312 20.9375C43.3438 21.3542 43.25 21.8542 43.25 22.4375C43.25 23.25 43.5417 24.0625 44.125 24.875C44.7292 25.6667 45.4688 26.5 46.3438 27.375C47.2396 28.2292 48.1979 29.125 49.2188 30.0625C50.2604 30.9792 51.2188 31.9583 52.0938 33C52.9896 34.0208 53.7292 35.1146 54.3125 36.2812C54.9167 37.4479 55.2188 38.6979 55.2188 40.0312C55.2188 41.5312 54.9583 42.8646 54.4375 44.0312C53.9375 45.1979 53.2083 46.1875 52.25 47C51.3125 47.8125 50.1667 48.4375 48.8125 48.875C47.4792 49.2917 45.9896 49.5 44.3438 49.5C42.9062 49.5 41.6042 49.3021 40.4375 48.9062C39.2708 48.4896 38.2292 47.9896 37.3125 47.4062C36.4167 46.8021 35.6458 46.1667 35 45.5C34.3542 44.8333 33.8542 44.2292 33.5 43.6875L34.5938 42.9062C34.8646 43.2188 35.2083 43.5625 35.625 43.9375C36.0417 44.2917 36.5 44.625 37 44.9375C37.5208 45.25 38.0729 45.5104 38.6562 45.7188C39.2396 45.9062 39.8333 46 40.4375 46C41.9375 46 43.1667 45.6458 44.125 44.9375C45.0833 44.2083 45.5625 43.1354 45.5625 41.7188C45.5625 40.9271 45.3021 40.1146 44.7812 39.2812C44.2604 38.4271 43.6042 37.5521 42.8125 36.6562C42.0208 35.7604 41.1667 34.8333 40.25 33.875C39.3333 32.9167 38.4792 31.9271 37.6875 30.9062C36.8958 29.8854 36.2396 28.8333 35.7188 27.75C35.1979 26.6667 34.9375 25.5417 34.9375 24.375C34.9375 23.0625 35.1979 21.9167 35.7188 20.9375C36.2604 19.9583 36.9688 19.1458 37.8438 18.5C38.7396 17.8542 39.75 17.375 40.875 17.0625C42.0208 16.7292 43.1979 16.5625 44.4062 16.5625C45.8021 16.5625 47.0729 16.6875 48.2188 16.9375C49.3646 17.1875 50.3438 17.5729 51.1562 18.0938C51.9896 18.5938 52.625 19.2292 53.0625 20C53.5208 20.7708 53.75 21.6667 53.75 22.6875C53.75 23.4792 53.4896 24.1667 52.9688 24.75C52.4479 25.3333 51.7188 25.625 50.7812 25.625C49.8854 25.625 49.1979 25.4375 48.7188 25.0625C48.2604 24.6667 48.0312 24.1354 48.0312 23.4688C48.0312 23.0312 48.1354 22.6875 48.3438 22.4375C48.5729 22.1875 48.8229 21.9896 49.0938 21.8438C49.3646 21.6771 49.6042 21.5417 49.8125 21.4375C50.0417 21.3125 50.1562 21.1562 50.1562 20.9688C50.1562 20.3854 49.8438 19.9271 49.2188 19.5938C48.5938 19.2396 47.7917 19.0625 46.8125 19.0625Z" fill="#078B73"/>
<path d="M70.4375 19.0625C69.9583 19.0625 69.5 19.125 69.0625 19.25C68.6458 19.375 68.2708 19.5833 67.9375 19.875C67.6042 20.1458 67.3438 20.5 67.1562 20.9375C66.9688 21.3542 66.875 21.8542 66.875 22.4375C66.875 23.25 67.1667 24.0625 67.75 24.875C68.3542 25.6667 69.0938 26.5 69.9688 27.375C70.8646 28.2292 71.8229 29.125 72.8438 30.0625C73.8854 30.9792 74.8438 31.9583 75.7188 33C76.6146 34.0208 77.3542 35.1146 77.9375 36.2812C78.5417 37.4479 78.8438 38.6979 78.8438 40.0312C78.8438 41.5312 78.5833 42.8646 78.0625 44.0312C77.5625 45.1979 76.8333 46.1875 75.875 47C74.9375 47.8125 73.7917 48.4375 72.4375 48.875C71.1042 49.2917 69.6146 49.5 67.9688 49.5C66.5312 49.5 65.2292 49.3021 64.0625 48.9062C62.8958 48.4896 61.8542 47.9896 60.9375 47.4062C60.0417 46.8021 59.2708 46.1667 58.625 45.5C57.9792 44.8333 57.4792 44.2292 57.125 43.6875L58.2188 42.9062C58.4896 43.2188 58.8333 43.5625 59.25 43.9375C59.6667 44.2917 60.125 44.625 60.625 44.9375C61.1458 45.25 61.6979 45.5104 62.2812 45.7188C62.8646 45.9062 63.4583 46 64.0625 46C65.5625 46 66.7917 45.6458 67.75 44.9375C68.7083 44.2083 69.1875 43.1354 69.1875 41.7188C69.1875 40.9271 68.9271 40.1146 68.4062 39.2812C67.8854 38.4271 67.2292 37.5521 66.4375 36.6562C65.6458 35.7604 64.7917 34.8333 63.875 33.875C62.9583 32.9167 62.1042 31.9271 61.3125 30.9062C60.5208 29.8854 59.8646 28.8333 59.3438 27.75C58.8229 26.6667 58.5625 25.5417 58.5625 24.375C58.5625 23.0625 58.8229 21.9167 59.3438 20.9375C59.8854 19.9583 60.5938 19.1458 61.4688 18.5C62.3646 17.8542 63.375 17.375 64.5 17.0625C65.6458 16.7292 66.8229 16.5625 68.0312 16.5625C69.4271 16.5625 70.6979 16.6875 71.8438 16.9375C72.9896 17.1875 73.9688 17.5729 74.7812 18.0938C75.6146 18.5938 76.25 19.2292 76.6875 20C77.1458 20.7708 77.375 21.6667 77.375 22.6875C77.375 23.4792 77.1146 24.1667 76.5938 24.75C76.0729 25.3333 75.3438 25.625 74.4062 25.625C73.5104 25.625 72.8229 25.4375 72.3438 25.0625C71.8854 24.6667 71.6562 24.1354 71.6562 23.4688C71.6562 23.0312 71.7604 22.6875 71.9688 22.4375C72.1979 22.1875 72.4479 21.9896 72.7188 21.8438C72.9896 21.6771 73.2292 21.5417 73.4375 21.4375C73.6667 21.3125 73.7812 21.1562 73.7812 20.9688C73.7812 20.3854 73.4688 19.9271 72.8438 19.5938C72.2188 19.2396 71.4167 19.0625 70.4375 19.0625Z" fill="#078B73"/>
<path d="M83.8125 22.4375C83.6875 21.6042 83.4792 20.9583 83.1875 20.5C82.9167 20.0417 82.4479 19.8125 81.7812 19.8125C81.4271 19.8125 81.1146 19.875 80.8438 20C80.5938 20.125 80.3229 20.3021 80.0312 20.5312L79.4062 19.75C79.8854 19.3542 80.4167 18.9688 81 18.5938C81.6042 18.1979 82.25 17.8542 82.9375 17.5625C83.625 17.2708 84.3646 17.0312 85.1562 16.8438C85.9479 16.6562 86.7812 16.5625 87.6562 16.5625C88.9062 16.5625 89.9167 16.7812 90.6875 17.2188C91.4583 17.6354 92.0625 18.1667 92.5 18.8125C92.9583 19.4375 93.2812 20.1146 93.4688 20.8438C93.6562 21.5729 93.7917 22.2292 93.875 22.8125C94.6458 29.125 95.5104 33.9062 96.4688 37.1562C97.4271 40.4062 98.5625 42.0312 99.875 42.0312C100.604 42.0312 101.302 41.6354 101.969 40.8438C102.656 40.0521 103.25 38.9688 103.75 37.5938C104.271 36.2188 104.688 34.6146 105 32.7812C105.312 30.9479 105.469 28.9896 105.469 26.9062C105.469 25.5312 105.375 24.375 105.188 23.4375C105 22.4792 104.792 21.6771 104.562 21.0312C104.333 20.3854 104.125 19.8542 103.938 19.4375C103.75 19 103.656 18.6146 103.656 18.2812C103.656 17.9688 103.781 17.7083 104.031 17.5C104.281 17.2917 104.573 17.1146 104.906 16.9688C105.26 16.8229 105.615 16.7188 105.969 16.6562C106.344 16.5938 106.646 16.5625 106.875 16.5625C107.479 16.5625 107.917 16.6458 108.188 16.8125C108.458 16.9792 108.677 17.3021 108.844 17.7812C109.031 18.3854 109.156 19.1875 109.219 20.1875C109.302 21.1667 109.344 22.2188 109.344 23.3438C109.344 24.9479 109.229 26.7083 109 28.625C108.792 30.5417 108.458 32.4688 108 34.4062C107.562 36.3438 107 38.2188 106.312 40.0312C105.625 41.8438 104.802 43.4583 103.844 44.875C102.906 46.2708 101.833 47.3958 100.625 48.25C99.4375 49.0833 98.1042 49.5 96.625 49.5C94.8958 49.5 93.3958 49 92.125 48C90.8542 47 89.7708 45.6979 88.875 44.0938C88 42.4896 87.2708 40.6875 86.6875 38.6875C86.1042 36.6875 85.625 34.6875 85.25 32.6875C84.8958 30.6667 84.6042 28.7604 84.375 26.9688C84.1667 25.1562 83.9792 23.6458 83.8125 22.4375Z" fill="#078B73"/>
<path d="M125.188 46.1875C125.188 46.4583 125.135 46.7917 125.031 47.1875C124.948 47.5625 124.729 47.9271 124.375 48.2812C124.042 48.6146 123.552 48.8958 122.906 49.125C122.26 49.375 121.385 49.5 120.281 49.5C119.177 49.5 118.312 49.3646 117.688 49.0938C117.062 48.8438 116.594 48.5417 116.281 48.1875C115.969 47.8333 115.771 47.4688 115.688 47.0938C115.625 46.7188 115.594 46.4167 115.594 46.1875V22.0625C115.594 21.4583 115.448 20.9375 115.156 20.5C114.885 20.0417 114.417 19.8125 113.75 19.8125C113.396 19.8125 113.094 19.875 112.844 20C112.594 20.125 112.323 20.3021 112.031 20.5312L111.375 19.75C111.854 19.3542 112.385 18.9688 112.969 18.5938C113.573 18.1979 114.219 17.8542 114.906 17.5625C115.594 17.2708 116.333 17.0312 117.125 16.8438C117.917 16.6562 118.75 16.5625 119.625 16.5625C120.979 16.5625 122.031 16.75 122.781 17.125C123.531 17.4792 124.083 17.9271 124.438 18.4688C124.792 18.9896 125 19.5521 125.062 20.1562C125.146 20.7604 125.188 21.2917 125.188 21.75V46.1875ZM114.625 9.4375C114.625 8.85417 114.75 8.30208 115 7.78125C115.271 7.23958 115.635 6.77083 116.094 6.375C116.573 5.97917 117.115 5.66667 117.719 5.4375C118.344 5.20833 119.021 5.09375 119.75 5.09375C120.458 5.09375 121.115 5.20833 121.719 5.4375C122.344 5.66667 122.885 5.97917 123.344 6.375C123.802 6.77083 124.156 7.23958 124.406 7.78125C124.677 8.30208 124.812 8.85417 124.812 9.4375C124.812 10.0417 124.677 10.6042 124.406 11.125C124.156 11.6458 123.802 12.1042 123.344 12.5C122.885 12.875 122.344 13.1771 121.719 13.4062C121.115 13.6354 120.458 13.75 119.75 13.75C119.021 13.75 118.344 13.6354 117.719 13.4062C117.115 13.1771 116.573 12.875 116.094 12.5C115.635 12.1042 115.271 11.6458 115 11.125C114.75 10.6042 114.625 10.0417 114.625 9.4375Z" fill="#078B73"/>
<path d="M142.75 46.25C142.75 46.5208 142.698 46.8438 142.594 47.2188C142.51 47.5938 142.292 47.9479 141.938 48.2812C141.604 48.6146 141.104 48.8958 140.438 49.125C139.792 49.375 138.917 49.5 137.812 49.5C136.708 49.5 135.844 49.3646 135.219 49.0938C134.594 48.8438 134.125 48.5417 133.812 48.1875C133.521 47.8333 133.333 47.4688 133.25 47.0938C133.188 46.7188 133.156 46.4167 133.156 46.1875V5.875C133.156 5.27083 133.01 4.75 132.719 4.3125C132.448 3.85417 131.979 3.625 131.312 3.625C130.958 3.625 130.646 3.6875 130.375 3.8125C130.125 3.91667 129.854 4.08333 129.562 4.3125L128.938 3.5625C129.417 3.16667 129.948 2.78125 130.531 2.40625C131.115 2.01042 131.75 1.66667 132.438 1.375C133.146 1.08333 133.896 0.84375 134.688 0.65625C135.479 0.46875 136.312 0.375 137.188 0.375C138.542 0.375 139.594 0.5625 140.344 0.9375C141.094 1.29167 141.646 1.73958 142 2.28125C142.354 2.80208 142.562 3.36458 142.625 3.96875C142.708 4.55208 142.75 5.07292 142.75 5.53125V46.25Z" fill="#078B73"/>
<path d="M160.312 46.25C160.312 46.5208 160.26 46.8438 160.156 47.2188C160.073 47.5938 159.854 47.9479 159.5 48.2812C159.167 48.6146 158.667 48.8958 158 49.125C157.354 49.375 156.479 49.5 155.375 49.5C154.271 49.5 153.406 49.3646 152.781 49.0938C152.156 48.8438 151.688 48.5417 151.375 48.1875C151.083 47.8333 150.896 47.4688 150.812 47.0938C150.75 46.7188 150.719 46.4167 150.719 46.1875V5.875C150.719 5.27083 150.573 4.75 150.281 4.3125C150.01 3.85417 149.542 3.625 148.875 3.625C148.521 3.625 148.208 3.6875 147.938 3.8125C147.688 3.91667 147.417 4.08333 147.125 4.3125L146.5 3.5625C146.979 3.16667 147.51 2.78125 148.094 2.40625C148.677 2.01042 149.312 1.66667 150 1.375C150.708 1.08333 151.458 0.84375 152.25 0.65625C153.042 0.46875 153.875 0.375 154.75 0.375C156.104 0.375 157.156 0.5625 157.906 0.9375C158.656 1.29167 159.208 1.73958 159.562 2.28125C159.917 2.80208 160.125 3.36458 160.188 3.96875C160.271 4.55208 160.312 5.07292 160.312 5.53125V46.25Z" fill="#078B73"/>
<path d="M176.281 34.6562C176.281 35.3229 176.375 36.0521 176.562 36.8438C176.771 37.6146 177.062 38.3958 177.438 39.1875C177.812 39.9792 178.271 40.7396 178.812 41.4688C179.375 42.1771 180.01 42.8125 180.719 43.375C181.448 43.9375 182.25 44.3854 183.125 44.7188C184 45.0521 184.958 45.2188 186 45.2188C186.729 45.2188 187.406 45.1354 188.031 44.9688C188.656 44.8021 189.24 44.5729 189.781 44.2812C190.323 43.9896 190.844 43.6562 191.344 43.2812C191.844 42.8854 192.344 42.4688 192.844 42.0312L193.625 42.7812C193.146 43.4271 192.531 44.1354 191.781 44.9062C191.031 45.6771 190.125 46.4062 189.062 47.0938C188 47.7604 186.76 48.3229 185.344 48.7812C183.927 49.2188 182.312 49.4375 180.5 49.4375C178.688 49.4375 176.917 49.1146 175.188 48.4688C173.479 47.8021 171.958 46.8125 170.625 45.5C169.292 44.1875 168.219 42.5521 167.406 40.5938C166.615 38.6354 166.219 36.3438 166.219 33.7188C166.219 31.8229 166.458 30.0833 166.938 28.5C167.417 26.9167 168.062 25.4896 168.875 24.2188C169.708 22.9479 170.667 21.8333 171.75 20.875C172.854 19.9167 174.01 19.125 175.219 18.5C176.427 17.8542 177.656 17.375 178.906 17.0625C180.177 16.7292 181.396 16.5625 182.562 16.5625C184.104 16.5625 185.448 16.7292 186.594 17.0625C187.74 17.3958 188.688 17.8438 189.438 18.4062C190.208 18.9688 190.781 19.625 191.156 20.375C191.531 21.1042 191.719 21.875 191.719 22.6875C191.719 23.6667 191.438 24.5521 190.875 25.3438C190.312 26.1146 189.562 26.7917 188.625 27.375L176.281 34.6562ZM182.562 28.3125C182.833 28.1458 183.052 27.9896 183.219 27.8438C183.406 27.6771 183.552 27.4896 183.656 27.2812C183.76 27.0521 183.833 26.7812 183.875 26.4688C183.938 26.1354 183.969 25.7292 183.969 25.25C183.969 24.7292 183.906 24.1562 183.781 23.5312C183.677 22.8854 183.49 22.2812 183.219 21.7188C182.948 21.1562 182.604 20.6875 182.188 20.3125C181.771 19.9375 181.271 19.75 180.688 19.75C179.938 19.75 179.292 19.9792 178.75 20.4375C178.229 20.875 177.792 21.4479 177.438 22.1562C177.104 22.8646 176.833 23.6771 176.625 24.5938C176.438 25.4896 176.292 26.3958 176.188 27.3125C176.083 28.2292 176.021 29.1146 176 29.9688C175.979 30.8021 175.969 31.5104 175.969 32.0938L182.562 28.3125Z" fill="#078B73"/>
</svg>
