<svg width="102" height="102" viewBox="0 0 102 102" fill="none" xmlns="http://www.w3.org/2000/svg">
<path d="M55 25.3825C55 23.8613 53.3691 22.897 52.0362 23.6301L20.1808 41.1506C16.9853 42.9081 15 46.2658 15 49.9127V97H55V25.3825Z" fill="url(#paint0_linear)"/>
<path d="M80 58.3691C80 56.851 81.625 55.8863 82.9577 56.6133L96.7885 64.1574C100.001 65.9097 102 69.2769 102 72.9363V94C102 95.6569 100.657 97 99 97H80V58.3691Z" fill="url(#paint1_linear)"/>
<path d="M47 4.27008C47 2.57441 48.9777 1.6481 50.2804 2.73364L79.4018 27.0015C81.6818 28.9015 83 31.716 83 34.6837V99C83 100.657 81.6569 102 80 102H50C48.3431 102 47 100.657 47 99V4.27008Z" fill="url(#paint2_linear)"/>
<path d="M0 67C0 61.4772 4.47715 57 10 57H20C25.5228 57 30 61.4772 30 67V94C30 95.6569 28.6569 97 27 97H3C1.34315 97 0 95.6569 0 94V67Z" fill="#00FFD1"/>
<defs>
<linearGradient id="paint0_linear" x1="55" y1="22" x2="6.18829" y2="90.7432" gradientUnits="userSpaceOnUse">
<stop stop-color="#00FFD1"/>
<stop offset="1" stop-color="#00D7B0"/>
</linearGradient>
<linearGradient id="paint1_linear" x1="80" y1="55" x2="111.703" y2="87.5487" gradientUnits="userSpaceOnUse">
<stop stop-color="#00FFD1"/>
<stop offset="1" stop-color="#00D7B0"/>
</linearGradient>
<linearGradient id="paint2_linear" x1="65" y1="0" x2="65" y2="102" gradientUnits="userSpaceOnUse">
<stop stop-color="#00FFD1"/>
<stop offset="1" stop-color="#00BA98"/>
</linearGradient>
</defs>
</svg>
